{
.appVersion = "3109";
DisplayStrings = (
"/u1B2B3",
"/u1B2B2",
"/u1B1F6/u1B18F",
"/u1B2E4",
"/u1B1E6",
"/u1B2B2/u1B2B7/u1B2C0",
"/u1B18F",
"/nbspace"
);
copyright = "Copyright 2022 The Noto Project Authors (https://github.com/notofonts/nushu)";
customParameters = (
{
name = fsType;
value = (
);
},
{
name = blueShift;
value = 14;
},
{
name = glyphOrder;
value = (
.notdef,
space,
comma,
hyphen,
period,
zero,
one,
two,
three,
four,
five,
six,
seven,
eight,
nine,
A,
B,
C,
D,
E,
F,
G,
H,
I,
J,
K,
L,
M,
N,
O,
P,
Q,
R,
S,
T,
U,
V,
W,
X,
Y,
Z,
a,
b,
c,
d,
e,
f,
g,
h,
i,
j,
k,
l,
m,
n,
o,
p,
q,
r,
s,
t,
u,
v,
w,
x,
y,
z,
ensp,
emsp,
uni3000,
uni4E00,
uni4E66,
uni4F20,
uni4F53,
uni5973,
uni7EDF,
u16FE1,
u1B170,
u1B171,
u1B172,
u1B173,
u1B174,
u1B175,
u1B176,
u1B177,
u1B178,
u1B179,
u1B17A,
u1B17B,
u1B17C,
u1B17D,
u1B17E,
u1B17F,
u1B180,
u1B181,
u1B182,
u1B183,
u1B184,
u1B185,
u1B186,
u1B187,
u1B188,
u1B189,
u1B18A,
u1B18B,
u1B18C,
u1B18D,
u1B18E,
u1B18F,
u1B190,
u1B191,
u1B192,
u1B193,
u1B194,
u1B195,
u1B196,
u1B197,
u1B198,
u1B199,
u1B19A,
u1B19B,
u1B19C,
u1B19D,
u1B19E,
u1B19F,
u1B1A0,
u1B1A1,
u1B1A2,
u1B1A3,
u1B1A4,
u1B1A5,
u1B1A6,
u1B1A7,
u1B1A8,
u1B1A9,
u1B1AA,
u1B1AB,
u1B1AC,
u1B1AD,
u1B1AE,
u1B1AF,
u1B1B0,
u1B1B1,
u1B1B2,
u1B1B3,
u1B1B4,
u1B1B5,
u1B1B6,
u1B1B7,
u1B1B8,
u1B1B9,
u1B1BA,
u1B1BB,
u1B1BC,
u1B1BD,
u1B1BE,
u1B1BF,
u1B1C0,
u1B1C1,
u1B1C2,
u1B1C3,
u1B1C4,
u1B1C5,
u1B1C6,
u1B1C7,
u1B1C8,
u1B1C9,
u1B1CA,
u1B1CB,
u1B1CC,
u1B1CD,
u1B1CE,
u1B1CF,
u1B1D0,
u1B1D1,
u1B1D2,
u1B1D3,
u1B1D4,
u1B1D5,
u1B1D6,
u1B1D7,
u1B1D8,
u1B1D9,
u1B1DA,
u1B1DB,
u1B1DC,
u1B1DD,
u1B1DE,
u1B1DF,
u1B1E0,
u1B1E1,
u1B1E2,
u1B1E3,
u1B1E4,
u1B1E5,
u1B1E6,
u1B1E7,
u1B1E8,
u1B1E9,
u1B1EA,
u1B1EB,
u1B1EC,
u1B1ED,
u1B1EE,
u1B1EF,
u1B1F0,
u1B1F1,
u1B1F2,
u1B1F3,
u1B1F4,
u1B1F5,
u1B1F6,
u1B1F7,
u1B1F8,
u1B1F9,
u1B1FA,
u1B1FB,
u1B1FC,
u1B1FD,
u1B1FE,
u1B1FF,
u1B200,
u1B201,
u1B202,
u1B203,
u1B204,
u1B205,
u1B206,
u1B207,
u1B208,
u1B209,
u1B20A,
u1B20B,
u1B20C,
u1B20D,
u1B20E,
u1B20F,
u1B210,

glyphs = (
{
glyphname = comma;
lastChange = "2022-08-22 13:56:46 +0000";
layers = (
{
hints = (
{
horizontal = 1;
place = "{0, 21}";
target = up;
type = BottomGhost;
},
{
place = "{153, 68}";
type = Stem;
},
{
horizontal = 1;
place = "{-1, 128}";
type = Stem;
}
);
layerId = "6F1FF838-4CD9-4710-9EED-9AFF82DAD6EB";
paths = (
{
closed = 1;
nodes = (
"75 -190 LINE",
"165 -152 OFFCURVE",
"221 -77 OFFCURVE",
"221 19 CURVE SMOOTH",
"221 86 OFFCURVE",
"192 127 OFFCURVE",
"144 127 CURVE SMOOTH",
"107 127 OFFCURVE",
"75 102 OFFCURVE",
"75 63 CURVE SMOOTH",
"75 21 OFFCURVE",
"107 -1 OFFCURVE",
"142 -1 CURVE SMOOTH",
"146 -1 OFFCURVE",
"149 -1 OFFCURVE",
"153 0 CURVE",
"152 -61 OFFCURVE",
"115 -109 OFFCURVE",
"53 -136 CURVE"
);
}
);
width = 278;
},
{
hints = (
{
horizontal = 1;
place = "{0, 21}";
target = up;
type = BottomGhost;
},
{
place = "{153, 68}";
type = Stem;
},
{
horizontal = 1;
place = "{-1, 128}";
type = Stem;
}
);
layerId = "43631C01-6FFC-4BF5-B35A-DC7F74885E25";
paths = (
{
closed = 1;
nodes = (
"75 -190 LINE",
"165 -152 OFFCURVE",
"221 -77 OFFCURVE",
"221 19 CURVE SMOOTH",
"221 86 OFFCURVE",
"192 127 OFFCURVE",
"144 127 CURVE SMOOTH",
"107 127 OFFCURVE",
"75 102 OFFCURVE",
"75 63 CURVE SMOOTH",
"75 21 OFFCURVE",
"107 -1 OFFCURVE",
"142 -1 CURVE SMOOTH",
"146 -1 OFFCURVE",
"149 -1 OFFCURVE",
"153 0 CURVE",
"152 -61 OFFCURVE",
"115 -109 OFFCURVE",
"53 -136 CURVE"
);
}
);
width = 278;
},
{
background = {
paths = (
{
closed = 1;
nodes = (
"75 -190 LINE",
"165 -152 OFFCURVE",
"221 -77 OFFCURVE",
"221 19 CURVE SMOOTH",
"221 86 OFFCURVE",
"192 127 OFFCURVE",
"144 127 CURVE SMOOTH",
"107 127 OFFCURVE",
"75 102 OFFCURVE",
"75 63 CURVE SMOOTH",
"75 21 OFFCURVE",
"107 -1 OFFCURVE",
"142 -1 CURVE SMOOTH",
"146 -1 OFFCURVE",
"149 -1 OFFCURVE",
"153 0 CURVE",
"152 -61 OFFCURVE",
"115 -109 OFFCURVE",
"53 -136 CURVE"
);
}
);
};
hints = (
{
horizontal = 1;
place = "{0, 21}";
target = up;
type = BottomGhost;
},
{
place = "{153, 68}";
type = Stem;
},
{
horizontal = 1;
place = "{-1, 128}";
type = Stem;
}
);
layerId = "7B7A33B1-C38B-4BF8-ACF4-708FF5807549";
paths = (
{
closed = 1;
nodes = (
"75 -190 LINE",
"165 -152 OFFCURVE",
"221 -77 OFFCURVE",
"221 19 CURVE SMOOTH",
"221 86 OFFCURVE",
"192 127 OFFCURVE",
"144 127 CURVE SMOOTH",
"107 127 OFFCURVE",
"75 102 OFFCURVE",
"75 63 CURVE SMOOTH",
"75 21 OFFCURVE",
"107 -1 OFFCURVE",
"142 -1 CURVE SMOOTH",
"146 -1 OFFCURVE",
"149 -1 OFFCURVE",
"153 0 CURVE",
"152 -61 OFFCURVE",
"115 -109 OFFCURVE",
"53 -136 CURVE"
);
}
);
width = 278;
}
);
note = cid00013;
unicode = 002C;
},
{
glyphname = period;
lastChange = "2022-08-22 13:56:46 +0000";
layers = (
{
hints = (
{
horizontal = 1;
place = "{-13, 21}";
target = up;
type = BottomGhost;
},
{
place = "{73, 132}";
type = Stem;
},
{
horizontal = 1;
place = "{-13, 140}";
type = Stem;
}
);
layerId = "6F1FF838-4CD9-4710-9EED-9AFF82DAD6EB";
paths = (
{
closed = 1;
nodes = (
"175 -13 OFFCURVE",
"205 15 OFFCURVE",
"205 56 CURVE SMOOTH",
"205 97 OFFCURVE",
"175 127 OFFCURVE",
"139 127 CURVE SMOOTH",
"103 127 OFFCURVE",
"73 97 OFFCURVE",
"73 56 CURVE SMOOTH",
"73 15 OFFCURVE",
"103 -13 OFFCURVE",
"139 -13 CURVE SMOOTH"
);
}
);
width = 278;
},
{
hints = (
{
horizontal = 1;
place = "{-13, 21}";
target = up;
type = BottomGhost;
},
{
place = "{73, 132}";
type = Stem;
},
{
horizontal = 1;
place = "{-13, 140}";
type = Stem;
}
);
layerId = "43631C01-6FFC-4BF5-B35A-DC7F74885E25";
paths = (
{
closed = 1;
nodes = (
"175 -13 OFFCURVE",
"205 15 OFFCURVE",
"205 56 CURVE SMOOTH",
"205 97 OFFCURVE",
"175 127 OFFCURVE",
"139 127 CURVE SMOOTH",
"103 127 OFFCURVE",
"73 97 OFFCURVE",
"73 56 CURVE SMOOTH",
"73 15 OFFCURVE",
"103 -13 OFFCURVE",
"139 -13 CURVE SMOOTH"
);
}
);
width = 278;
},
{
background = {
paths = (
{
closed = 1;
nodes = (
"175 -13 OFFCURVE",
"205 15 OFFCURVE",
"205 56 CURVE SMOOTH",
"205 97 OFFCURVE",
"175 127 OFFCURVE",
"139 127 CURVE SMOOTH",
"103 127 OFFCURVE",
"73 97 OFFCURVE",
"73 56 CURVE SMOOTH",
"73 15 OFFCURVE",
"103 -13 OFFCURVE",
"139 -13 CURVE SMOOTH"
);
}
);
};
hints = (
{
horizontal = 1;
place = "{-13, 21}";
target = up;
type = BottomGhost;
},
{
place = "{73, 132}";
type = Stem;
},
{
horizontal = 1;
place = "{-13, 140}";
type = Stem;
}
);
layerId = "7B7A33B1-C38B-4BF8-ACF4-708FF5807549";
paths = (
{
closed = 1;
nodes = (
"175 -13 OFFCURVE",
"205 15 OFFCURVE",
"205 56 CURVE SMOOTH",
"205 97 OFFCURVE",
"175 127 OFFCURVE",
"139 127 CURVE SMOOTH",
"103 127 OFFCURVE",
"73 97 OFFCURVE",
"73 56 CURVE SMOOTH",
"73 15 OFFCURVE",
"103 -13 OFFCURVE",
"139 -13 CURVE SMOOTH"
);
}
);
width = 278;
}
);
note = cid00015;
unicode = 002E;
},
{
glyphname = uni4E66;
lastChange = "2021-03-01 15:19:27 +0000";
layers = (
{
guideLines = (
{
position = "{494, -76}";
}
);
hints = (
{
horizontal = 1;
place = "{24, 65}";
type = Stem;
},
{
horizontal = 1;
place = "{324, 71}";
type = Stem;
},
{
horizontal = 1;
place = "{590, 72}";
type = Stem;
},
{
place = "{420, 74}";
type = Stem;
},
{
place = "{725, 73}";
type = Stem;
},
{
place = "{863, 79}";
type = Stem;
}
);
layerId = "6F1FF838-4CD9-4710-9EED-9AFF82DAD6EB";
paths = (
{
closed = 1;
nodes = (
"948 671 LINE",
"906 708 OFFCURVE",
"823 766 OFFCURVE",
"760 805 CURVE",
"716 757 LINE",
"780 715 OFFCURVE",
"862 654 OFFCURVE",
"902 615 CURVE"
);
},
{
closed = 1;
nodes = (
"494 590 LINE",
"725 590 LINE",
"725 395 LINE",
"494 395 LINE"
);
},
{
closed = 1;
nodes = (
"798 395 LINE",
"798 662 LINE",
"494 662 LINE",
"494 833 LINE",
"420 833 LINE",
"420 662 LINE",
"130 662 LINE",
"130 590 LINE",
"420 590 LINE",
"420 395 LINE",
"64 395 LINE",
"64 324 LINE",
"420 324 LINE",
"420 -76 LINE",
"494 -76 LINE",
"494 324 LINE",
"863 324 LINE",
"851 179 OFFCURVE",
"837 116 OFFCURVE",
"818 99 CURVE",
"807 90 OFFCURVE",
"796 89 OFFCURVE",
"776 89 CURVE SMOOTH",
"752 89 OFFCURVE",
"689 89 OFFCURVE",
"626 95 CURVE",
"639 75 OFFCURVE",
"649 46 OFFCURVE",
"650 24 CURVE",
"712 21 OFFCURVE",
"772 20 OFFCURVE",
"802 22 CURVE SMOOTH",
"836 24 OFFCURVE",
"859 31 OFFCURVE",
"880 52 CURVE SMOOTH",
"909 82 OFFCURVE",
"924 161 OFFCURVE",
"939 360 CURVE",
"941 371 OFFCURVE",
"942 395 OFFCURVE",
"942 395 CURVE SMOOTH"
);
}
);
width = 1000;
},
{
guideLines = (
{
position = "{494, -76}";
}
);
hints = (
{
horizontal = 1;
place = "{24, 65}";
type = Stem;
},
{
horizontal = 1;
place = "{324, 71}";
type = Stem;
},
{
horizontal = 1;
place = "{590, 72}";
type = Stem;
},
{
place = "{420, 74}";
type = Stem;
},
{
place = "{725, 73}";
type = Stem;
},
{
place = "{863, 79}";
type = Stem;
}
);
layerId = "43631C01-6FFC-4BF5-B35A-DC7F74885E25";
paths = (
{
closed = 1;
nodes = (
"948 671 LINE",
"906 708 OFFCURVE",
"823 766 OFFCURVE",
"760 805 CURVE",
"716 757 LINE",
"780 715 OFFCURVE",
"862 654 OFFCURVE",
"902 615 CURVE"
);
},
{
closed = 1;
nodes = (
"494 590 LINE",
"725 590 LINE",
"725 395 LINE",
"494 395 LINE"
);
},
{
closed = 1;
nodes = (
"798 395 LINE",
"798 662 LINE",
"494 662 LINE",
"494 833 LINE",
"420 833 LINE",
"420 662 LINE",
"130 662 LINE",
"130 590 LINE",
"420 590 LINE",
"420 395 LINE",
"64 395 LINE",
"64 324 LINE",
"420 324 LINE",
"420 -76 LINE",
"494 -76 LINE",
"494 324 LINE",
"863 324 LINE",
"851 179 OFFCURVE",
"837 116 OFFCURVE",
"818 99 CURVE",
"807 90 OFFCURVE",
"796 89 OFFCURVE",
"776 89 CURVE SMOOTH",
"752 89 OFFCURVE",
"689 89 OFFCURVE",
"626 95 CURVE",
"639 75 OFFCURVE",
"649 46 OFFCURVE",
"650 24 CURVE",
"712 21 OFFCURVE",
"772 20 OFFCURVE",
"802 22 CURVE SMOOTH",
"836 24 OFFCURVE",
"859 31 OFFCURVE",
"880 52 CURVE SMOOTH",
"909 82 OFFCURVE",
"924 161 OFFCURVE",
"939 360 CURVE",
"941 371 OFFCURVE",
"942 395 OFFCURVE",
"942 395 CURVE SMOOTH"
);
}
);
width = 1000;
},
{
background = {
paths = (
{
closed = 1;
nodes = (
"948 671 LINE",
"906 708 OFFCURVE",
"823 766 OFFCURVE",
"760 805 CURVE",
"716 757 LINE",
"780 715 OFFCURVE",
"862 654 OFFCURVE",
"902 615 CURVE"
);
},
{
closed = 1;
nodes = (
"494 590 LINE",
"725 590 LINE",
"725 395 LINE",
"494 395 LINE"
);
},
{
closed = 1;
nodes = (
"798 395 LINE",
"798 662 LINE",
"494 662 LINE",
"494 833 LINE",
"420 833 LINE",
"420 662 LINE",
"130 662 LINE",
"130 590 LINE",
"420 590 LINE",
"420 395 LINE",
"64 395 LINE",
"64 324 LINE",
"420 324 LINE",
"420 -76 LINE",
"494 -76 LINE",
"494 324 LINE",
"863 324 LINE",
"851 179 OFFCURVE",
"837 116 OFFCURVE",
"818 99 CURVE",
"807 90 OFFCURVE",
"796 89 OFFCURVE",
"776 89 CURVE SMOOTH",
"752 89 OFFCURVE",
"689 89 OFFCURVE",
"626 95 CURVE",
"639 75 OFFCURVE",
"649 46 OFFCURVE",
"650 24 CURVE",
"712 21 OFFCURVE",
"772 20 OFFCURVE",
"802 22 CURVE SMOOTH",
"836 24 OFFCURVE",
"859 31 OFFCURVE",
"880 52 CURVE SMOOTH",
"909 82 OFFCURVE",
"924 161 OFFCURVE",
"939 360 CURVE",
"941 371 OFFCURVE",
"942 395 OFFCURVE",
"942 395 CURVE SMOOTH"
);
}
);
};
hints = (
{
horizontal = 1;
place = "{24, 65}";
type = Stem;
},
{
horizontal = 1;
place = "{324, 71}";
type = Stem;
},
{
horizontal = 1;
place = "{590, 72}";
type = Stem;
},
{
place = "{420, 74}";
type = Stem;
},
{
place = "{725, 73}";
type = Stem;
},
{
place = "{863, 79}";
type = Stem;
}
);
layerId = "7B7A33B1-C38B-4BF8-ACF4-708FF5807549";
paths = (
{
closed = 1;
nodes = (
"948 671 LINE",
"906 708 OFFCURVE",
"823 766 OFFCURVE",
"760 805 CURVE",
"716 757 LINE",
"780 715 OFFCURVE",
"862 654 OFFCURVE",
"902 615 CURVE"
);
},
{
closed = 1;
nodes = (
"494 590 LINE",
"725 590 LINE",
"725 395 LINE",
"494 395 LINE"
);
},
{
closed = 1;
nodes = (
"798 395 LINE",
"798 662 LINE",
"494 662 LINE",
"494 833 LINE",
"420 833 LINE",
"420 662 LINE",
"130 662 LINE",
"130 590 LINE",
"420 590 LINE",
"420 395 LINE",
"64 395 LINE",
"64 324 LINE",
"420 324 LINE",
"420 -76 LINE",
"494 -76 LINE",
"494 324 LINE",
"863 324 LINE",
"851 179 OFFCURVE",
"837 116 OFFCURVE",
"818 99 CURVE",
"807 90 OFFCURVE",
"796 89 OFFCURVE",
"776 89 CURVE SMOOTH",
"752 89 OFFCURVE",
"689 89 OFFCURVE",
"626 95 CURVE",
"639 75 OFFCURVE",
"649 46 OFFCURVE",
"650 24 CURVE",
"712 21 OFFCURVE",
"772 20 OFFCURVE",
"802 22 CURVE SMOOTH",
"836 24 OFFCURVE",
"859 31 OFFCURVE",
"880 52 CURVE SMOOTH",
"909 82 OFFCURVE",
"924 161 OFFCURVE",
"939 360 CURVE",
"941 371 OFFCURVE",
"942 395 OFFCURVE",
"942 395 CURVE SMOOTH"
);
}
);
width = 1000;
}
);
note = cid09980;
unicode = 4E66;
},
{
glyphname = u16FE1;
lastChange = "2021-03-01 15:19:27 +0000";
layers = (
{
background = {
paths = (
{
closed = 1;
nodes = (
"544 411 OFFCURVE",
"597 696 OFFCURVE",
"591 1000 CURVE",
"512 997 LINE",
"515 728 OFFCURVE",
"475 470 OFFCURVE",
"377 320 CURVE",
"414 303 LINE",
"227 687 LINE",
"154 653 LINE",
"359 233 LINE",
"415 230 LINE"
);
},
{
closed = 1;
nodes = (
"204 228 OFFCURVE",
"225 254 OFFCURVE",
"225 285 CURVE SMOOTH",
"225 318 OFFCURVE",
"204 342 OFFCURVE",
"171 342 CURVE SMOOTH",
"141 342 OFFCURVE",
"118 318 OFFCURVE",
"118 285 CURVE SMOOTH",
"118 254 OFFCURVE",
"141 228 OFFCURVE",
"171 228 CURVE SMOOTH"
);
},
{
closed = 1;
nodes = (
"598 42 OFFCURVE",
"664 187 OFFCURVE",
"664 333 CURVE SMOOTH",
"664 434 OFFCURVE",
"623 555 OFFCURVE",
"535 641 CURVE",
"510 544 LINE",
"561 475 OFFCURVE",
"586 403 OFFCURVE",
"586 333 CURVE SMOOTH",
"586 205 OFFCURVE",
"519 83 OFFCURVE",
"404 -71 CURVE",
"467 -120 LINE"
);
},
{
closed = 1;
nodes = (
"315 673 OFFCURVE",
"338 648 OFFCURVE",
"368 648 CURVE SMOOTH",
"401 648 OFFCURVE",
"422 673 OFFCURVE",
"422 704 CURVE SMOOTH",
"422 737 OFFCURVE",
"401 762 OFFCURVE",
"368 762 CURVE SMOOTH",
"338 762 OFFCURVE",
"315 737 OFFCURVE",
"315 704 CURVE SMOOTH"
);
}
);
};
guideLines = (
{
position = "{919, 875}";
},
{
angle = -64.0349;
position = "{227, 687}";
}
);
layerId = "6F1FF838-4CD9-4710-9EED-9AFF82DAD6EB";
paths = (
{
closed = 1;
nodes = (
"544 411 OFFCURVE",
"595 696 OFFCURVE",
"591 1000 CURVE",
"512 998 LINE",
"515 725 OFFCURVE",
"474 472 OFFCURVE",
"371 310 CURVE",
"414 303 LINE",
"227 687 LINE",
"154 653 LINE",
"359 233 LINE",
"415 230 LINE"
);
},
{
closed = 1;
nodes = (
"204 228 OFFCURVE",
"225 254 OFFCURVE",
"225 285 CURVE SMOOTH",
"225 318 OFFCURVE",
"204 342 OFFCURVE",
"171 342 CURVE SMOOTH",
"141 342 OFFCURVE",
"118 318 OFFCURVE",
"118 285 CURVE SMOOTH",
"118 254 OFFCURVE",
"141 228 OFFCURVE",
"171 228 CURVE SMOOTH"
);
},
{
closed = 1;
nodes = (
"598 42 OFFCURVE",
"664 187 OFFCURVE",
"664 333 CURVE SMOOTH",
"664 434 OFFCURVE",
"623 555 OFFCURVE",
"535 641 CURVE",
"510 544 LINE",
"561 475 OFFCURVE",
"586 403 OFFCURVE",
"586 333 CURVE SMOOTH",
"586 205 OFFCURVE",
"522 82 OFFCURVE",
"404 -71 CURVE",
"467 -120 LINE"
);
},
{
closed = 1;
nodes = (
"314 683 OFFCURVE",
"337 658 OFFCURVE",
"367 658 CURVE SMOOTH",
"400 658 OFFCURVE",
"421 683 OFFCURVE",
"421 714 CURVE SMOOTH",
"421 747 OFFCURVE",
"400 772 OFFCURVE",
"367 772 CURVE SMOOTH",
"337 772 OFFCURVE",
"314 747 OFFCURVE",
"314 714 CURVE SMOOTH"
);
}
);
width = 800;
},
{
background = {
paths = (
{
closed = 1;
nodes = (
"593 410 OFFCURVE",
"659 693 OFFCURVE",
"650 1000 CURVE",
"534 997 LINE",
"541 739 OFFCURVE",
"494 494 OFFCURVE",
"384 348 CURVE",
"427 344 LINE",
"246 717 LINE",
"141 667 LINE",
"356 235 LINE",
"441 225 LINE"
);
},
{
closed = 1;
nodes = (
"220 203 OFFCURVE",
"250 235 OFFCURVE",
"250 277 CURVE SMOOTH",
"250 320 OFFCURVE",
"220 352 OFFCURVE",
"179 352 CURVE SMOOTH",
"139 352 OFFCURVE",
"108 319 OFFCURVE",
"108 277 CURVE SMOOTH",
"108 236 OFFCURVE",
"139 203 OFFCURVE",
"179 203 CURVE SMOOTH"
);
},
{
closed = 1;
nodes = (
"658 35 OFFCURVE",
"727 184 OFFCURVE",
"727 336 CURVE SMOOTH",
"727 444 OFFCURVE",
"684 555 OFFCURVE",
"591 670 CURVE",
"532 541 LINE",
"589 478 OFFCURVE",
"614 412 OFFCURVE",
"614 345 CURVE SMOOTH",
"614 216 OFFCURVE",
"545 83 OFFCURVE",
"443 -48 CURVE",
"535 -120 LINE"
);
},
{
closed = 1;
nodes = (
"323 669 OFFCURVE",
"354 636 OFFCURVE",
"394 636 CURVE SMOOTH",
"435 636 OFFCURVE",
"465 668 OFFCURVE",
"465 710 CURVE SMOOTH",
"465 753 OFFCURVE",
"435 785 OFFCURVE",
"394 785 CURVE SMOOTH",
"354 785 OFFCURVE",
"323 752 OFFCURVE",
"323 710 CURVE SMOOTH"
);
}
);
};
layerId = "43631C01-6FFC-4BF5-B35A-DC7F74885E25";
paths = (
{
closed = 1;
nodes = (
"593 412 OFFCURVE",
"659 694 OFFCURVE",
"650 1000 CURVE",
"534 997 LINE",
"541 739 OFFCURVE",
"494 494 OFFCURVE",
"384 348 CURVE",
"427 344 LINE",
"246 717 LINE",
"141 667 LINE",
"356 235 LINE",
"442 227 LINE"
);
},
{
closed = 1;
nodes = (
"223 203 OFFCURVE",
"253 235 OFFCURVE",
"253 277 CURVE SMOOTH",
"253 320 OFFCURVE",
"223 352 OFFCURVE",
"182 352 CURVE SMOOTH",
"142 352 OFFCURVE",
"111 319 OFFCURVE",
"111 277 CURVE SMOOTH",
"111 236 OFFCURVE",
"142 203 OFFCURVE",
"182 203 CURVE SMOOTH"
);
},
{
closed = 1;
nodes = (
"658 35 OFFCURVE",
"727 184 OFFCURVE",
"727 336 CURVE SMOOTH",
"727 444 OFFCURVE",
"684 555 OFFCURVE",
"591 670 CURVE",
"532 541 LINE",
"589 478 OFFCURVE",
"614 412 OFFCURVE",
"614 345 CURVE SMOOTH",
"614 216 OFFCURVE",
"545 83 OFFCURVE",
"443 -48 CURVE",
"535 -120 LINE"
);
},
{
closed = 1;
nodes = (
"321 669 OFFCURVE",
"352 636 OFFCURVE",
"392 636 CURVE SMOOTH",
"433 636 OFFCURVE",
"463 668 OFFCURVE",
"463 710 CURVE SMOOTH",
"463 753 OFFCURVE",
"433 785 OFFCURVE",
"392 785 CURVE SMOOTH",
"352 785 OFFCURVE",
"321 752 OFFCURVE",
"321 710 CURVE SMOOTH"
);
}
);
width = 850;
},
{
background = {
paths = (
{
closed = 1;
nodes = (
"515 420 OFFCURVE",
"558 701 OFFCURVE",
"554 1000 CURVE",
"498 999 LINE",
"501 722 OFFCURVE",
"462 457 OFFCURVE",
"373 303 CURVE",
"402 290 LINE",
"218 668 LINE",
"165 644 LINE",
"361 246 LINE",
"405 243 LINE"
);
},
{
closed = 1;
nodes = (
"193 246 OFFCURVE",
"207 267 OFFCURVE",
"207 290 CURVE SMOOTH",
"207 316 OFFCURVE",
"193 334 OFFCURVE",
"166 334 CURVE SMOOTH",
"143 334 OFFCURVE",
"126 316 OFFCURVE",
"126 290 CURVE SMOOTH",
"126 266 OFFCURVE",
"143 246 OFFCURVE",
"166 246 CURVE SMOOTH"
);
},
{
closed = 1;
nodes = (
"561 46 OFFCURVE",
"625 189 OFFCURVE",
"625 331 CURVE SMOOTH",
"625 426 OFFCURVE",
"588 524 OFFCURVE",
"508 616 CURVE",
"497 540 LINE",
"548 472 OFFCURVE",
"570 399 OFFCURVE",
"570 330 CURVE SMOOTH",
"570 201 OFFCURVE",
"505 79 OFFCURVE",
"381 -83 CURVE",
"425 -120 LINE"
);
},
{
closed = 1;
nodes = (
"312 677 OFFCURVE",
"329 658 OFFCURVE",
"352 658 CURVE SMOOTH",
"379 658 OFFCURVE",
"393 677 OFFCURVE",
"393 700 CURVE SMOOTH",
"393 726 OFFCURVE",
"379 746 OFFCURVE",
"352 746 CURVE SMOOTH",
"329 746 OFFCURVE",
"312 727 OFFCURVE",
"312 700 CURVE SMOOTH"
);
}
);
};
layerId = "7B7A33B1-C38B-4BF8-ACF4-708FF5807549";
paths = (
{
closed = 1;
nodes = (
"515 420 OFFCURVE",
"558 701 OFFCURVE",
"554 1000 CURVE",
"498 999 LINE",
"501 722 OFFCURVE",
"462 457 OFFCURVE",
"373 303 CURVE",
"402 290 LINE",
"218 668 LINE",
"165 644 LINE",
"361 246 LINE",
"405 243 LINE"
);
},
{
closed = 1;
nodes = (
"193 246 OFFCURVE",
"207 267 OFFCURVE",
"207 290 CURVE SMOOTH",
"207 316 OFFCURVE",
"193 334 OFFCURVE",
"166 334 CURVE SMOOTH",
"143 334 OFFCURVE",
"126 316 OFFCURVE",
"126 290 CURVE SMOOTH",
"126 266 OFFCURVE",
"143 246 OFFCURVE",
"166 246 CURVE SMOOTH"
);
},
{
closed = 1;
nodes = (
"561 46 OFFCURVE",
"625 189 OFFCURVE",
"625 331 CURVE SMOOTH",
"625 426 OFFCURVE",
"588 524 OFFCURVE",
"508 616 CURVE",
"497 540 LINE",
"548 472 OFFCURVE",
"570 399 OFFCURVE",
"570 330 CURVE SMOOTH",
"570 201 OFFCURVE",
"505 79 OFFCURVE",
"381 -83 CURVE",
"425 -120 LINE"
);
},
{
closed = 1;
nodes = (
"312 677 OFFCURVE",
"329 658 OFFCURVE",
"352 658 CURVE SMOOTH",
"379 658 OFFCURVE",
"393 677 OFFCURVE",
"393 700 CURVE SMOOTH",
"393 726 OFFCURVE",
"379 746 OFFCURVE",
"352 746 CURVE SMOOTH",
"329 746 OFFCURVE",
"312 727 OFFCURVE",
"312 700 CURVE SMOOTH"
);
}
);
width = 769;
}
);
unicode = 16FE1;
},
{
glyphname = u1B170;
lastChange = "2021-03-01 15:19:27 +0000";
layers = (
{
background = {
paths = (
{
closed = 1;
nodes = (
"170 -120 LINE",
"473 179 OFFCURVE",
"593 541 OFFCURVE",
"608 999 CURVE",
"525 1000 LINE",
"509 555 OFFCURVE",
"398 229 OFFCURVE",
"109 -59 CURVE"
);
}
);
};
layerId = "6F1FF838-4CD9-4710-9EED-9AFF82DAD6EB";
paths = (
{
closed = 1;
nodes = (
"170 -120 LINE",
"473 179 OFFCURVE",
"593 541 OFFCURVE",
"608 999 CURVE",
"525 1000 LINE",
"509 555 OFFCURVE",
"398 229 OFFCURVE",
"109 -59 CURVE"
);
}
);
width = 800;
},
{
layerId = "43631C01-6FFC-4BF5-B35A-DC7F74885E25";
paths = (
{
closed = 1;
nodes = (
"204 -120 LINE",
"514 170 OFFCURVE",
"660 520 OFFCURVE",
"671 997 CURVE",
"548 1000 LINE",
"538 558 OFFCURVE",
"405 233 OFFCURVE",
"120 -31 CURVE"
);
}
);
width = 850;
},
{
background = {
paths = (
{
closed = 1;
nodes = (
"149 -120 LINE",
"447 184 OFFCURVE",
"551 553 OFFCURVE",
"569 998 CURVE",
"511 1000 LINE",
"491 554 OFFCURVE",
"395 229 OFFCURVE",
"105 -74 CURVE"
);
}
);
};
layerId = "7B7A33B1-C38B-4BF8-ACF4-708FF5807549";
paths = (
{
closed = 1;
nodes = (
"148 -120 LINE",
"446 184 OFFCURVE",
"550 553 OFFCURVE",
"568 998 CURVE",
"511 1000 LINE",
"491 554 OFFCURVE",
"395 229 OFFCURVE",
"105 -74 CURVE"
);
}
);
width = 769;
}
);
unicode = 1B170;
},
{
glyphname = u1B171;
lastChange = "2021-03-01 15:19:27 +0000";
layers = (
{
background = {
paths = (
{
closed = 1;
nodes = (
"471 413 OFFCURVE",
"619 657 OFFCURVE",
"680 990 CURVE",
"598 1000 LINE",
"540 696 OFFCURVE",
"404 471 OFFCURVE",
"172 303 CURVE",
"221 233 LINE"
);
},
{
closed = 1;
nodes = (
"163 -120 LINE",
"324 -22 OFFCURVE",
"488 127 OFFCURVE",
"610 276 CURVE",
"546 331 LINE",
"426 185 OFFCURVE",
"285 55 OFFCURVE",
"119 -51 CURVE"
);
}
);
};
layerId = "6F1FF838-4CD9-4710-9EED-9AFF82DAD6EB";
paths = (
{
closed = 1;
nodes = (
"471 413 OFFCURVE",
"619 657 OFFCURVE",
"680 990 CURVE",
"598 1000 LINE",
"540 696 OFFCURVE",
"404 471 OFFCURVE",
"172 303 CURVE",
"221 233 LINE"
);
},
{
closed = 1;
nodes = (
"163 -120 LINE",
"324 -22 OFFCURVE",
"488 127 OFFCURVE",
"610 276 CURVE",
"546 331 LINE",
"426 185 OFFCURVE",
"285 55 OFFCURVE",
"119 -51 CURVE"
);
}
);
width = 800;
},
{
associatedMasterId = "6F1FF838-4CD9-4710-9EED-9AFF82DAD6EB";
layerId = "59A36AEE-FB27-4761-99FB-B1C63276CE20";
name = "Mar 3 20, 01:02";
paths = (
{
closed = 0;
nodes = (
"558 1028 LINE",
"544 659 OFFCURVE",
"405 400 OFFCURVE",
"116 204 CURVE SMOOTH"
);
},
{
closed = 0;
nodes = (
"126 -113 LINE",
"300 2 OFFCURVE",
"431 118 OFFCURVE",
"543 257 CURVE SMOOTH"
);
}
);
width = 740;
},
{
background = {
paths = (
{
closed = 1;
nodes = (
"508 398 OFFCURVE",
"689 663 OFFCURVE",
"730 992 CURVE",
"607 1000 LINE",
"572 727 OFFCURVE",
"398 475 OFFCURVE",
"138 322 CURVE",
"203 217 LINE"
);
},
{
closed = 1;
nodes = (
"180 -120 LINE",
"383 -1 OFFCURVE",
"568 143 OFFCURVE",
"720 304 CURVE",
"633 391 LINE",
"503 253 OFFCURVE",
"313 104 OFFCURVE",
"120 -12 CURVE"
);
}
);
};
layerId = "43631C01-6FFC-4BF5-B35A-DC7F74885E25";
paths = (
{
closed = 1;
nodes = (
"507 396 OFFCURVE",
"688 659 OFFCURVE",
"729 985 CURVE",
"607 1000 LINE",
"572 728 OFFCURVE",
"399 477 OFFCURVE",
"141 324 CURVE",
"203 217 LINE"
);
},
{
closed = 1;
nodes = (
"179 -120 LINE",
"382 -3 OFFCURVE",
"568 143 OFFCURVE",
"720 304 CURVE",
"633 391 LINE",
"503 253 OFFCURVE",
"313 102 OFFCURVE",
"120 -12 CURVE"
);
}
);
width = 850;
},
{
associatedMasterId = "43631C01-6FFC-4BF5-B35A-DC7F74885E25";
layerId = "562E7821-6B94-45E9-9292-54C6340AF05B";
name = "Mar 3 20, 01:02";
paths = (
{
closed = 0;
nodes = (
"558 1028 LINE",
"544 659 OFFCURVE",
"405 400 OFFCURVE",
"116 204 CURVE SMOOTH"
);
},
{
closed = 0;
nodes = (
"126 -113 LINE",
"300 2 OFFCURVE",
"431 118 OFFCURVE",
"543 257 CURVE SMOOTH"
);
}
);
width = 740;
},
{
background = {
paths = (
{
closed = 1;
nodes = (
"448 422 OFFCURVE",
"575 653 OFFCURVE",
"649 989 CURVE",
"592 1000 LINE",
"519 678 OFFCURVE",
"407 470 OFFCURVE",
"193 291 CURVE",
"232 243 LINE"
);
},
{
closed = 1;
nodes = (
"152 -120 LINE",
"294 -30 OFFCURVE",
"440 115 OFFCURVE",
"541 259 CURVE",
"492 294 LINE",
"384 143 OFFCURVE",
"270 29 OFFCURVE",
"122 -71 CURVE"
);
}
);
};
layerId = "7B7A33B1-C38B-4BF8-ACF4-708FF5807549";
paths = (
{
closed = 1;
nodes = (
"446 422 OFFCURVE",
"573 653 OFFCURVE",
"647 989 CURVE",
"592 1000 LINE",
"519 678 OFFCURVE",
"407 470 OFFCURVE",
"193 291 CURVE",
"231 243 LINE"
);
},
{
closed = 1;
nodes = (
"152 -120 LINE",
"294 -30 OFFCURVE",
"440 115 OFFCURVE",
"541 259 CURVE",
"492 293 LINE",
"384 142 OFFCURVE",
"270 28 OFFCURVE",
"122 -72 CURVE"
);
}
);
width = 769;
}
);
unicode = 1B171;
},
{
glyphname = u1B172;
lastChange = "2021-03-01 15:19:27 +0000";
layers = (
{
background = {
paths = (
{
closed = 1;
nodes = (
"486 366 OFFCURVE",
"652 616 OFFCURVE",
"680 995 CURVE",
"601 1000 LINE",
"575 637 OFFCURVE",
"411 432 OFFCURVE",
"120 262 CURVE",
"160 190 LINE"
);
},
{
closed = 1;
nodes = (
"447 -2 OFFCURVE",
"488 120 OFFCURVE",
"488 247 CURVE SMOOTH",
"488 404 OFFCURVE",
"437 584 OFFCURVE",
"330 793 CURVE",
"256 754 LINE",
"357 554 OFFCURVE",
"408 390 OFFCURVE",
"408 248 CURVE SMOOTH",
"408 139 OFFCURVE",
"368 34 OFFCURVE",
"285 -68 CURVE",
"351 -120 LINE"
);
}
);
};
layerId = "6F1FF838-4CD9-4710-9EED-9AFF82DAD6EB";
paths = (
{
closed = 1;
nodes = (
"486 366 OFFCURVE",
"652 616 OFFCURVE",
"680 995 CURVE",
"601 1000 LINE",
"575 637 OFFCURVE",
"411 432 OFFCURVE",
"120 262 CURVE",
"160 190 LINE"
);
},
{
closed = 1;
nodes = (
"447 -2 OFFCURVE",
"488 120 OFFCURVE",
"488 247 CURVE SMOOTH",
"488 404 OFFCURVE",
"437 583 OFFCURVE",
"329 792 CURVE",
"256 754 LINE",
"357 554 OFFCURVE",
"408 390 OFFCURVE",
"408 248 CURVE SMOOTH",
"408 139 OFFCURVE",
"368 34 OFFCURVE",
"285 -68 CURVE",
"351 -120 LINE"
);
}
);
width = 800;
},
{
associatedMasterId = "6F1FF838-4CD9-4710-9EED-9AFF82DAD6EB";
layerId = "AEB09D89-817B-4C14-9E36-E8A0051D4DD3";
name = "Mar 3 20, 01:17";
paths = (
{
closed = 0;
nodes = (
"236 870 LINE",
"464 339 OFFCURVE",
"496 124 OFFCURVE",
"201 -150 CURVE SMOOTH"
);
},
{
closed = 0;
nodes = (
"589 1048 LINE",
"580 868 OFFCURVE",
"545 725 OFFCURVE",
"474 602 CURVE SMOOTH",
"393 461 OFFCURVE",
"263 344 OFFCURVE",
"66 223 CURVE SMOOTH"
);
}
);
width = 740;
},
{
layerId = "43631C01-6FFC-4BF5-B35A-DC7F74885E25";
paths = (
{
closed = 1;
nodes = (
"530 375 OFFCURVE",
"703 642 OFFCURVE",
"729 990 CURVE",
"614 1000 LINE",
"591 708 OFFCURVE",
"453 480 OFFCURVE",
"120 277 CURVE",
"178 173 LINE"
);
},
{
closed = 1;
nodes = (
"512 2 OFFCURVE",
"555 131 OFFCURVE",
"555 269 CURVE SMOOTH",
"555 442 OFFCURVE",
"488 628 OFFCURVE",
"373 828 CURVE",
"269 770 LINE",
"375 587 OFFCURVE",
"440 423 OFFCURVE",
"440 271 CURVE SMOOTH",
"440 158 OFFCURVE",
"404 53 OFFCURVE",
"321 -47 CURVE",
"414 -120 LINE"
);
}
);
width = 850;
},
{
associatedMasterId = "43631C01-6FFC-4BF5-B35A-DC7F74885E25";
layerId = "0A09E76F-2A9F-4FE7-83B9-1C4F98EE6482";
name = "Mar 3 20, 01:17";
paths = (
{
closed = 0;
nodes = (
"236 870 LINE",
"464 339 OFFCURVE",
"496 124 OFFCURVE",
"201 -150 CURVE SMOOTH"
);
},
{
closed = 0;
nodes = (
"589 1048 LINE",
"580 868 OFFCURVE",
"545 725 OFFCURVE",
"474 602 CURVE SMOOTH",
"393 461 OFFCURVE",
"263 344 OFFCURVE",
"66 223 CURVE SMOOTH"
);
}
);
width = 740;
},
{
layerId = "7B7A33B1-C38B-4BF8-ACF4-708FF5807549";
paths = (
{
closed = 1;
nodes = (
"457 364 OFFCURVE",
"619 600 OFFCURVE",
"648 996 CURVE",
"593 1000 LINE",
"565 594 OFFCURVE",
"385 403 OFFCURVE",
"120 253 CURVE",
"147 203 LINE"
);
},
{
closed = 1;
nodes = (
"406 -5 OFFCURVE",
"446 118 OFFCURVE",
"446 251 CURVE SMOOTH",
"446 413 OFFCURVE",
"387 590 OFFCURVE",
"296 784 CURVE",
"244 758 LINE",
"331 568 OFFCURVE",
"390 405 OFFCURVE",
"390 255 CURVE SMOOTH",
"390 138 OFFCURVE",
"353 28 OFFCURVE",
"266 -81 CURVE",
"312 -120 LINE"
);
}
);
width = 769;
}
);
unicode = 1B172;
},
{
glyphname = u1B173;
lastChange = "2021-03-01 15:19:27 +0000";
layers = (
{
layerId = "6F1FF838-4CD9-4710-9EED-9AFF82DAD6EB";
paths = (
{
closed = 1;
nodes = (
"404 203 OFFCURVE",
"508 522 OFFCURVE",
"528 998 CURVE",
"446 1000 LINE",
"428 545 OFFCURVE",
"330 238 OFFCURVE",
"103 -74 CURVE",
"164 -120 LINE"
);
},
{
closed = 1;
nodes = (
"465 259 OFFCURVE",
"551 97 OFFCURVE",
"618 -67 CURVE",
"691 -36 LINE",
"612 156 OFFCURVE",
"511 340 OFFCURVE",
"418 460 CURVE",
"385 369 LINE"
);
}
);
width = 800;
},
{
background = {
paths = (
{
closed = 1;
nodes = (
"418 192 OFFCURVE",
"530 523 OFFCURVE",
"547 997 CURVE",
"425 1000 LINE",
"406 500 OFFCURVE",
"278 221 OFFCURVE",
"80 -45 CURVE",
"176 -120 LINE"
);
},
{
closed = 1;
nodes = (
"497 261 OFFCURVE",
"580 97 OFFCURVE",
"639 -57 CURVE",
"753 -12 LINE",
"675 182 OFFCURVE",
"577 374 OFFCURVE",
"459 524 CURVE",
"409 390 LINE"
);
}
);
};
layerId = "43631C01-6FFC-4BF5-B35A-DC7F74885E25";
paths = (
{
closed = 1;
nodes = (
"414 195 OFFCURVE",
"528 523 OFFCURVE",
"547 997 CURVE",
"425 1000 LINE",
"404 500 OFFCURVE",
"274 224 OFFCURVE",
"80 -45 CURVE",
"176 -120 LINE"
);
},
{
closed = 1;
nodes = (
"491 268 OFFCURVE",
"578 100 OFFCURVE",
"640 -58 CURVE",
"753 -12 LINE",
"672 186 OFFCURVE",
"571 381 OFFCURVE",
"449 534 CURVE",
"399 400 LINE"
);
}
);
width = 850;
},
{
layerId = "7B7A33B1-C38B-4BF8-ACF4-708FF5807549";
paths = (
{
closed = 1;
nodes = (
"369 150 OFFCURVE",
"495 428 OFFCURVE",
"517 998 CURVE",
"459 1000 LINE",
"440 470 OFFCURVE",
"327 188 OFFCURVE",
"115 -82 CURVE",
"159 -120 LINE"
);
},
{
closed = 1;
nodes = (
"458 240 OFFCURVE",
"548 60 OFFCURVE",
"603 -72 CURVE",
"653 -51 LINE",
"588 108 OFFCURVE",
"496 284 OFFCURVE",
"403 407 CURVE",
"381 343 LINE"
);
}
);
width = 769;
}
);
unicode = 1B173;
},
{
glyphname = u1B174;
lastChange = "2021-03-01 15:19:27 +0000";
layers = (
{
background = {
paths = (
{
closed = 1;
nodes = (
"286 38 OFFCURVE",
"321 188 OFFCURVE",
"321 340 CURVE SMOOTH",
"321 488 OFFCURVE",
"286 637 OFFCURVE",
"210 794 CURVE",
"138 758 LINE",
"211 612 OFFCURVE",
"243 475 OFFCURVE",
"243 340 CURVE SMOOTH",
"243 202 OFFCURVE",
"211 65 OFFCURVE",
"128 -80 CURVE",
"199 -120 LINE"
);
},
{
closed = 1;
nodes = (
"473 422 OFFCURVE",
"516 257 OFFCURVE",
"606 88 CURVE",
"675 131 LINE",
"589 291 OFFCURVE",
"549 434 OFFCURVE",
"549 574 CURVE SMOOTH",
"549 702 OFFCURVE",
"585 836 OFFCURVE",
"643 971 CURVE",
"570 1000 LINE",
"504 852 OFFCURVE",
"473 711 OFFCURVE",
"473 574 CURVE SMOOTH"
);
}
);
};
layerId = "6F1FF838-4CD9-4710-9EED-9AFF82DAD6EB";
paths = (
{
closed = 1;
nodes = (
"286 38 OFFCURVE",
"321 188 OFFCURVE",
"321 340 CURVE SMOOTH",
"321 488 OFFCURVE",
"286 637 OFFCURVE",
"210 794 CURVE",
"138 758 LINE",
"211 612 OFFCURVE",
"243 475 OFFCURVE",
"243 340 CURVE SMOOTH",
"243 202 OFFCURVE",
"211 65 OFFCURVE",
"128 -80 CURVE",
"199 -120 LINE"
);
},
{
closed = 1;
nodes = (
"473 422 OFFCURVE",
"516 257 OFFCURVE",
"606 88 CURVE",
"675 131 LINE",
"589 291 OFFCURVE",
"549 434 OFFCURVE",
"549 574 CURVE SMOOTH",
"549 702 OFFCURVE",
"585 836 OFFCURVE",
"643 971 CURVE",
"570 1000 LINE",
"504 852 OFFCURVE",
"473 711 OFFCURVE",
"473 574 CURVE SMOOTH"
);
}
);
width = 800;
},
{
associatedMasterId = "6F1FF838-4CD9-4710-9EED-9AFF82DAD6EB";
layerId = "2C86395F-E8F4-49B7-9C08-47907804F0E8";
name = "Mar 3 20, 01:52";
paths = (
{
closed = 0;
nodes = (
"137 831 LINE",
"210 672 OFFCURVE",
"247 522 OFFCURVE",
"247 374 CURVE SMOOTH",
"247 201 OFFCURVE",
"196 30 OFFCURVE",
"93 -150 CURVE SMOOTH"
);
},
{
closed = 0;
nodes = (
"606 1035 LINE",
"533 876 OFFCURVE",
"496 726 OFFCURVE",
"496 578 CURVE SMOOTH",
"496 405 OFFCURVE",
"547 234 OFFCURVE",
"650 54 CURVE SMOOTH"
);
}
);
width = 740;
},
{
layerId = "43631C01-6FFC-4BF5-B35A-DC7F74885E25";
paths = (
{
closed = 1;
nodes = (
"311 41 OFFCURVE",
"359 215 OFFCURVE",
"359 378 CURVE SMOOTH",
"359 516 OFFCURVE",
"325 658 OFFCURVE",
"257 809 CURVE",
"146 760 LINE",
"208 623 OFFCURVE",
"238 500 OFFCURVE",
"238 378 CURVE SMOOTH",
"238 233 OFFCURVE",
"196 81 OFFCURVE",
"110 -61 CURVE",
"217 -120 LINE"
);
},
{
closed = 1;
nodes = (
"496 406 OFFCURVE",
"541 247 OFFCURVE",
"632 79 CURVE",
"740 140 LINE",
"659 288 OFFCURVE",
"616 421 OFFCURVE",
"616 564 CURVE SMOOTH",
"616 692 OFFCURVE",
"643 820 OFFCURVE",
"697 960 CURVE",
"581 1000 LINE",
"518 850 OFFCURVE",
"496 705 OFFCURVE",
"496 564 CURVE SMOOTH"
);
}
);
width = 850;
},
{
associatedMasterId = "43631C01-6FFC-4BF5-B35A-DC7F74885E25";
layerId = "41A63E50-06A2-415C-BBAD-F681974BFFA6";
name = "Mar 3 20, 01:52";
paths = (
{
closed = 0;
nodes = (
"137 831 LINE",
"210 672 OFFCURVE",
"247 522 OFFCURVE",
"247 374 CURVE SMOOTH",
"247 201 OFFCURVE",
"196 30 OFFCURVE",
"93 -150 CURVE SMOOTH"
);
},
{
closed = 0;
nodes = (
"606 1035 LINE",
"533 876 OFFCURVE",
"496 726 OFFCURVE",
"496 578 CURVE SMOOTH",
"496 405 OFFCURVE",
"547 234 OFFCURVE",
"650 54 CURVE SMOOTH"
);
}
);
width = 740;
},
{
background = {
paths = (
{
closed = 1;
nodes = (
"271 36 OFFCURVE",
"298 171 OFFCURVE",
"298 316 CURVE SMOOTH",
"298 470 OFFCURVE",
"263 623 OFFCURVE",
"182 783 CURVE",
"132 757 LINE",
"212 605 OFFCURVE",
"245 459 OFFCURVE",
"245 316 CURVE SMOOTH",
"245 183 OFFCURVE",
"219 55 OFFCURVE",
"139 -92 CURVE",
"189 -120 LINE"
);
},
{
closed = 1;
nodes = (
"457 432 OFFCURVE",
"498 263 OFFCURVE",
"588 94 CURVE",
"635 120 LINE",
"546 290 OFFCURVE",
"508 440 OFFCURVE",
"508 580 CURVE SMOOTH",
"508 708 OFFCURVE",
"550 847 OFFCURVE",
"609 979 CURVE",
"561 1000 LINE",
"493 853 OFFCURVE",
"457 715 OFFCURVE",
"457 580 CURVE SMOOTH"
);
}
);
};
layerId = "7B7A33B1-C38B-4BF8-ACF4-708FF5807549";
paths = (
{
closed = 1;
nodes = (
"273 36 OFFCURVE",
"300 171 OFFCURVE",
"300 316 CURVE SMOOTH",
"300 470 OFFCURVE",
"265 623 OFFCURVE",
"184 783 CURVE",
"132 757 LINE",
"212 605 OFFCURVE",
"245 459 OFFCURVE",
"245 316 CURVE SMOOTH",
"245 183 OFFCURVE",
"219 55 OFFCURVE",
"139 -92 CURVE",
"191 -120 LINE"
);
},
{
closed = 1;
nodes = (
"455 432 OFFCURVE",
"496 263 OFFCURVE",
"586 94 CURVE",
"635 120 LINE",
"546 290 OFFCURVE",
"508 440 OFFCURVE",
"508 580 CURVE SMOOTH",
"508 708 OFFCURVE",
"550 847 OFFCURVE",
"609 979 CURVE",
"559 1000 LINE",
"491 853 OFFCURVE",
"455 715 OFFCURVE",
"455 580 CURVE SMOOTH"
);
}
);
width = 769;
}
);
unicode = 1B174;
},
{
glyphname = u1B175;
lastChange = "2021-03-01 15:19:27 +0000";
layers = (
{
background = {
paths = (
{
closed = 1;
nodes = (
"495 218 OFFCURVE",
"610 514 OFFCURVE",
"656 994 CURVE",
"576 1000 LINE",
"531 535 OFFCURVE",
"420 264 OFFCURVE",
"120 -63 CURVE",
"180 -120 LINE"
);
},
{
closed = 1;
nodes = (
"679 -6 LINE",
"558 253 OFFCURVE",
"400 496 OFFCURVE",
"214 686 CURVE",
"157 629 LINE",
"337 438 OFFCURVE",
"488 208 OFFCURVE",
"607 -44 CURVE"
);
}
);
};
guideLines = (
{
position = "{530, 1000}";
}
);
layerId = "6F1FF838-4CD9-4710-9EED-9AFF82DAD6EB";
paths = (
{
closed = 1;
nodes = (
"495 218 OFFCURVE",
"610 514 OFFCURVE",
"656 994 CURVE",
"576 1000 LINE",
"531 535 OFFCURVE",
"420 264 OFFCURVE",
"120 -63 CURVE",
"180 -120 LINE"
);
},
{
closed = 1;
nodes = (
"679 -6 LINE",
"558 253 OFFCURVE",
"400 495 OFFCURVE",
"214 685 CURVE",
"157 629 LINE",
"337 438 OFFCURVE",
"488 208 OFFCURVE",
"607 -44 CURVE"
);
}
);
width = 800;
},
{
associatedMasterId = "6F1FF838-4CD9-4710-9EED-9AFF82DAD6EB";
guideLines = (
{
position = "{530, 1000}";
}
);
layerId = "7D82ED7F-B5E7-40BE-A0D2-31D2783D0DB2";
name = "Mar 3 20, 02:19";
paths = (
{
closed = 0;
nodes = (
"547 1046 LINE",
"531 771 OFFCURVE",
"498 572 OFFCURVE",
"432 399 CURVE SMOOTH",
"354 196 OFFCURVE",
"229 31 OFFCURVE",
"19 -171 CURVE SMOOTH"
);
},
{
closed = 0;
nodes = (
"113 781 LINE",
"237 654 OFFCURVE",
"349 498 OFFCURVE",
"440 344 CURVE SMOOTH",
"534 186 OFFCURVE",
"606 29 OFFCURVE",
"649 -93 CURVE SMOOTH"
);
}
);
width = 740;
},
{
guideLines = (
{
position = "{530, 1000}";
}
);
layerId = "43631C01-6FFC-4BF5-B35A-DC7F74885E25";
paths = (
{
closed = 1;
nodes = (
"519 203 OFFCURVE",
"648 500 OFFCURVE",
"709 987 CURVE",
"593 1000 LINE",
"532 542 OFFCURVE",
"418 273 OFFCURVE",
"97 -36 CURVE",
"177 -120 LINE"
);
},
{
closed = 1;
nodes = (
"730 2 LINE",
"608 239 OFFCURVE",
"426 514 OFFCURVE",
"242 696 CURVE",
"160 618 LINE",
"333 435 OFFCURVE",
"516 173 OFFCURVE",
"628 -50 CURVE"
);
}
);
width = 850;
},
{
associatedMasterId = "43631C01-6FFC-4BF5-B35A-DC7F74885E25";
guideLines = (
{
position = "{530, 1000}";
}
);
layerId = "FB518F06-15ED-470E-B8AD-632A0D9F97AB";
name = "Mar 3 20, 02:19";
paths = (
{
closed = 0;
nodes = (
"547 1046 LINE",
"531 771 OFFCURVE",
"498 572 OFFCURVE",
"432 399 CURVE SMOOTH",
"354 196 OFFCURVE",
"229 31 OFFCURVE",
"19 -171 CURVE SMOOTH"
);
},
{
closed = 0;
nodes = (
"113 781 LINE",
"237 654 OFFCURVE",
"349 498 OFFCURVE",
"440 344 CURVE SMOOTH",
"534 186 OFFCURVE",
"606 29 OFFCURVE",
"649 -93 CURVE SMOOTH"
);
}
);
width = 740;
},
{
layerId = "7B7A33B1-C38B-4BF8-ACF4-708FF5807549";
paths = (
{
closed = 1;
nodes = (
"477 222 OFFCURVE",
"584 493 OFFCURVE",
"623 996 CURVE",
"566 1000 LINE",
"531 525 OFFCURVE",
"427 263 OFFCURVE",
"139 -79 CURVE",
"182 -120 LINE"
);
},
{
closed = 1;
nodes = (
"644 -14 LINE",
"515 278 OFFCURVE",
"386 475 OFFCURVE",
"194 675 CURVE",
"155 636 LINE",
"336 444 OFFCURVE",
"461 251 OFFCURVE",
"594 -40 CURVE"
);
}
);
width = 769;
}
);
unicode = 1B175;
},
{
glyphname = u1B176;
lastChange = "2021-03-01 15:19:27 +0000";
layers = (
{
background = {
paths = (
{
closed = 1;
nodes = (
"497 14 OFFCURVE",
"600 235 OFFCURVE",
"600 453 CURVE SMOOTH",
"600 665 OFFCURVE",
"506 875 OFFCURVE",
"314 1000 CURVE",
"266 934 LINE",
"432 818 OFFCURVE",
"513 635 OFFCURVE",
"513 449 CURVE SMOOTH",
"513 260 OFFCURVE",
"423 77 OFFCURVE",
"245 -52 CURVE",
"296 -120 LINE"
);
},
{
closed = 1;
nodes = (
"292 370 OFFCURVE",
"316 396 OFFCURVE",
"316 432 CURVE SMOOTH",
"316 469 OFFCURVE",
"292 495 OFFCURVE",
"258 495 CURVE SMOOTH",
"224 495 OFFCURVE",
"200 469 OFFCURVE",
"200 432 CURVE SMOOTH",
"200 396 OFFCURVE",
"224 370 OFFCURVE",
"258 370 CURVE SMOOTH"
);
}
);
};
guideLines = (
{
position = "{740, 1000}";
}
);
layerId = "6F1FF838-4CD9-4710-9EED-9AFF82DAD6EB";
paths = (
{
closed = 1;
nodes = (
"497 14 OFFCURVE",
"600 235 OFFCURVE",
"600 453 CURVE SMOOTH",
"600 665 OFFCURVE",
"506 875 OFFCURVE",
"314 1000 CURVE",
"266 934 LINE",
"432 818 OFFCURVE",
"513 635 OFFCURVE",
"513 449 CURVE SMOOTH",
"513 260 OFFCURVE",
"424 78 OFFCURVE",
"247 -51 CURVE",
"296 -120 LINE"
);
},
{
closed = 1;
nodes = (
"292 370 OFFCURVE",
"316 396 OFFCURVE",
"316 432 CURVE SMOOTH",
"316 469 OFFCURVE",
"292 495 OFFCURVE",
"258 495 CURVE SMOOTH",
"224 495 OFFCURVE",
"200 469 OFFCURVE",
"200 432 CURVE SMOOTH",
"200 396 OFFCURVE",
"224 370 OFFCURVE",
"258 370 CURVE SMOOTH"
);
}
);
width = 800;
},
{
associatedMasterId = "6F1FF838-4CD9-4710-9EED-9AFF82DAD6EB";
guideLines = (
{
position = "{740, 1000}";
}
);
layerId = "38E47DCA-1384-44D2-A7D8-12B504C15FA9";
name = "Mar 3 20, 02:29";
paths = (
{
closed = 1;
nodes = (
"334 -120 LINE",
"486 51 OFFCURVE",
"560 250 OFFCURVE",
"567 500 CURVE SMOOTH",
"570 641 OFFCURVE",
"536 802 OFFCURVE",
"462 1000 CURVE",
"384 970 LINE",
"455 781 OFFCURVE",
"486 633 OFFCURVE",
"483 502 CURVE SMOOTH",
"477 271 OFFCURVE",
"411 94 OFFCURVE",
"273 -62 CURVE"
);
},
{
closed = 1;
nodes = (
"146 368 OFFCURVE",
"172 338 OFFCURVE",
"207 338 CURVE SMOOTH",
"245 338 OFFCURVE",
"268 368 OFFCURVE",
"268 404 CURVE SMOOTH",
"268 441 OFFCURVE",
"245 470 OFFCURVE",
"207 470 CURVE SMOOTH",
"172 470 OFFCURVE",
"146 441 OFFCURVE",
"146 404 CURVE SMOOTH"
);
}
);
width = 740;
},
{
background = {
paths = (
{
closed = 1;
nodes = (
"579 31 OFFCURVE",
"680 242 OFFCURVE",
"680 452 CURVE SMOOTH",
"680 646 OFFCURVE",
"600 847 OFFCURVE",
"436 1000 CURVE",
"353 913 LINE",
"484 778 OFFCURVE",
"551 608 OFFCURVE",
"551 446 CURVE SMOOTH",
"551 278 OFFCURVE",
"467 112 OFFCURVE",
"300 -19 CURVE",
"382 -120 LINE"
);
},
{
closed = 1;
nodes = (
"295 339 OFFCURVE",
"328 374 OFFCURVE",
"328 423 CURVE SMOOTH",
"328 473 OFFCURVE",
"295 508 OFFCURVE",
"249 508 CURVE SMOOTH",
"203 508 OFFCURVE",
"170 475 OFFCURVE",
"170 423 CURVE SMOOTH",
"170 374 OFFCURVE",
"203 339 OFFCURVE",
"249 339 CURVE SMOOTH"
);
}
);
};
guideLines = (
{
position = "{740, 1000}";
}
);
layerId = "43631C01-6FFC-4BF5-B35A-DC7F74885E25";
paths = (
{
closed = 1;
nodes = (
"579 31 OFFCURVE",
"680 242 OFFCURVE",
"680 452 CURVE SMOOTH",
"680 646 OFFCURVE",
"600 847 OFFCURVE",
"436 1000 CURVE",
"353 913 LINE",
"484 778 OFFCURVE",
"551 608 OFFCURVE",
"551 446 CURVE SMOOTH",
"551 279 OFFCURVE",
"468 114 OFFCURVE",
"304 -16 CURVE",
"382 -120 LINE"
);
},
{
closed = 1;
nodes = (
"295 339 OFFCURVE",
"328 374 OFFCURVE",
"328 423 CURVE SMOOTH",
"328 473 OFFCURVE",
"295 508 OFFCURVE",
"249 508 CURVE SMOOTH",
"203 508 OFFCURVE",
"170 475 OFFCURVE",
"170 423 CURVE SMOOTH",
"170 374 OFFCURVE",
"203 339 OFFCURVE",
"249 339 CURVE SMOOTH"
);
}
);
width = 850;
},
{
associatedMasterId = "43631C01-6FFC-4BF5-B35A-DC7F74885E25";
guideLines = (
{
position = "{740, 1000}";
}
);
layerId = "692681AF-8500-413F-A619-050824B4E54E";
name = "Mar 3 20, 02:29";
paths = (
{
closed = 1;
nodes = (
"334 -120 LINE",
"486 51 OFFCURVE",
"560 250 OFFCURVE",
"567 500 CURVE SMOOTH",
"570 641 OFFCURVE",
"536 802 OFFCURVE",
"462 1000 CURVE",
"384 970 LINE",
"455 781 OFFCURVE",
"486 633 OFFCURVE",
"483 502 CURVE SMOOTH",
"477 271 OFFCURVE",
"411 94 OFFCURVE",
"273 -62 CURVE"
);
},
{
closed = 1;
nodes = (
"146 368 OFFCURVE",
"172 338 OFFCURVE",
"207 338 CURVE SMOOTH",
"245 338 OFFCURVE",
"268 368 OFFCURVE",
"268 404 CURVE SMOOTH",
"268 441 OFFCURVE",
"245 470 OFFCURVE",
"207 470 CURVE SMOOTH",
"172 470 OFFCURVE",
"146 441 OFFCURVE",
"146 404 CURVE SMOOTH"
);
}
);
width = 740;
},
{
background = {
paths = (
{
closed = 1;
nodes = (
"446 3 OFFCURVE",
"550 231 OFFCURVE",
"550 454 CURVE SMOOTH",
"550 677 OFFCURVE",
"447 893 OFFCURVE",
"238 1000 CURVE",
"209 948 LINE",
"399 844 OFFCURVE",
"489 652 OFFCURVE",
"489 451 CURVE SMOOTH",
"489 250 OFFCURVE",
"396 57 OFFCURVE",
"212 -71 CURVE",
"242 -120 LINE"
);
},
{
closed = 1;
nodes = (
"290 389 OFFCURVE",
"309 410 OFFCURVE",
"309 438 CURVE SMOOTH",
"309 467 OFFCURVE",
"290 487 OFFCURVE",
"264 487 CURVE SMOOTH",
"237 487 OFFCURVE",
"219 465 OFFCURVE",
"219 438 CURVE SMOOTH",
"219 410 OFFCURVE",
"237 389 OFFCURVE",
"264 389 CURVE SMOOTH"
);
}
);
};
layerId = "7B7A33B1-C38B-4BF8-ACF4-708FF5807549";
paths = (
{
closed = 1;
nodes = (
"446 3 OFFCURVE",
"550 231 OFFCURVE",
"550 454 CURVE SMOOTH",
"550 677 OFFCURVE",
"447 893 OFFCURVE",
"238 1000 CURVE",
"208 948 LINE",
"398 844 OFFCURVE",
"488 652 OFFCURVE",
"488 451 CURVE SMOOTH",
"488 250 OFFCURVE",
"395 57 OFFCURVE",
"211 -71 CURVE",
"242 -120 LINE"
);
},
{
closed = 1;
nodes = (
"290 389 OFFCURVE",
"309 410 OFFCURVE",
"309 438 CURVE SMOOTH",
"309 467 OFFCURVE",
"290 487 OFFCURVE",
"264 487 CURVE SMOOTH",
"237 487 OFFCURVE",
"219 465 OFFCURVE",
"219 438 CURVE SMOOTH",
"219 410 OFFCURVE",
"237 389 OFFCURVE",
"264 389 CURVE SMOOTH"
);
}
);
width = 769;
}
);
unicode = 1B176;
},
{
glyphname = u1B177;
lastChange = "2021-03-01 15:19:27 +0000";
layers = (
{
background = {
paths = (
{
closed = 1;
nodes = (
"578 371 OFFCURVE",
"600 399 OFFCURVE",
"600 433 CURVE SMOOTH",
"600 469 OFFCURVE",
"578 496 OFFCURVE",
"542 496 CURVE SMOOTH",
"509 496 OFFCURVE",
"484 469 OFFCURVE",
"484 433 CURVE SMOOTH",
"484 399 OFFCURVE",
"509 371 OFFCURVE",
"542 371 CURVE SMOOTH"
);
},
{
closed = 1;
nodes = (
"545 -45 LINE",
"373 75 OFFCURVE",
"285 258 OFFCURVE",
"285 441 CURVE SMOOTH",
"285 629 OFFCURVE",
"385 812 OFFCURVE",
"552 929 CURVE",
"505 1000 LINE",
"314 871 OFFCURVE",
"200 660 OFFCURVE",
"200 443 CURVE SMOOTH",
"200 230 OFFCURVE",
"299 16 OFFCURVE",
"493 -120 CURVE"
);
}
);
};
layerId = "6F1FF838-4CD9-4710-9EED-9AFF82DAD6EB";
paths = (
{
closed = 1;
nodes = (
"578 371 OFFCURVE",
"600 399 OFFCURVE",
"600 433 CURVE SMOOTH",
"600 469 OFFCURVE",
"578 496 OFFCURVE",
"542 496 CURVE SMOOTH",
"509 496 OFFCURVE",
"484 469 OFFCURVE",
"484 433 CURVE SMOOTH",
"484 399 OFFCURVE",
"509 371 OFFCURVE",
"542 371 CURVE SMOOTH"
);
},
{
closed = 1;
nodes = (
"545 -45 LINE",
"373 75 OFFCURVE",
"285 258 OFFCURVE",
"285 441 CURVE SMOOTH",
"285 629 OFFCURVE",
"385 812 OFFCURVE",
"552 929 CURVE",
"505 1000 LINE",
"314 871 OFFCURVE",
"200 660 OFFCURVE",
"200 443 CURVE SMOOTH",
"200 230 OFFCURVE",
"299 16 OFFCURVE",
"493 -120 CURVE"
);
}
);
width = 800;
},
{
associatedMasterId = "6F1FF838-4CD9-4710-9EED-9AFF82DAD6EB";
background = {
paths = (
{
closed = 1;
nodes = (
"596 349 OFFCURVE",
"620 373 OFFCURVE",
"620 405 CURVE SMOOTH",
"620 436 OFFCURVE",
"597 460 OFFCURVE",
"565 460 CURVE SMOOTH",
"533 460 OFFCURVE",
"509 436 OFFCURVE",
"509 405 CURVE SMOOTH",
"509 373 OFFCURVE",
"533 349 OFFCURVE",
"565 349 CURVE SMOOTH"
);
},
{
closed = 1;
nodes = (
"426 -75 LINE",
"307 71 OFFCURVE",
"247 244 OFFCURVE",
"247 425 CURVE SMOOTH",
"247 600 OFFCURVE",
"298 783 OFFCURVE",
"388 960 CURVE",
"320 1000 LINE",
"229 816 OFFCURVE",
"178 624 OFFCURVE",
"178 437 CURVE SMOOTH",
"178 240 OFFCURVE",
"239 49 OFFCURVE",
"360 -120 CURVE"
);
}
);
};
layerId = "7E7CFB66-2858-4645-9628-BD38C673D12D";
name = "Mar 3 20, 02:34";
paths = (
{
closed = 1;
nodes = (
"596 349 OFFCURVE",
"620 373 OFFCURVE",
"620 405 CURVE SMOOTH",
"620 436 OFFCURVE",
"597 460 OFFCURVE",
"565 460 CURVE SMOOTH",
"533 460 OFFCURVE",
"509 436 OFFCURVE",
"509 405 CURVE SMOOTH",
"509 373 OFFCURVE",
"533 349 OFFCURVE",
"565 349 CURVE SMOOTH"
);
},
{
closed = 1;
nodes = (
"426 -75 LINE",
"307 71 OFFCURVE",
"247 244 OFFCURVE",
"247 425 CURVE SMOOTH",
"247 600 OFFCURVE",
"298 783 OFFCURVE",
"388 960 CURVE",
"320 1000 LINE",
"229 816 OFFCURVE",
"178 624 OFFCURVE",
"178 437 CURVE SMOOTH",
"178 240 OFFCURVE",
"239 49 OFFCURVE",
"360 -120 CURVE"
);
}
);
width = 740;
},
{
background = {
paths = (
{
closed = 1;
nodes = (
"647 349 OFFCURVE",
"680 384 OFFCURVE",
"680 433 CURVE SMOOTH",
"680 483 OFFCURVE",
"647 518 OFFCURVE",
"601 518 CURVE SMOOTH",
"555 518 OFFCURVE",
"522 483 OFFCURVE",
"522 433 CURVE SMOOTH",
"522 384 OFFCURVE",
"555 349 OFFCURVE",
"601 349 CURVE SMOOTH"
);
},
{
closed = 1;
nodes = (
"534 -18 LINE",
"380 114 OFFCURVE",
"299 275 OFFCURVE",
"299 439 CURVE SMOOTH",
"299 600 OFFCURVE",
"375 763 OFFCURVE",
"516 901 CURVE",
"434 1001 LINE",
"259 844 OFFCURVE",
"170 643 OFFCURVE",
"170 443 CURVE SMOOTH",
"170 239 OFFCURVE",
"262 36 OFFCURVE",
"448 -120 CURVE"
);
}
);
};
layerId = "43631C01-6FFC-4BF5-B35A-DC7F74885E25";
paths = (
{
closed = 1;
nodes = (
"647 349 OFFCURVE",
"680 384 OFFCURVE",
"680 433 CURVE SMOOTH",
"680 483 OFFCURVE",
"647 518 OFFCURVE",
"601 518 CURVE SMOOTH",
"555 518 OFFCURVE",
"522 483 OFFCURVE",
"522 433 CURVE SMOOTH",
"522 384 OFFCURVE",
"555 349 OFFCURVE",
"601 349 CURVE SMOOTH"
);
},
{
closed = 1;
nodes = (
"534 -18 LINE",
"380 114 OFFCURVE",
"299 275 OFFCURVE",
"299 439 CURVE SMOOTH",
"299 602 OFFCURVE",
"376 767 OFFCURVE",
"520 906 CURVE",
"434 1001 LINE",
"259 844 OFFCURVE",
"170 643 OFFCURVE",
"170 443 CURVE SMOOTH",
"170 239 OFFCURVE",
"262 36 OFFCURVE",
"448 -120 CURVE"
);
}
);
width = 850;
},
{
associatedMasterId = "43631C01-6FFC-4BF5-B35A-DC7F74885E25";
background = {
paths = (
{
closed = 1;
nodes = (
"596 349 OFFCURVE",
"620 373 OFFCURVE",
"620 405 CURVE SMOOTH",
"620 436 OFFCURVE",
"597 460 OFFCURVE",
"565 460 CURVE SMOOTH",
"533 460 OFFCURVE",
"509 436 OFFCURVE",
"509 405 CURVE SMOOTH",
"509 373 OFFCURVE",
"533 349 OFFCURVE",
"565 349 CURVE SMOOTH"
);
},
{
closed = 1;
nodes = (
"426 -75 LINE",
"307 71 OFFCURVE",
"247 244 OFFCURVE",
"247 425 CURVE SMOOTH",
"247 600 OFFCURVE",
"298 783 OFFCURVE",
"388 960 CURVE",
"320 1000 LINE",
"229 816 OFFCURVE",
"178 624 OFFCURVE",
"178 437 CURVE SMOOTH",
"178 240 OFFCURVE",
"239 49 OFFCURVE",
"360 -120 CURVE"
);
}
);
};
layerId = "8A964B2E-F49B-43B4-951C-46ADC376265C";
name = "Mar 3 20, 02:34";
paths = (
{
closed = 1;
nodes = (
"596 349 OFFCURVE",
"620 373 OFFCURVE",
"620 405 CURVE SMOOTH",
"620 436 OFFCURVE",
"597 460 OFFCURVE",
"565 460 CURVE SMOOTH",
"533 460 OFFCURVE",
"509 436 OFFCURVE",
"509 405 CURVE SMOOTH",
"509 373 OFFCURVE",
"533 349 OFFCURVE",
"565 349 CURVE SMOOTH"
);
},
{
closed = 1;
nodes = (
"426 -75 LINE",
"307 71 OFFCURVE",
"247 244 OFFCURVE",
"247 425 CURVE SMOOTH",
"247 600 OFFCURVE",
"298 783 OFFCURVE",
"388 960 CURVE",
"320 1000 LINE",
"229 816 OFFCURVE",
"178 624 OFFCURVE",
"178 437 CURVE SMOOTH",
"178 240 OFFCURVE",
"239 49 OFFCURVE",
"360 -120 CURVE"
);
}
);
width = 740;
},
{
background = {
paths = (
{
closed = 1;
nodes = (
"535 385 OFFCURVE",
"550 408 OFFCURVE",
"550 433 CURVE SMOOTH",
"550 460 OFFCURVE",
"535 482 OFFCURVE",
"505 482 CURVE SMOOTH",
"480 482 OFFCURVE",
"460 460 OFFCURVE",
"460 433 CURVE SMOOTH",
"460 408 OFFCURVE",
"480 385 OFFCURVE",
"505 385 CURVE SMOOTH"
);
},
{
closed = 1;
nodes = (
"553 -67 LINE",
"369 46 OFFCURVE",
"276 245 OFFCURVE",
"276 442 CURVE SMOOTH",
"276 648 OFFCURVE",
"392 845 OFFCURVE",
"578 950 CURVE",
"549 1000 LINE",
"348 889 OFFCURVE",
"219 671 OFFCURVE",
"219 443 CURVE SMOOTH",
"219 224 OFFCURVE",
"322 4 OFFCURVE",
"521 -120 CURVE"
);
}
);
};
layerId = "7B7A33B1-C38B-4BF8-ACF4-708FF5807549";
paths = (
{
closed = 1;
nodes = (
"535 385 OFFCURVE",
"550 408 OFFCURVE",
"550 433 CURVE SMOOTH",
"550 460 OFFCURVE",
"535 482 OFFCURVE",
"505 482 CURVE SMOOTH",
"480 482 OFFCURVE",
"460 460 OFFCURVE",
"460 433 CURVE SMOOTH",
"460 408 OFFCURVE",
"480 385 OFFCURVE",
"505 385 CURVE SMOOTH"
);
},
{
closed = 1;
nodes = (
"553 -67 LINE",
"369 46 OFFCURVE",
"276 245 OFFCURVE",
"276 442 CURVE SMOOTH",
"276 648 OFFCURVE",
"392 845 OFFCURVE",
"578 950 CURVE",
"548 1000 LINE",
"347 889 OFFCURVE",
"218 671 OFFCURVE",
"218 443 CURVE SMOOTH",
"218 224 OFFCURVE",
"321 4 OFFCURVE",
"520 -120 CURVE"
);
}
);
width = 769;
}
);
unicode = 1B177;
},
{
glyphname = u1B178;
lastChange = "2021-03-01 15:19:27 +0000";
layers = (
{
background = {
paths = (
{
closed = 1;
nodes = (
"409 57 OFFCURVE",
"484 300 OFFCURVE",
"484 640 CURVE SMOOTH",
"484 746 OFFCURVE",
"477 864 OFFCURVE",
"463 1000 CURVE",
"382 990 LINE",
"395 857 OFFCURVE",
"402 742 OFFCURVE",
"402 640 CURVE SMOOTH",
"402 319 OFFCURVE",
"334 94 OFFCURVE",
"187 -68 CURVE",
"250 -120 LINE"
);
},
{
closed = 1;
nodes = (
"242 156 OFFCURVE",
"281 280 OFFCURVE",
"281 416 CURVE SMOOTH",
"281 487 OFFCURVE",
"270 561 OFFCURVE",
"249 637 CURVE",
"172 616 LINE",
"190 547 OFFCURVE",
"201 479 OFFCURVE",
"201 415 CURVE SMOOTH",
"201 299 OFFCURVE",
"166 193 OFFCURVE",
"82 104 CURVE",
"143 51 LINE"
);
},
{
closed = 1;
nodes = (
"658 -49 LINE",
"628 29 OFFCURVE",
"613 105 OFFCURVE",
"613 179 CURVE SMOOTH",
"613 284 OFFCURVE",
"642 387 OFFCURVE",
"702 495 CURVE",
"632 533 LINE",
"567 417 OFFCURVE",
"534 300 OFFCURVE",
"534 180 CURVE SMOOTH",
"534 95 OFFCURVE",
"550 10 OFFCURVE",
"585 -77 CURVE"
);
}
);
};
layerId = "6F1FF838-4CD9-4710-9EED-9AFF82DAD6EB";
paths = (
{
closed = 1;
nodes = (
"409 57 OFFCURVE",
"484 300 OFFCURVE",
"484 640 CURVE SMOOTH",
"484 746 OFFCURVE",
"477 864 OFFCURVE",
"463 1000 CURVE",
"382 990 LINE",
"395 857 OFFCURVE",
"402 742 OFFCURVE",
"402 640 CURVE SMOOTH",
"402 319 OFFCURVE",
"334 94 OFFCURVE",
"187 -68 CURVE",
"250 -120 LINE"
);
},
{
closed = 1;
nodes = (
"242 156 OFFCURVE",
"281 280 OFFCURVE",
"281 416 CURVE SMOOTH",
"281 487 OFFCURVE",
"270 561 OFFCURVE",
"249 637 CURVE",
"173 611 LINE",
"190 544 OFFCURVE",
"201 477 OFFCURVE",
"201 415 CURVE SMOOTH",
"201 299 OFFCURVE",
"167 192 OFFCURVE",
"85 103 CURVE",
"143 51 LINE"
);
},
{
closed = 1;
nodes = (
"659 -45 LINE",
"628 32 OFFCURVE",
"613 106 OFFCURVE",
"613 179 CURVE SMOOTH",
"613 284 OFFCURVE",
"642 387 OFFCURVE",
"702 495 CURVE",
"632 533 LINE",
"567 417 OFFCURVE",
"534 300 OFFCURVE",
"534 180 CURVE SMOOTH",
"534 95 OFFCURVE",
"550 10 OFFCURVE",
"585 -77 CURVE"
);
}
);
width = 800;
},
{
associatedMasterId = "6F1FF838-4CD9-4710-9EED-9AFF82DAD6EB";
background = {
paths = (
{
closed = 1;
nodes = (
"695 -45 LINE",
"636 52 OFFCURVE",
"609 144 OFFCURVE",
"609 253 CURVE SMOOTH",
"609 333 OFFCURVE",
"627 410 OFFCURVE",
"666 497 CURVE",
"592 528 LINE",
"551 432 OFFCURVE",
"531 342 OFFCURVE",
"531 253 CURVE SMOOTH",
"531 130 OFFCURVE",
"562 20 OFFCURVE",
"629 -90 CURVE"
);
},
{
closed = 1;
nodes = (
"219 -120 LINE",
"387 49 OFFCURVE",
"460 262 OFFCURVE",
"460 638 CURVE SMOOTH",
"460 745 OFFCURVE",
"454 865 OFFCURVE",
"443 1000 CURVE",
"363 992 LINE",
"375 855 OFFCURVE",
"381 736 OFFCURVE",
"381 630 CURVE SMOOTH",
"381 282 OFFCURVE",
"314 86 OFFCURVE",
"160 -67 CURVE"
);
},
{
closed = 1;
nodes = (
"108 50 LINE",
"192 158 OFFCURVE",
"239 298 OFFCURVE",
"239 450 CURVE SMOOTH",
"239 502 OFFCURVE",
"233 556 OFFCURVE",
"223 609 CURVE",
"145 591 LINE",
"154 543 OFFCURVE",
"159 496 OFFCURVE",
"159 450 CURVE SMOOTH",
"159 314 OFFCURVE",
"119 192 OFFCURVE",
"45 99 CURVE"
);
}
);
};
layerId = "D6854FE6-BA2A-4E30-9B40-CC8F5B68D52E";
name = "Mar 3 20, 02:41";
paths = (
{
closed = 0;
nodes = (
"396 1068 LINE",
"414 916 OFFCURVE",
"425 773 OFFCURVE",
"425 640 CURVE SMOOTH",
"425 316 OFFCURVE",
"359 52 OFFCURVE",
"161 -136 CURVE SMOOTH"
);
},
{
closed = 0;
nodes = (
"641 557 LINE",
"591 448 OFFCURVE",
"567 347 OFFCURVE",
"567 249 CURVE SMOOTH",
"567 132 OFFCURVE",
"601 19 OFFCURVE",
"669 -96 CURVE SMOOTH"
);
},
{
closed = 0;
nodes = (
"157 666 LINE",
"185 576 OFFCURVE",
"199 493 OFFCURVE",
"199 417 CURVE SMOOTH",
"199 267 OFFCURVE",
"145 143 OFFCURVE",
"39 47 CURVE SMOOTH"
);
},
{
closed = 1;
nodes = (
"387.057 41.357 OFFCURVE",
"465.5 289.209 OFFCURVE",
"465.5 640 CURVE SMOOTH",
"465.5 754.944 OFFCURVE",
"457.472 882.93 OFFCURVE",
"440.892 1032.074 CURVE",
"360.438 1022.671 LINE",
"376.731 876.002 OFFCURVE",
"384.5 751.27 OFFCURVE",
"384.5 640 CURVE SMOOTH",
"384.5 309.891 OFFCURVE",
"314.342 83.681 OFFCURVE",
"161.101 -78.576 CURVE",
"217.708 -136.588 LINE"
);
},
{
closed = 1;
nodes = (
"191 145 OFFCURVE",
"239.5 271.044 OFFCURVE",
"239.5 417 CURVE SMOOTH",
"239.5 485.512 OFFCURVE",
"228.643 559.813 OFFCURVE",
"207.189 638.577 CURVE",
"129.63 615.178 LINE",
"148.963 543.84 OFFCURVE",
"158.5 478.206 OFFCURVE",
"158.5 417 CURVE SMOOTH",
"158.5 292.351 OFFCURVE",
"119.343 189.022 OFFCURVE",
"40.191 104.838 CURVE",
"96 46 LINE"
);
},
{
closed = 1;
nodes = (
"684.117 -40.232 LINE",
"632.101 57.629 OFFCURVE",
"607.5 150.953 OFFCURVE",
"607.5 249 CURVE SMOOTH",
"607.5 331.128 OFFCURVE",
"625.023 413.639 OFFCURVE",
"661.709 503.075 CURVE",
"587.773 536.153 LINE",
"546.939 436.839 OFFCURVE",
"526.5 341.134 OFFCURVE",
"526.5 249 CURVE SMOOTH",
"526.5 138.802 OFFCURVE",
"555.748 28.653 OFFCURVE",
"613.973 -80.72 CURVE"
);
}
);
width = 740;
},
{
background = {
paths = (
{
closed = 1;
nodes = (
"461 60 OFFCURVE",
"534 304 OFFCURVE",
"534 640 CURVE SMOOTH",
"534 746 OFFCURVE",
"527 864 OFFCURVE",
"513 1000 CURVE",
"393 986 LINE",
"407 848 OFFCURVE",
"413 736 OFFCURVE",
"413 640 CURVE SMOOTH",
"413 329 OFFCURVE",
"349 112 OFFCURVE",
"212 -47 CURVE",
"306 -120 LINE"
);
},
{
closed = 1;
nodes = (
"258 153 OFFCURVE",
"298 278 OFFCURVE",
"298 414 CURVE SMOOTH",
"298 486 OFFCURVE",
"287 561 OFFCURVE",
"267 639 CURVE",
"152 609 LINE",
"170 542 OFFCURVE",
"180 477 OFFCURVE",
"180 415 CURVE SMOOTH",
"180 306 OFFCURVE",
"148 205 OFFCURVE",
"70 121 CURVE",
"162 47 LINE"
);
},
{
closed = 1;
nodes = (
"733 -41 LINE",
"708 31 OFFCURVE",
"693 101 OFFCURVE",
"693 170 CURVE SMOOTH",
"693 277 OFFCURVE",
"724 380 OFFCURVE",
"785 485 CURVE",
"681 541 LINE",
"610 421 OFFCURVE",
"574 298 OFFCURVE",
"574 173 CURVE SMOOTH",
"574 91 OFFCURVE",
"589 9 OFFCURVE",
"619 -75 CURVE"
);
}
);
};
layerId = "43631C01-6FFC-4BF5-B35A-DC7F74885E25";
paths = (
{
closed = 1;
nodes = (
"461 60 OFFCURVE",
"534 304 OFFCURVE",
"534 640 CURVE SMOOTH",
"534 746 OFFCURVE",
"527 864 OFFCURVE",
"513 1000 CURVE",
"393 986 LINE",
"407 848 OFFCURVE",
"413 736 OFFCURVE",
"413 640 CURVE SMOOTH",
"413 330 OFFCURVE",
"350 114 OFFCURVE",
"214 -45 CURVE",
"306 -120 LINE"
);
},
{
closed = 1;
nodes = (
"258 153 OFFCURVE",
"298 278 OFFCURVE",
"298 414 CURVE SMOOTH",
"298 486 OFFCURVE",
"287 561 OFFCURVE",
"267 639 CURVE",
"153 610 LINE",
"170 543 OFFCURVE",
"180 477 OFFCURVE",
"180 415 CURVE SMOOTH",
"180 306 OFFCURVE",
"150 205 OFFCURVE",
"76 121 CURVE",
"162 47 LINE"
);
},
{
closed = 1;
nodes = (
"733 -41 LINE",
"707 34 OFFCURVE",
"693 105 OFFCURVE",
"693 175 CURVE SMOOTH",
"693 278 OFFCURVE",
"723 378 OFFCURVE",
"785 485 CURVE",
"681 541 LINE",
"610 422 OFFCURVE",
"574 299 OFFCURVE",
"574 174 CURVE SMOOTH",
"574 89 OFFCURVE",
"590 3 OFFCURVE",
"624 -84 CURVE"
);
}
);
width = 850;
},
{
associatedMasterId = "43631C01-6FFC-4BF5-B35A-DC7F74885E25";
background = {
paths = (
{
closed = 1;
nodes = (
"695 -45 LINE",
"636 52 OFFCURVE",
"609 144 OFFCURVE",
"609 253 CURVE SMOOTH",
"609 333 OFFCURVE",
"627 410 OFFCURVE",
"666 497 CURVE",
"592 528 LINE",
"551 432 OFFCURVE",
"531 342 OFFCURVE",
"531 253 CURVE SMOOTH",
"531 130 OFFCURVE",
"562 20 OFFCURVE",
"629 -90 CURVE"
);
},
{
closed = 1;
nodes = (
"219 -120 LINE",
"387 49 OFFCURVE",
"460 262 OFFCURVE",
"460 638 CURVE SMOOTH",
"460 745 OFFCURVE",
"454 865 OFFCURVE",
"443 1000 CURVE",
"363 992 LINE",
"375 855 OFFCURVE",
"381 736 OFFCURVE",
"381 630 CURVE SMOOTH",
"381 282 OFFCURVE",
"314 86 OFFCURVE",
"160 -67 CURVE"
);
},
{
closed = 1;
nodes = (
"108 50 LINE",
"192 158 OFFCURVE",
"239 298 OFFCURVE",
"239 450 CURVE SMOOTH",
"239 502 OFFCURVE",
"233 556 OFFCURVE",
"223 609 CURVE",
"145 591 LINE",
"154 543 OFFCURVE",
"159 496 OFFCURVE",
"159 450 CURVE SMOOTH",
"159 314 OFFCURVE",
"119 192 OFFCURVE",
"45 99 CURVE"
);
}
);
};
layerId = "2EE324BA-5976-474D-B766-7D630D3CC5D7";
name = "Mar 3 20, 02:41";
paths = (
{
closed = 0;
nodes = (
"396 1068 LINE",
"414 916 OFFCURVE",
"425 773 OFFCURVE",
"425 640 CURVE SMOOTH",
"425 316 OFFCURVE",
"359 52 OFFCURVE",
"161 -136 CURVE SMOOTH"
);
},
{
closed = 0;
nodes = (
"641 557 LINE",
"591 448 OFFCURVE",
"567 347 OFFCURVE",
"567 249 CURVE SMOOTH",
"567 132 OFFCURVE",
"601 19 OFFCURVE",
"669 -96 CURVE SMOOTH"
);
},
{
closed = 0;
nodes = (
"157 666 LINE",
"185 576 OFFCURVE",
"199 493 OFFCURVE",
"199 417 CURVE SMOOTH",
"199 267 OFFCURVE",
"145 143 OFFCURVE",
"39 47 CURVE SMOOTH"
);
},
{
closed = 1;
nodes = (
"387.057 41.357 OFFCURVE",
"465.5 289.209 OFFCURVE",
"465.5 640 CURVE SMOOTH",
"465.5 754.944 OFFCURVE",
"457.472 882.93 OFFCURVE",
"440.892 1032.074 CURVE",
"360.438 1022.671 LINE",
"376.731 876.002 OFFCURVE",
"384.5 751.27 OFFCURVE",
"384.5 640 CURVE SMOOTH",
"384.5 309.891 OFFCURVE",
"314.342 83.681 OFFCURVE",
"161.101 -78.576 CURVE",
"217.708 -136.588 LINE"
);
},
{
closed = 1;
nodes = (
"191 145 OFFCURVE",
"239.5 271.044 OFFCURVE",
"239.5 417 CURVE SMOOTH",
"239.5 485.512 OFFCURVE",
"228.643 559.813 OFFCURVE",
"207.189 638.577 CURVE",
"129.63 615.178 LINE",
"148.963 543.84 OFFCURVE",
"158.5 478.206 OFFCURVE",
"158.5 417 CURVE SMOOTH",
"158.5 292.351 OFFCURVE",
"119.343 189.022 OFFCURVE",
"40.191 104.838 CURVE",
"96 46 LINE"
);
},
{
closed = 1;
nodes = (
"684.117 -40.232 LINE",
"632.101 57.629 OFFCURVE",
"607.5 150.953 OFFCURVE",
"607.5 249 CURVE SMOOTH",
"607.5 331.128 OFFCURVE",
"625.023 413.639 OFFCURVE",
"661.709 503.075 CURVE",
"587.773 536.153 LINE",
"546.939 436.839 OFFCURVE",
"526.5 341.134 OFFCURVE",
"526.5 249 CURVE SMOOTH",
"526.5 138.802 OFFCURVE",
"555.748 28.653 OFFCURVE",
"613.973 -80.72 CURVE"
);
}
);
width = 740;
},
{
background = {
paths = (
{
closed = 1;
nodes = (
"377 55 OFFCURVE",
"453 298 OFFCURVE",
"453 640 CURVE SMOOTH",
"453 746 OFFCURVE",
"446 864 OFFCURVE",
"432 1000 CURVE",
"375 993 LINE",
"388 863 OFFCURVE",
"395 746 OFFCURVE",
"395 640 CURVE SMOOTH",
"395 314 OFFCURVE",
"326 85 OFFCURVE",
"174 -79 CURVE",
"215 -120 LINE"
);
},
{
closed = 1;
nodes = (
"232 157 OFFCURVE",
"270 281 OFFCURVE",
"270 417 CURVE SMOOTH",
"270 488 OFFCURVE",
"259 561 OFFCURVE",
"238 636 CURVE",
"185 620 LINE",
"204 550 OFFCURVE",
"215 480 OFFCURVE",
"215 415 CURVE SMOOTH",
"215 295 OFFCURVE",
"178 186 OFFCURVE",
"90 93 CURVE",
"130 53 LINE"
);
},
{
closed = 1;
nodes = (
"612 -56 LINE",
"578 26 OFFCURVE",
"561 106 OFFCURVE",
"561 184 CURVE SMOOTH",
"561 289 OFFCURVE",
"589 391 OFFCURVE",
"649 500 CURVE",
"601 528 LINE",
"540 415 OFFCURVE",
"509 301 OFFCURVE",
"509 185 CURVE SMOOTH",
"509 98 OFFCURVE",
"526 11 OFFCURVE",
"564 -78 CURVE"
);
}
);
};
layerId = "7B7A33B1-C38B-4BF8-ACF4-708FF5807549";
paths = (
{
closed = 1;
nodes = (
"377 55 OFFCURVE",
"453 298 OFFCURVE",
"453 640 CURVE SMOOTH",
"453 746 OFFCURVE",
"446 864 OFFCURVE",
"432 1000 CURVE",
"375 993 LINE",
"388 863 OFFCURVE",
"395 746 OFFCURVE",
"395 640 CURVE SMOOTH",
"395 314 OFFCURVE",
"326 85 OFFCURVE",
"174 -79 CURVE",
"215 -120 LINE"
);
},
{
closed = 1;
nodes = (
"232 157 OFFCURVE",
"270 281 OFFCURVE",
"270 417 CURVE SMOOTH",
"270 488 OFFCURVE",
"259 561 OFFCURVE",
"238 636 CURVE",
"185 620 LINE",
"204 550 OFFCURVE",
"215 480 OFFCURVE",
"215 415 CURVE SMOOTH",
"215 295 OFFCURVE",
"178 186 OFFCURVE",
"90 93 CURVE",
"130 53 LINE"
);
},
{
closed = 1;
nodes = (
"612 -56 LINE",
"578 26 OFFCURVE",
"561 106 OFFCURVE",
"561 184 CURVE SMOOTH",
"561 289 OFFCURVE",
"589 391 OFFCURVE",
"649 500 CURVE",
"601 528 LINE",
"540 415 OFFCURVE",
"509 301 OFFCURVE",
"509 185 CURVE SMOOTH",
"509 98 OFFCURVE",
"526 11 OFFCURVE",
"564 -78 CURVE"
);
}
);
width = 769;
}
);
unicode = 1B178;
},
{
glyphname = u1B179;
lastChange = "2021-03-01 15:19:27 +0000";
layers = (
{
background = {
paths = (
{
closed = 1;
nodes = (
"474 515 OFFCURVE",
"643 723 OFFCURVE",
"693 987 CURVE",
"613 1000 LINE",
"565 767 OFFCURVE",
"416 594 OFFCURVE",
"156 484 CURVE",
"189 410 LINE"
);
},
{
closed = 1;
nodes = (
"464 17 OFFCURVE",
"462 207 OFFCURVE",
"437 347 CURVE",
"361 291 LINE",
"380 169 OFFCURVE",
"381 16 OFFCURVE",
"356 -108 CURVE",
"439 -120 LINE"
);
},
{
closed = 1;
nodes = (
"135 120 LINE",
"407 221 OFFCURVE",
"557 335 OFFCURVE",
"557 544 CURVE SMOOTH",
"557 596 OFFCURVE",
"547 654 OFFCURVE",
"527 718 CURVE",
"463 652 LINE",
"472 615 OFFCURVE",
"476 582 OFFCURVE",
"476 537 CURVE SMOOTH",
"476 380 OFFCURVE",
"342 293 OFFCURVE",
"106 197 CURVE"
);
}
);
};
guideLines = (
{
position = "{940, 1000}";
}
);
layerId = "6F1FF838-4CD9-4710-9EED-9AFF82DAD6EB";
paths = (
{
closed = 1;
nodes = (
"474 515 OFFCURVE",
"643 723 OFFCURVE",
"693 987 CURVE",
"613 1000 LINE",
"565 767 OFFCURVE",
"418 593 OFFCURVE",
"160 485 CURVE",
"189 410 LINE"
);
},
{
closed = 1;
nodes = (
"135 120 LINE",
"407 221 OFFCURVE",
"557 335 OFFCURVE",
"557 544 CURVE SMOOTH",
"557 596 OFFCURVE",
"547 654 OFFCURVE",
"527 718 CURVE",
"463 652 LINE",
"472 615 OFFCURVE",
"476 582 OFFCURVE",
"476 537 CURVE SMOOTH",
"476 380 OFFCURVE",
"342 293 OFFCURVE",
"107 197 CURVE"
);
},
{
closed = 1;
nodes = (
"464 17 OFFCURVE",
"462 207 OFFCURVE",
"437 347 CURVE",
"361 291 LINE",
"382 168 OFFCURVE",
"381 14 OFFCURVE",
"356 -111 CURVE",
"439 -120 LINE"
);
}
);
width = 800;
},
{
guideLines = (
{
position = "{940, 1000}";
}
);
layerId = "43631C01-6FFC-4BF5-B35A-DC7F74885E25";
paths = (
{
closed = 1;
nodes = (
"505 513 OFFCURVE",
"673 699 OFFCURVE",
"728 975 CURVE",
"612 1000 LINE",
"560 771 OFFCURVE",
"412 610 OFFCURVE",
"147 507 CURVE",
"187 398 LINE"
);
},
{
closed = 1;
nodes = (
"157 94 LINE",
"443 199 OFFCURVE",
"610 336 OFFCURVE",
"610 535 CURVE SMOOTH",
"610 599 OFFCURVE",
"594 668 OFFCURVE",
"560 744 CURVE",
"474 668 LINE",
"487 622 OFFCURVE",
"494 581 OFFCURVE",
"494 544 CURVE SMOOTH",
"494 396 OFFCURVE",
"356 298 OFFCURVE",
"120 204 CURVE"
);
},
{
closed = 1;
nodes = (
"511 20 OFFCURVE",
"507 197 OFFCURVE",
"476 328 CURVE",
"362 292 LINE",
"388 167 OFFCURVE",
"392 21 OFFCURVE",
"373 -106 CURVE",
"492 -120 LINE"
);
}
);
width = 850;
},
{
layerId = "7B7A33B1-C38B-4BF8-ACF4-708FF5807549";
paths = (
{
closed = 1;
nodes = (
"450 518 OFFCURVE",
"620 735 OFFCURVE",
"668 989 CURVE",
"614 1000 LINE",
"568 765 OFFCURVE",
"419 583 OFFCURVE",
"161 469 CURVE",
"182 418 LINE"
);
},
{
closed = 1;
nodes = (
"119 136 LINE",
"390 242 OFFCURVE",
"524 337 OFFCURVE",
"524 550 CURVE SMOOTH",
"524 595 OFFCURVE",
"518 645 OFFCURVE",
"506 702 CURVE",
"460 642 LINE",
"465 609 OFFCURVE",
"468 579 OFFCURVE",
"468 552 CURVE SMOOTH",
"468 370 OFFCURVE",
"339 289 OFFCURVE",
"99 191 CURVE"
);
},
{
closed = 1;
nodes = (
"435 9 OFFCURVE",
"434 199 OFFCURVE",
"415 339 CURVE",
"361 290 LINE",
"376 170 OFFCURVE",
"375 13 OFFCURVE",
"346 -109 CURVE",
"406 -120 LINE"
);
}
);
width = 769;
}
);
unicode = 1B179;
},
{
glyphname = u1B17A;
lastChange = "2021-03-01 15:19:27 +0000";
layers = (
{
background = {
paths = (
{
closed = 1;
nodes = (
"432 445 OFFCURVE",
"584 680 OFFCURVE",
"632 988 CURVE",
"552 1000 LINE",
"506 721 OFFCURVE",
"370 514 OFFCURVE",
"122 343 CURVE",
"165 278 LINE"
);
},
{
closed = 1;
nodes = (
"488 36 OFFCURVE",
"493 205 OFFCURVE",
"476 384 CURVE",
"396 376 LINE",
"412 197 OFFCURVE",
"406 47 OFFCURVE",
"376 -106 CURVE",
"456 -120 LINE"
);
},
{
closed = 1;
nodes = (
"682 351 LINE",
"560 551 OFFCURVE",
"403 725 OFFCURVE",
"225 860 CURVE",
"176 799 LINE",
"344 664 OFFCURVE",
"503 490 OFFCURVE",
"613 308 CURVE"
);
}
);
};
guideLines = (
{
position = "{269, 1000}";
}
);
layerId = "6F1FF838-4CD9-4710-9EED-9AFF82DAD6EB";
paths = (
{
closed = 1;
nodes = (
"432 445 OFFCURVE",
"584 681 OFFCURVE",
"632 990 CURVE",
"552 1000 LINE",
"506 721 OFFCURVE",
"370 514 OFFCURVE",
"122 343 CURVE",
"164 278 LINE"
);
},
{
closed = 1;
nodes = (
"682 351 LINE",
"559 551 OFFCURVE",
"402 724 OFFCURVE",
"223 859 CURVE",
"176 799 LINE",
"344 664 OFFCURVE",
"503 490 OFFCURVE",
"613 308 CURVE"
);
},
{
closed = 1;
nodes = (
"488 36 OFFCURVE",
"493 205 OFFCURVE",
"476 384 CURVE",
"396 376 LINE",
"412 197 OFFCURVE",
"406 47 OFFCURVE",
"376 -106 CURVE",
"456 -120 LINE"
);
}
);
width = 800;
},
{
background = {
paths = (
{
closed = 1;
nodes = (
"447 443 OFFCURVE",
"611 673 OFFCURVE",
"679 975 CURVE",
"559 1000 LINE",
"493 734 OFFCURVE",
"347 529 OFFCURVE",
"120 364 CURVE",
"190 268 LINE"
);
},
{
closed = 1;
nodes = (
"520 30 OFFCURVE",
"525 195 OFFCURVE",
"509 361 CURVE",
"389 349 LINE",
"403 199 OFFCURVE",
"399 36 OFFCURVE",
"371 -102 CURVE",
"489 -120 LINE"
);
},
{
closed = 1;
nodes = (
"730 375 LINE",
"602 577 OFFCURVE",
"427 752 OFFCURVE",
"232 887 CURVE",
"159 795 LINE",
"334 668 OFFCURVE",
"510 490 OFFCURVE",
"629 308 CURVE"
);
}
);
};
guideLines = (
{
position = "{269, 1000}";
}
);
layerId = "43631C01-6FFC-4BF5-B35A-DC7F74885E25";
paths = (
{
closed = 1;
nodes = (
"445 443 OFFCURVE",
"608 673 OFFCURVE",
"675 975 CURVE",
"559 1000 LINE",
"493 734 OFFCURVE",
"347 529 OFFCURVE",
"120 364 CURVE",
"190 268 LINE"
);
},
{
closed = 1;
nodes = (
"730 375 LINE",
"600 577 OFFCURVE",
"423 753 OFFCURVE",
"226 888 CURVE",
"159 795 LINE",
"334 668 OFFCURVE",
"510 490 OFFCURVE",
"629 308 CURVE"
);
},
{
closed = 1;
nodes = (
"520 30 OFFCURVE",
"525 195 OFFCURVE",
"509 361 CURVE",
"389 349 LINE",
"403 199 OFFCURVE",
"399 36 OFFCURVE",
"371 -102 CURVE",
"489 -120 LINE"
);
}
);
width = 850;
},
{
background = {
paths = (
{
closed = 1;
nodes = (
"423 450 OFFCURVE",
"562 682 OFFCURVE",
"601 993 CURVE",
"548 1000 LINE",
"514 713 OFFCURVE",
"384 505 OFFCURVE",
"123 330 CURVE",
"152 284 LINE"
);
},
{
closed = 1;
nodes = (
"467 40 OFFCURVE",
"473 211 OFFCURVE",
"456 398 CURVE",
"400 393 LINE",
"418 196 OFFCURVE",
"410 54 OFFCURVE",
"379 -109 CURVE",
"435 -120 LINE"
);
},
{
closed = 1;
nodes = (
"652 336 LINE",
"533 534 OFFCURVE",
"386 706 OFFCURVE",
"219 841 CURVE",
"187 802 LINE",
"350 662 OFFCURVE",
"499 490 OFFCURVE",
"603 308 CURVE"
);
}
);
};
layerId = "7B7A33B1-C38B-4BF8-ACF4-708FF5807549";
paths = (
{
closed = 1;
nodes = (
"423 450 OFFCURVE",
"562 682 OFFCURVE",
"601 993 CURVE",
"548 1000 LINE",
"514 713 OFFCURVE",
"384 505 OFFCURVE",
"123 330 CURVE",
"152 284 LINE"
);
},
{
closed = 1;
nodes = (
"652 336 LINE",
"533 534 OFFCURVE",
"386 706 OFFCURVE",
"219 841 CURVE",
"187 802 LINE",
"350 662 OFFCURVE",
"499 490 OFFCURVE",
"603 308 CURVE"
);
},
{
closed = 1;
nodes = (
"467 40 OFFCURVE",
"473 211 OFFCURVE",
"456 398 CURVE",
"400 393 LINE",
"418 196 OFFCURVE",
"410 54 OFFCURVE",
"379 -109 CURVE",
"435 -120 LINE"
);
}
);
width = 769;
}
);
unicode = 1B17A;
},
{
glyphname = u1B17B;
lastChange = "2021-03-01 15:19:27 +0000";
layers = (
{
background = {
paths = (
{
closed = 1;
nodes = (
"432 447 OFFCURVE",
"572 671 OFFCURVE",
"616 992 CURVE",
"539 1000 LINE",
"499 697 OFFCURVE",
"366 511 OFFCURVE",
"120 320 CURVE",
"165 255 LINE"
);
},
{
closed = 1;
nodes = (
"680 29 LINE",
"299 809 LINE",
"227 774 LINE",
"608 -6 LINE"
);
},
{
closed = 1;
nodes = (
"347 21 OFFCURVE",
"432 155 OFFCURVE",
"511 309 CURVE",
"454 378 LINE",
"375 215 OFFCURVE",
"288 74 OFFCURVE",
"171 -71 CURVE",
"233 -120 LINE"
);
}
);
};
guideLines = (
{
position = "{269, 1000}";
}
);
layerId = "6F1FF838-4CD9-4710-9EED-9AFF82DAD6EB";
paths = (
{
closed = 1;
nodes = (
"432 447 OFFCURVE",
"572 671 OFFCURVE",
"616 992 CURVE",
"539 1000 LINE",
"499 697 OFFCURVE",
"366 511 OFFCURVE",
"120 320 CURVE",
"165 255 LINE"
);
},
{
closed = 1;
nodes = (
"680 29 LINE",
"299 809 LINE",
"227 774 LINE",
"608 -6 LINE"
);
},
{
closed = 1;
nodes = (
"347 21 OFFCURVE",
"432 155 OFFCURVE",
"511 309 CURVE",
"454 378 LINE",
"375 215 OFFCURVE",
"288 74 OFFCURVE",
"171 -71 CURVE",
"233 -120 LINE"
);
}
);
width = 800;
},
{
background = {
paths = (
{
closed = 1;
nodes = (
"491 475 OFFCURVE",
"638 690 OFFCURVE",
"683 989 CURVE",
"571 1000 LINE",
"531 736 OFFCURVE",
"395 561 OFFCURVE",
"120 372 CURVE",
"181 274 LINE"
);
},
{
closed = 1;
nodes = (
"730 37 LINE",
"319 877 LINE",
"215 827 LINE",
"626 -14 LINE"
);
},
{
closed = 1;
nodes = (
"363 6 OFFCURVE",
"473 150 OFFCURVE",
"562 301 CURVE",
"472 383 LINE",
"385 231 OFFCURVE",
"274 86 OFFCURVE",
"151 -41 CURVE",
"239 -120 LINE"
);
}
);
};
guideLines = (
{
position = "{269, 1000}";
}
);
layerId = "43631C01-6FFC-4BF5-B35A-DC7F74885E25";
paths = (
{
closed = 1;
nodes = (
"491 475 OFFCURVE",
"638 690 OFFCURVE",
"683 989 CURVE",
"571 1000 LINE",
"531 736 OFFCURVE",
"395 561 OFFCURVE",
"120 372 CURVE",
"181 274 LINE"
);
},
{
closed = 1;
nodes = (
"730 37 LINE",
"319 877 LINE",
"215 827 LINE",
"626 -14 LINE"
);
},
{
closed = 1;
nodes = (
"363 6 OFFCURVE",
"473 150 OFFCURVE",
"562 301 CURVE",
"472 383 LINE",
"385 231 OFFCURVE",
"275 86 OFFCURVE",
"152 -41 CURVE",
"239 -120 LINE"
);
}
);
width = 850;
},
{
background = {
paths = (
{
closed = 1;
nodes = (
"395 430 OFFCURVE",
"531 659 OFFCURVE",
"574 994 CURVE",
"519 1000 LINE",
"479 673 OFFCURVE",
"348 480 OFFCURVE",
"120 288 CURVE",
"155 243 LINE"
);
},
{
closed = 1;
nodes = (
"649 24 LINE",
"287 767 LINE",
"235 741 LINE",
"597 -1 LINE"
);
},
{
closed = 1;
nodes = (
"337 30 OFFCURVE",
"406 158 OFFCURVE",
"479 314 CURVE",
"443 376 LINE",
"369 206 OFFCURVE",
"297 68 OFFCURVE",
"184 -89 CURVE",
"229 -120 LINE"
);
}
);
};
layerId = "7B7A33B1-C38B-4BF8-ACF4-708FF5807549";
paths = (
{
closed = 1;
nodes = (
"395 430 OFFCURVE",
"531 659 OFFCURVE",
"574 994 CURVE",
"519 1000 LINE",
"479 673 OFFCURVE",
"348 480 OFFCURVE",
"120 288 CURVE",
"155 243 LINE"
);
},
{
closed = 1;
nodes = (
"649 24 LINE",
"287 767 LINE",
"235 741 LINE",
"597 -1 LINE"
);
},
{
closed = 1;
nodes = (
"337 30 OFFCURVE",
"406 158 OFFCURVE",
"479 314 CURVE",
"443 376 LINE",
"369 206 OFFCURVE",
"297 68 OFFCURVE",
"184 -89 CURVE",
"229 -120 LINE"
);
}
);
width = 769;
}
);
unicode = 1B17B;
},
{
glyphname = u1B17C;
lastChange = "2021-03-01 15:19:27 +0000";
layers = (
{
background = {
paths = (
{
closed = 1;
nodes = (
"680 -14 LINE",
"585 145 OFFCURVE",
"426 305 OFFCURVE",
"274 407 CURVE",
"284 366 LINE",
"443 546 OFFCURVE",
"536 753 OFFCURVE",
"576 990 CURVE",
"498 1000 LINE",
"455 763 OFFCURVE",
"360 562 OFFCURVE",
"187 378 CURVE",
"187 374 LINE",
"365 251 OFFCURVE",
"519 95 OFFCURVE",
"612 -59 CURVE"
);
},
{
closed = 1;
nodes = (
"423 37 OFFCURVE",
"547 200 OFFCURVE",
"547 430 CURVE SMOOTH",
"547 521 OFFCURVE",
"529 622 OFFCURVE",
"484 740 CURVE",
"436 634 LINE",
"461 561 OFFCURVE",
"469 498 OFFCURVE",
"469 430 CURVE SMOOTH",
"469 236 OFFCURVE",
"355 101 OFFCURVE",
"120 -51 CURVE",
"161 -120 LINE"
);
}
);
};
guideLines = (
{
position = "{269, 1000}";
}
);
layerId = "6F1FF838-4CD9-4710-9EED-9AFF82DAD6EB";
paths = (
{
closed = 1;
nodes = (
"680 -14 LINE",
"583 145 OFFCURVE",
"426 305 OFFCURVE",
"274 407 CURVE",
"284 366 LINE",
"443 546 OFFCURVE",
"536 753 OFFCURVE",
"576 990 CURVE",
"498 1000 LINE",
"455 763 OFFCURVE",
"360 562 OFFCURVE",
"187 378 CURVE",
"187 374 LINE",
"365 251 OFFCURVE",
"517 95 OFFCURVE",
"612 -59 CURVE"
);
},
{
closed = 1;
nodes = (
"423 37 OFFCURVE",
"547 200 OFFCURVE",
"547 430 CURVE SMOOTH",
"547 521 OFFCURVE",
"529 622 OFFCURVE",
"484 740 CURVE",
"436 634 LINE",
"461 561 OFFCURVE",
"469 498 OFFCURVE",
"469 430 CURVE SMOOTH",
"469 236 OFFCURVE",
"355 101 OFFCURVE",
"120 -51 CURVE",
"161 -120 LINE"
);
}
);
width = 800;
},
{
guideLines = (
{
position = "{269, 1000}";
}
);
layerId = "43631C01-6FFC-4BF5-B35A-DC7F74885E25";
paths = (
{
closed = 1;
nodes = (
"735 -14 LINE",
"634 164 OFFCURVE",
"482 316 OFFCURVE",
"306 437 CURVE",
"319 351 LINE",
"488 532 OFFCURVE",
"586 734 OFFCURVE",
"638 984 CURVE",
"518 1000 LINE",
"472 776 OFFCURVE",
"358 558 OFFCURVE",
"188 383 CURVE",
"188 378 LINE",
"370 243 OFFCURVE",
"533 89 OFFCURVE",
"631 -80 CURVE"
);
},
{
closed = 1;
nodes = (
"482 26 OFFCURVE",
"632 209 OFFCURVE",
"632 457 CURVE SMOOTH",
"632 562 OFFCURVE",
"605 679 OFFCURVE",
"553 809 CURVE",
"483 653 LINE",
"502 583 OFFCURVE",
"512 522 OFFCURVE",
"512 466 CURVE SMOOTH",
"512 253 OFFCURVE",
"375 127 OFFCURVE",
"120 -15 CURVE",
"179 -120 LINE"
);
}
);
width = 850;
},
{
layerId = "7B7A33B1-C38B-4BF8-ACF4-708FF5807549";
paths = (
{
closed = 1;
nodes = (
"646 -14 LINE",
"551 138 OFFCURVE",
"386 300 OFFCURVE",
"244 394 CURVE",
"250 363 LINE",
"410 545 OFFCURVE",
"504 760 OFFCURVE",
"537 994 CURVE",
"486 1000 LINE",
"446 755 OFFCURVE",
"361 565 OFFCURVE",
"186 375 CURVE",
"186 372 LINE",
"362 254 OFFCURVE",
"510 97 OFFCURVE",
"600 -46 CURVE"
);
},
{
closed = 1;
nodes = (
"386 44 OFFCURVE",
"494 194 OFFCURVE",
"494 413 CURVE SMOOTH",
"494 495 OFFCURVE",
"482 586 OFFCURVE",
"441 697 CURVE",
"407 629 LINE",
"434 552 OFFCURVE",
"441 485 OFFCURVE",
"441 408 CURVE SMOOTH",
"441 225 OFFCURVE",
"342 85 OFFCURVE",
"120 -74 CURVE",
"150 -120 LINE"
);
}
);
width = 769;
}
);
unicode = 1B17C;
},
{
glyphname = u1B17D;
lastChange = "2021-03-01 15:19:27 +0000";
layers = (
{
background = {
paths = (
{
closed = 1;
nodes = (
"412 431 OFFCURVE",
"546 670 OFFCURVE",
"616 985 CURVE",
"538 1000 LINE",
"469 703 OFFCURVE",
"348 497 OFFCURVE",
"123 317 CURVE",
"169 251 LINE"
);
},
{
closed = 1;
nodes = (
"461 120 OFFCURVE",
"486 378 OFFCURVE",
"457 635 CURVE",
"386 545 LINE",
"402 337 OFFCURVE",
"376 116 OFFCURVE",
"303 -96 CURVE",
"382 -120 LINE"
);
},
{
closed = 1;
nodes = (
"662 117 OFFCURVE",
"683 144 OFFCURVE",
"683 177 CURVE SMOOTH",
"683 212 OFFCURVE",
"662 238 OFFCURVE",
"627 238 CURVE SMOOTH",
"595 238 OFFCURVE",
"571 212 OFFCURVE",
"571 177 CURVE SMOOTH",
"571 144 OFFCURVE",
"595 117 OFFCURVE",
"627 117 CURVE SMOOTH"
);
}
);
};
guideLines = (
{
position = "{762, 1000}";
}
);
layerId = "6F1FF838-4CD9-4710-9EED-9AFF82DAD6EB";
paths = (
{
closed = 1;
nodes = (
"412 431 OFFCURVE",
"546 670 OFFCURVE",
"616 985 CURVE",
"538 1000 LINE",
"469 703 OFFCURVE",
"348 497 OFFCURVE",
"123 317 CURVE",
"169 251 LINE"
);
},
{
closed = 1;
nodes = (
"461 120 OFFCURVE",
"486 378 OFFCURVE",
"457 635 CURVE",
"386 545 LINE",
"402 337 OFFCURVE",
"376 116 OFFCURVE",
"303 -96 CURVE",
"382 -120 LINE"
);
},
{
closed = 1;
nodes = (
"662 117 OFFCURVE",
"683 144 OFFCURVE",
"683 177 CURVE SMOOTH",
"683 212 OFFCURVE",
"662 238 OFFCURVE",
"627 238 CURVE SMOOTH",
"595 238 OFFCURVE",
"571 212 OFFCURVE",
"571 177 CURVE SMOOTH",
"571 144 OFFCURVE",
"595 117 OFFCURVE",
"627 117 CURVE SMOOTH"
);
}
);
width = 800;
},
{
background = {
paths = (
{
closed = 1;
nodes = (
"404 416 OFFCURVE",
"560 655 OFFCURVE",
"640 978 CURVE",
"522 1000 LINE",
"446 704 OFFCURVE",
"312 517 OFFCURVE",
"80 334 CURVE",
"147 236 LINE"
);
},
{
closed = 1;
nodes = (
"510 150 OFFCURVE",
"522 387 OFFCURVE",
"477 709 CURVE",
"368 573 LINE",
"399 362 OFFCURVE",
"381 144 OFFCURVE",
"313 -90 CURVE",
"435 -120 LINE"
);
},
{
closed = 1;
nodes = (
"736 62 OFFCURVE",
"768 96 OFFCURVE",
"768 148 CURVE SMOOTH",
"768 200 OFFCURVE",
"736 235 OFFCURVE",
"688 235 CURVE SMOOTH",
"640 235 OFFCURVE",
"608 200 OFFCURVE",
"608 148 CURVE SMOOTH",
"608 96 OFFCURVE",
"640 62 OFFCURVE",
"688 62 CURVE SMOOTH"
);
}
);
};
guideLines = (
{
position = "{762, 1000}";
}
);
layerId = "43631C01-6FFC-4BF5-B35A-DC7F74885E25";
paths = (
{
closed = 1;
nodes = (
"404 418 OFFCURVE",
"560 656 OFFCURVE",
"640 978 CURVE",
"522 1000 LINE",
"446 704 OFFCURVE",
"312 517 OFFCURVE",
"80 334 CURVE",
"147 239 LINE"
);
},
{
closed = 1;
nodes = (
"510 150 OFFCURVE",
"522 387 OFFCURVE",
"477 709 CURVE",
"368 573 LINE",
"399 362 OFFCURVE",
"381 144 OFFCURVE",
"313 -90 CURVE",
"435 -120 LINE"
);
},
{
closed = 1;
nodes = (
"736 62 OFFCURVE",
"768 96 OFFCURVE",
"768 148 CURVE SMOOTH",
"768 200 OFFCURVE",
"736 235 OFFCURVE",
"688 235 CURVE SMOOTH",
"640 235 OFFCURVE",
"608 200 OFFCURVE",
"608 148 CURVE SMOOTH",
"608 96 OFFCURVE",
"640 62 OFFCURVE",
"688 62 CURVE SMOOTH"
);
}
);
width = 850;
},
{
background = {
paths = (
{
closed = 1;
nodes = (
"418 440 OFFCURVE",
"538 680 OFFCURVE",
"602 991 CURVE",
"548 1000 LINE",
"483 702 OFFCURVE",
"371 485 OFFCURVE",
"150 306 CURVE",
"183 260 LINE"
);
},
{
closed = 1;
nodes = (
"430 103 OFFCURVE",
"464 378 OFFCURVE",
"445 597 CURVE",
"397 536 LINE",
"404 326 OFFCURVE",
"372 102 OFFCURVE",
"296 -100 CURVE",
"349 -120 LINE"
);
},
{
closed = 1;
nodes = (
"616 151 OFFCURVE",
"630 174 OFFCURVE",
"630 195 CURVE SMOOTH",
"630 220 OFFCURVE",
"616 240 OFFCURVE",
"589 240 CURVE SMOOTH",
"567 240 OFFCURVE",
"548 220 OFFCURVE",
"548 195 CURVE SMOOTH",
"548 174 OFFCURVE",
"567 151 OFFCURVE",
"589 151 CURVE SMOOTH"
);
}
);
};
layerId = "7B7A33B1-C38B-4BF8-ACF4-708FF5807549";
paths = (
{
closed = 1;
nodes = (
"418 440 OFFCURVE",
"538 680 OFFCURVE",
"602 991 CURVE",
"548 1000 LINE",
"483 702 OFFCURVE",
"371 485 OFFCURVE",
"150 306 CURVE",
"183 260 LINE"
);
},
{
closed = 1;
nodes = (
"430 103 OFFCURVE",
"464 378 OFFCURVE",
"445 597 CURVE",
"397 536 LINE",
"404 326 OFFCURVE",
"372 102 OFFCURVE",
"296 -100 CURVE",
"349 -120 LINE"
);
},
{
closed = 1;
nodes = (
"616 151 OFFCURVE",
"630 174 OFFCURVE",
"630 195 CURVE SMOOTH",
"630 220 OFFCURVE",
"616 240 OFFCURVE",
"589 240 CURVE SMOOTH",
"567 240 OFFCURVE",
"548 220 OFFCURVE",
"548 195 CURVE SMOOTH",
"548 174 OFFCURVE",
"567 151 OFFCURVE",
"589 151 CURVE SMOOTH"
);
}
);
width = 769;
}
);
unicode = 1B17D;
},
{
glyphname = u1B17E;
lastChange = "2021-03-01 15:19:27 +0000";
layers = (
{
background = {
paths = (
{
closed = 1;
nodes = (
"432 92 OFFCURVE",
"378 359 OFFCURVE",
"222 495 CURVE",
"226 442 LINE",
"411 595 OFFCURVE",
"523 763 OFFCURVE",
"578 983 CURVE",
"496 1000 LINE",
"446 795 OFFCURVE",
"331 628 OFFCURVE",
"132 469 CURVE",
"132 465 LINE",
"292 328 OFFCURVE",
"344 124 OFFCURVE",
"202 -77 CURVE",
"272 -120 LINE"
);
},
{
closed = 1;
nodes = (
"666 257 LINE",
"656 456 OFFCURVE",
"592 626 OFFCURVE",
"471 774 CURVE",
"413 711 LINE",
"517 588 OFFCURVE",
"573 437 OFFCURVE",
"585 251 CURVE"
);
}
);
};
guideLines = (
{
position = "{269, 1000}";
}
);
layerId = "6F1FF838-4CD9-4710-9EED-9AFF82DAD6EB";
paths = (
{
closed = 1;
nodes = (
"339 -31 OFFCURVE",
"369 68 OFFCURVE",
"369 162 CURVE SMOOTH",
"369 293 OFFCURVE",
"312 416 OFFCURVE",
"222 495 CURVE",
"226 442 LINE",
"411 595 OFFCURVE",
"523 763 OFFCURVE",
"578 983 CURVE",
"496 1000 LINE",
"446 795 OFFCURVE",
"331 628 OFFCURVE",
"132 469 CURVE",
"132 465 LINE",
"228 383 OFFCURVE",
"285 277 OFFCURVE",
"285 162 CURVE SMOOTH",
"285 85 OFFCURVE",
"259 4 OFFCURVE",
"202 -77 CURVE",
"272 -120 LINE"
);
},
{
closed = 1;
nodes = (
"666 257 LINE",
"656 456 OFFCURVE",
"592 626 OFFCURVE",
"471 774 CURVE",
"413 711 LINE",
"517 588 OFFCURVE",
"573 437 OFFCURVE",
"585 251 CURVE"
);
}
);
width = 800;
},
{
background = {
paths = (
{
closed = 1;
nodes = (
"404 -34 OFFCURVE",
"422 54 OFFCURVE",
"422 139 CURVE SMOOTH",
"422 284 OFFCURVE",
"367 419 OFFCURVE",
"253 514 CURVE",
"269 436 LINE",
"446 587 OFFCURVE",
"547 760 OFFCURVE",
"586 984 CURVE",
"460 1000 LINE",
"424 787 OFFCURVE",
"323 623 OFFCURVE",
"126 462 CURVE",
"126 457 LINE",
"242 371 OFFCURVE",
"293 261 OFFCURVE",
"293 135 CURVE SMOOTH",
"293 67 OFFCURVE",
"278 -6 OFFCURVE",
"250 -81 CURVE",
"367 -120 LINE"
);
},
{
closed = 1;
nodes = (
"716 263 LINE",
"718 475 OFFCURVE",
"649 650 OFFCURVE",
"507 797 CURVE",
"431 690 LINE",
"535 584 OFFCURVE",
"588 441 OFFCURVE",
"593 256 CURVE"
);
}
);
};
guideLines = (
{
position = "{269, 1000}";
}
);
layerId = "43631C01-6FFC-4BF5-B35A-DC7F74885E25";
paths = (
{
closed = 1;
nodes = (
"404 -34 OFFCURVE",
"422 54 OFFCURVE",
"422 139 CURVE SMOOTH",
"422 284 OFFCURVE",
"367 419 OFFCURVE",
"253 514 CURVE",
"269 436 LINE",
"446 587 OFFCURVE",
"547 760 OFFCURVE",
"586 984 CURVE",
"460 1000 LINE",
"424 787 OFFCURVE",
"323 623 OFFCURVE",
"126 462 CURVE",
"126 457 LINE",
"242 371 OFFCURVE",
"293 261 OFFCURVE",
"293 135 CURVE SMOOTH",
"293 67 OFFCURVE",
"278 -6 OFFCURVE",
"250 -81 CURVE",
"367 -120 LINE"
);
},
{
closed = 1;
nodes = (
"716 263 LINE",
"718 475 OFFCURVE",
"649 650 OFFCURVE",
"507 797 CURVE",
"431 690 LINE",
"535 584 OFFCURVE",
"588 441 OFFCURVE",
"593 256 CURVE"
);
}
);
width = 850;
},
{
layerId = "7B7A33B1-C38B-4BF8-ACF4-708FF5807549";
paths = (
{
closed = 1;
nodes = (
"301 -32 OFFCURVE",
"337 71 OFFCURVE",
"337 170 CURVE SMOOTH",
"337 294 OFFCURVE",
"278 403 OFFCURVE",
"202 481 CURVE",
"199 446 LINE",
"390 601 OFFCURVE",
"509 766 OFFCURVE",
"574 984 CURVE",
"519 1000 LINE",
"460 800 OFFCURVE",
"333 625 OFFCURVE",
"136 473 CURVE",
"136 470 LINE",
"222 387 OFFCURVE",
"281 284 OFFCURVE",
"281 172 CURVE SMOOTH",
"281 89 OFFCURVE",
"249 3 OFFCURVE",
"171 -79 CURVE",
"213 -120 LINE"
);
},
{
closed = 1;
nodes = (
"630 253 LINE",
"612 444 OFFCURVE",
"551 611 OFFCURVE",
"444 760 CURVE",
"406 711 LINE",
"503 582 OFFCURVE",
"557 430 OFFCURVE",
"574 248 CURVE"
);
}
);
width = 769;
}
);
unicode = 1B17E;
},
{
glyphname = u1B17F;
lastChange = "2021-03-01 15:19:27 +0000";
layers = (
{
background = {
paths = (
{
closed = 1;
nodes = (
"480 163 OFFCURVE",
"506 512 OFFCURVE",
"475 1000 CURVE",
"391 992 LINE",
"419 528 OFFCURVE",
"403 213 OFFCURVE",
"158 -63 CURVE",
"222 -120 LINE"
);
},
{
closed = 1;
nodes = (
"195 222 OFFCURVE",
"217 250 OFFCURVE",
"217 283 CURVE SMOOTH",
"217 318 OFFCURVE",
"195 345 OFFCURVE",
"160 345 CURVE SMOOTH",
"128 345 OFFCURVE",
"103 318 OFFCURVE",
"103 283 CURVE SMOOTH",
"103 250 OFFCURVE",
"128 222 OFFCURVE",
"160 222 CURVE SMOOTH"
);
},
{
closed = 1;
nodes = (
"587 282 OFFCURVE",
"612 254 OFFCURVE",
"644 254 CURVE SMOOTH",
"679 254 OFFCURVE",
"701 282 OFFCURVE",
"701 315 CURVE SMOOTH",
"701 350 OFFCURVE",
"679 377 OFFCURVE",
"644 377 CURVE SMOOTH",
"612 377 OFFCURVE",
"587 350 OFFCURVE",
"587 315 CURVE SMOOTH"
);
}
);
};
guideLines = (
{
position = "{740, 1000}";
}
);
layerId = "6F1FF838-4CD9-4710-9EED-9AFF82DAD6EB";
paths = (
{
closed = 1;
nodes = (
"480 163 OFFCURVE",
"506 512 OFFCURVE",
"475 1000 CURVE",
"391 995 LINE",
"419 528 OFFCURVE",
"403 212 OFFCURVE",
"157 -66 CURVE",
"222 -120 LINE"
);
},
{
closed = 1;
nodes = (
"195 222 OFFCURVE",
"217 250 OFFCURVE",
"217 283 CURVE SMOOTH",
"217 318 OFFCURVE",
"195 345 OFFCURVE",
"160 345 CURVE SMOOTH",
"128 345 OFFCURVE",
"103 318 OFFCURVE",
"103 283 CURVE SMOOTH",
"103 250 OFFCURVE",
"128 222 OFFCURVE",
"160 222 CURVE SMOOTH"
);
},
{
closed = 1;
nodes = (
"587 282 OFFCURVE",
"612 254 OFFCURVE",
"644 254 CURVE SMOOTH",
"679 254 OFFCURVE",
"701 282 OFFCURVE",
"701 315 CURVE SMOOTH",
"701 350 OFFCURVE",
"679 377 OFFCURVE",
"644 377 CURVE SMOOTH",
"612 377 OFFCURVE",
"587 350 OFFCURVE",
"587 315 CURVE SMOOTH"
);
}
);
width = 800;
},
{
associatedMasterId = "6F1FF838-4CD9-4710-9EED-9AFF82DAD6EB";
guideLines = (
{
position = "{740, 1000}";
}
);
layerId = "7333C022-033E-4944-B20D-517BF4577EE4";
name = "Mar 3 20, 13:32";
paths = (
{
closed = 0;
nodes = (
"394 1064 LINE",
"403 932 OFFCURVE",
"408 816 OFFCURVE",
"408 713 CURVE SMOOTH",
"408 299 OFFCURVE",
"331 95 OFFCURVE",
"128 -130 CURVE SMOOTH"
);
}
);
width = 740;
},
{
background = {
paths = (
{
closed = 1;
nodes = (
"456 106 OFFCURVE",
"523 328 OFFCURVE",
"523 719 CURVE SMOOTH",
"523 803 OFFCURVE",
"519 897 OFFCURVE",
"513 1000 CURVE",
"390 992 LINE",
"397 889 OFFCURVE",
"400 799 OFFCURVE",
"400 719 CURVE SMOOTH",
"400 355 OFFCURVE",
"342 163 OFFCURVE",
"171 -42 CURVE",
"266 -120 LINE"
);
},
{
closed = 1;
nodes = (
"212 210 OFFCURVE",
"245 245 OFFCURVE",
"245 293 CURVE SMOOTH",
"245 342 OFFCURVE",
"212 377 OFFCURVE",
"166 377 CURVE SMOOTH",
"121 377 OFFCURVE",
"87 340 OFFCURVE",
"87 293 CURVE SMOOTH",
"87 247 OFFCURVE",
"122 210 OFFCURVE",
"166 210 CURVE SMOOTH"
);
},
{
closed = 1;
nodes = (
"603 269 OFFCURVE",
"638 232 OFFCURVE",
"682 232 CURVE SMOOTH",
"728 232 OFFCURVE",
"761 267 OFFCURVE",
"761 315 CURVE SMOOTH",
"761 364 OFFCURVE",
"728 399 OFFCURVE",
"682 399 CURVE SMOOTH",
"637 399 OFFCURVE",
"603 362 OFFCURVE",
"603 315 CURVE SMOOTH"
);
}
);
};
guideLines = (
{
position = "{740, 1000}";
}
);
layerId = "43631C01-6FFC-4BF5-B35A-DC7F74885E25";
paths = (
{
closed = 1;
nodes = (
"526 188 OFFCURVE",
"543 503 OFFCURVE",
"514 1000 CURVE",
"391 989 LINE",
"422 539 OFFCURVE",
"407 239 OFFCURVE",
"173 -40 CURVE",
"267 -120 LINE"
);
},
{
closed = 1;
nodes = (
"212 210 OFFCURVE",
"245 245 OFFCURVE",
"245 293 CURVE SMOOTH",
"245 342 OFFCURVE",
"212 377 OFFCURVE",
"166 377 CURVE SMOOTH",
"121 377 OFFCURVE",
"87 340 OFFCURVE",
"87 293 CURVE SMOOTH",
"87 247 OFFCURVE",
"122 210 OFFCURVE",
"166 210 CURVE SMOOTH"
);
},
{
closed = 1;
nodes = (
"603 269 OFFCURVE",
"638 232 OFFCURVE",
"682 232 CURVE SMOOTH",
"728 232 OFFCURVE",
"761 267 OFFCURVE",
"761 315 CURVE SMOOTH",
"761 364 OFFCURVE",
"728 399 OFFCURVE",
"682 399 CURVE SMOOTH",
"637 399 OFFCURVE",
"603 362 OFFCURVE",
"603 315 CURVE SMOOTH"
);
}
);
width = 850;
},
{
associatedMasterId = "43631C01-6FFC-4BF5-B35A-DC7F74885E25";
guideLines = (
{
position = "{740, 1000}";
}
);
layerId = "5D42CA09-B84F-4FCF-A2DE-AC98FE14CB4F";
name = "Mar 3 20, 13:32";
paths = (
{
closed = 0;
nodes = (
"394 1064 LINE",
"403 932 OFFCURVE",
"408 816 OFFCURVE",
"408 713 CURVE SMOOTH",
"408 299 OFFCURVE",
"331 95 OFFCURVE",
"128 -130 CURVE SMOOTH"
);
}
);
width = 740;
},
{
background = {
paths = (
{
closed = 1;
nodes = (
"451 147 OFFCURVE",
"483 518 OFFCURVE",
"451 1000 CURVE",
"391 994 LINE",
"417 521 OFFCURVE",
"401 197 OFFCURVE",
"149 -77 CURVE",
"194 -120 LINE"
);
},
{
closed = 1;
nodes = (
"184 230 OFFCURVE",
"200 253 OFFCURVE",
"200 277 CURVE SMOOTH",
"200 303 OFFCURVE",
"184 325 OFFCURVE",
"156 325 CURVE SMOOTH",
"132 325 OFFCURVE",
"113 304 OFFCURVE",
"113 277 CURVE SMOOTH",
"113 252 OFFCURVE",
"132 230 OFFCURVE",
"156 230 CURVE SMOOTH"
);
},
{
closed = 1;
nodes = (
"577 290 OFFCURVE",
"596 268 OFFCURVE",
"620 268 CURVE SMOOTH",
"648 268 OFFCURVE",
"664 291 OFFCURVE",
"664 315 CURVE SMOOTH",
"664 341 OFFCURVE",
"648 363 OFFCURVE",
"620 363 CURVE SMOOTH",
"596 363 OFFCURVE",
"577 343 OFFCURVE",
"577 315 CURVE SMOOTH"
);
}
);
};
layerId = "7B7A33B1-C38B-4BF8-ACF4-708FF5807549";
paths = (
{
closed = 1;
nodes = (
"451 147 OFFCURVE",
"483 518 OFFCURVE",
"451 1000 CURVE",
"391 994 LINE",
"417 521 OFFCURVE",
"401 197 OFFCURVE",
"149 -77 CURVE",
"194 -120 LINE"
);
},
{
closed = 1;
nodes = (
"184 230 OFFCURVE",
"200 253 OFFCURVE",
"200 277 CURVE SMOOTH",
"200 303 OFFCURVE",
"184 325 OFFCURVE",
"156 325 CURVE SMOOTH",
"132 325 OFFCURVE",
"113 304 OFFCURVE",
"113 277 CURVE SMOOTH",
"113 252 OFFCURVE",
"132 230 OFFCURVE",
"156 230 CURVE SMOOTH"
);
},
{
closed = 1;
nodes = (
"577 290 OFFCURVE",
"596 268 OFFCURVE",
"620 268 CURVE SMOOTH",
"648 268 OFFCURVE",
"664 291 OFFCURVE",
"664 315 CURVE SMOOTH",
"664 341 OFFCURVE",
"648 363 OFFCURVE",
"620 363 CURVE SMOOTH",
"596 363 OFFCURVE",
"577 343 OFFCURVE",
"577 315 CURVE SMOOTH"
);
}
);
width = 769;
}
);
unicode = 1B17F;
},
{
glyphname = u1B180;
lastChange = "2021-03-01 15:19:27 +0000";
layers = (
{
guideLines = (
{
position = "{762, 1000}";
}
);
layerId = "6F1FF838-4CD9-4710-9EED-9AFF82DAD6EB";
paths = (
{
closed = 1;
nodes = (
"461 401 OFFCURVE",
"583 637 OFFCURVE",
"581 1000 CURVE",
"503 999 LINE",
"506 663 OFFCURVE",
"397 454 OFFCURVE",
"120 206 CURVE",
"170 149 LINE"
);
},
{
closed = 1;
nodes = (
"437 59 LINE",
"500 114 LINE",
"206 717 LINE",
"133 682 LINE"
);
},
{
closed = 1;
nodes = (
"440 -1 OFFCURVE",
"556 119 OFFCURVE",
"670 267 CURVE",
"607 316 LINE",
"508 182 OFFCURVE",
"380 48 OFFCURVE",
"248 -61 CURVE",
"297 -120 LINE"
);
}
);
width = 800;
},
{
guideLines = (
{
position = "{762, 1000}";
}
);
layerId = "43631C01-6FFC-4BF5-B35A-DC7F74885E25";
paths = (
{
closed = 1;
nodes = (
"507 411 OFFCURVE",
"601 650 OFFCURVE",
"625 997 CURVE",
"509 1000 LINE",
"481 689 OFFCURVE",
"405 487 OFFCURVE",
"120 260 CURVE",
"193 168 LINE"
);
},
{
closed = 1;
nodes = (
"453 65 LINE",
"542 152 LINE",
"249 752 LINE",
"142 700 LINE"
);
},
{
closed = 1;
nodes = (
"442 -4 OFFCURVE",
"596 152 OFFCURVE",
"715 308 CURVE",
"625 378 LINE",
"526 245 OFFCURVE",
"380 92 OFFCURVE",
"231 -32 CURVE",
"303 -120 LINE"
);
}
);
width = 850;
},
{
background = {
paths = (
{
closed = 1;
nodes = (
"435 388 OFFCURVE",
"574 625 OFFCURVE",
"556 1000 CURVE",
"499 998 LINE",
"520 647 OFFCURVE",
"392 433 OFFCURVE",
"120 172 CURVE",
"158 130 LINE"
);
},
{
closed = 1;
nodes = (
"423 -14 OFFCURVE",
"540 107 OFFCURVE",
"642 241 CURVE",
"597 277 LINE",
"498 146 OFFCURVE",
"385 28 OFFCURVE",
"258 -75 CURVE",
"293 -120 LINE"
);
},
{
closed = 1;
nodes = (
"432 46 LINE",
"477 84 LINE",
"179 695 LINE",
"127 671 LINE"
);
}
);
};
layerId = "7B7A33B1-C38B-4BF8-ACF4-708FF5807549";
paths = (
{
closed = 1;
nodes = (
"435 388 OFFCURVE",
"574 625 OFFCURVE",
"556 1000 CURVE",
"499 998 LINE",
"520 647 OFFCURVE",
"392 433 OFFCURVE",
"120 172 CURVE",
"158 130 LINE"
);
},
{
closed = 1;
nodes = (
"432 46 LINE",
"477 84 LINE",
"179 695 LINE",
"127 671 LINE"
);
},
{
closed = 1;
nodes = (
"423 -14 OFFCURVE",
"540 107 OFFCURVE",
"642 241 CURVE",
"597 277 LINE",
"498 146 OFFCURVE",
"385 28 OFFCURVE",
"258 -75 CURVE",
"293 -120 LINE"
);
}
);
width = 769;
}
);
unicode = 1B180;
},
{
glyphname = u1B181;
lastChange = "2021-03-01 15:19:27 +0000";
layers = (
{
guideLines = (
{
position = "{762, 1000}";
},
{
angle = 90;
position = "{-453, 684}";
}
);
layerId = "6F1FF838-4CD9-4710-9EED-9AFF82DAD6EB";
paths = (
{
closed = 1;
nodes = (
"687 -83 LINE",
"591 116 OFFCURVE",
"429 309 OFFCURVE",
"251 436 CURVE",
"246 390 LINE",
"449 543 OFFCURVE",
"587 735 OFFCURVE",
"673 975 CURVE",
"597 1000 LINE",
"519 774 OFFCURVE",
"388 595 OFFCURVE",
"159 416 CURVE",
"159 412 LINE",
"363 258 OFFCURVE",
"513 83 OFFCURVE",
"618 -120 CURVE"
);
},
{
closed = 1;
nodes = (
"420 51 OFFCURVE",
"552 197 OFFCURVE",
"552 402 CURVE SMOOTH",
"552 616 OFFCURVE",
"440 772 OFFCURVE",
"189 869 CURVE",
"157 795 LINE",
"382 702 OFFCURVE",
"470 563 OFFCURVE",
"470 402 CURVE SMOOTH",
"470 240 OFFCURVE",
"355 120 OFFCURVE",
"113 27 CURVE",
"142 -48 LINE"
);
}
);
width = 800;
},
{
guideLines = (
{
position = "{762, 1000}";
},
{
angle = 90;
position = "{-453, 684}";
}
);
layerId = "43631C01-6FFC-4BF5-B35A-DC7F74885E25";
paths = (
{
closed = 1;
nodes = (
"732 -64 LINE",
"631 128 OFFCURVE",
"447 327 OFFCURVE",
"245 451 CURVE",
"240 366 LINE",
"461 506 OFFCURVE",
"631 719 OFFCURVE",
"721 959 CURVE",
"611 1000 LINE",
"518 765 OFFCURVE",
"374 602 OFFCURVE",
"122 411 CURVE",
"122 407 LINE",
"344 256 OFFCURVE",
"513 86 OFFCURVE",
"625 -120 CURVE"
);
},
{
closed = 1;
nodes = (
"444 24 OFFCURVE",
"605 168 OFFCURVE",
"605 402 CURVE SMOOTH",
"605 635 OFFCURVE",
"463 792 OFFCURVE",
"189 896 CURVE",
"143 787 LINE",
"354 699 OFFCURVE",
"484 581 OFFCURVE",
"484 402 CURVE SMOOTH",
"484 231 OFFCURVE",
"351 121 OFFCURVE",
"131 42 CURVE",
"169 -71 LINE"
);
}
);
width = 850;
},
{
layerId = "7B7A33B1-C38B-4BF8-ACF4-708FF5807549";
paths = (
{
closed = 1;
nodes = (
"664 -93 LINE",
"567 110 OFFCURVE",
"412 301 OFFCURVE",
"244 433 CURVE",
"249 399 LINE",
"445 561 OFFCURVE",
"566 741 OFFCURVE",
"643 983 CURVE",
"588 1000 LINE",
"522 780 OFFCURVE",
"387 580 OFFCURVE",
"182 420 CURVE",
"182 415 LINE",
"375 259 OFFCURVE",
"513 81 OFFCURVE",
"614 -120 CURVE"
);
},
{
closed = 1;
nodes = (
"386 51 OFFCURVE",
"524 233 OFFCURVE",
"524 436 CURVE SMOOTH",
"524 649 OFFCURVE",
"395 792 OFFCURVE",
"159 872 CURVE",
"140 820 LINE",
"349 746 OFFCURVE",
"466 616 OFFCURVE",
"466 436 CURVE SMOOTH",
"466 265 OFFCURVE",
"343 102 OFFCURVE",
"104 21 CURVE",
"123 -35 LINE"
);
}
);
width = 769;
}
);
unicode = 1B181;
},
{
glyphname = u1B182;
lastChange = "2021-03-01 15:19:27 +0000";
layers = (
{
background = {
paths = (
{
closed = 1;
nodes = (
"628 -76 LINE",
"191 824 LINE",
"120 789 LINE",
"558 -110 LINE"
);
},
{
closed = 1;
nodes = (
"473 45 OFFCURVE",
"627 225 OFFCURVE",
"627 455 CURVE SMOOTH",
"627 546 OFFCURVE",
"602 647 OFFCURVE",
"551 760 CURVE",
"504 656 LINE",
"533 583 OFFCURVE",
"547 519 OFFCURVE",
"547 461 CURVE SMOOTH",
"547 255 OFFCURVE",
"405 113 OFFCURVE",
"134 -49 CURVE",
"174 -120 LINE"
);
},
{
closed = 1;
nodes = (
"518 578 OFFCURVE",
"621 753 OFFCURVE",
"680 984 CURVE",
"604 1000 LINE",
"548 801 OFFCURVE",
"457 633 OFFCURVE",
"307 481 CURVE",
"348 407 LINE"
);
}
);
};
guideLines = (
{
position = "{269, 1000}";
}
);
layerId = "6F1FF838-4CD9-4710-9EED-9AFF82DAD6EB";
paths = (
{
closed = 1;
nodes = (
"518 578 OFFCURVE",
"621 753 OFFCURVE",
"680 984 CURVE",
"604 1000 LINE",
"548 801 OFFCURVE",
"457 633 OFFCURVE",
"307 481 CURVE",
"348 407 LINE"
);
},
{
closed = 1;
nodes = (
"628 -76 LINE",
"191 824 LINE",
"120 789 LINE",
"558 -110 LINE"
);
},
{
closed = 1;
nodes = (
"473 45 OFFCURVE",
"627 225 OFFCURVE",
"627 455 CURVE SMOOTH",
"627 546 OFFCURVE",
"602 647 OFFCURVE",
"551 760 CURVE",
"504 656 LINE",
"533 583 OFFCURVE",
"547 519 OFFCURVE",
"547 461 CURVE SMOOTH",
"547 255 OFFCURVE",
"405 113 OFFCURVE",
"134 -49 CURVE",
"174 -120 LINE"
);
}
);
width = 800;
},
{
guideLines = (
{
position = "{269, 1000}";
}
);
layerId = "43631C01-6FFC-4BF5-B35A-DC7F74885E25";
paths = (
{
closed = 1;
nodes = (
"560 591 OFFCURVE",
"677 776 OFFCURVE",
"729 976 CURVE",
"613 1000 LINE",
"564 826 OFFCURVE",
"464 666 OFFCURVE",
"322 536 CURVE",
"388 434 LINE"
);
},
{
closed = 1;
nodes = (
"682 -46 LINE",
"228 863 LINE",
"120 810 LINE",
"576 -104 LINE"
);
},
{
closed = 1;
nodes = (
"536 60 OFFCURVE",
"703 246 OFFCURVE",
"703 486 CURVE SMOOTH",
"703 587 OFFCURVE",
"676 700 OFFCURVE",
"622 830 CURVE",
"549 675 LINE",
"570 602 OFFCURVE",
"581 541 OFFCURVE",
"581 488 CURVE SMOOTH",
"581 286 OFFCURVE",
"428 162 OFFCURVE",
"155 -14 CURVE",
"215 -120 LINE"
);
}
);
width = 850;
},
{
background = {
paths = (
{
closed = 1;
nodes = (
"600 -92 LINE",
"168 800 LINE",
"120 776 LINE",
"547 -114 LINE"
);
},
{
closed = 1;
nodes = (
"434 36 OFFCURVE",
"580 212 OFFCURVE",
"580 436 CURVE SMOOTH",
"580 513 OFFCURVE",
"559 600 OFFCURVE",
"517 694 CURVE",
"484 630 LINE",
"513 562 OFFCURVE",
"527 501 OFFCURVE",
"527 444 CURVE SMOOTH",
"527 236 OFFCURVE",
"392 83 OFFCURVE",
"123 -70 CURVE",
"148 -120 LINE"
);
},
{
closed = 1;
nodes = (
"496 577 OFFCURVE",
"588 743 OFFCURVE",
"649 989 CURVE",
"598 1000 LINE",
"544 789 OFFCURVE",
"457 619 OFFCURVE",
"307 457 CURVE",
"332 400 LINE"
);
}
);
};
layerId = "7B7A33B1-C38B-4BF8-ACF4-708FF5807549";
paths = (
{
closed = 1;
nodes = (
"496 577 OFFCURVE",
"588 743 OFFCURVE",
"649 989 CURVE",
"598 1000 LINE",
"544 789 OFFCURVE",
"457 619 OFFCURVE",
"307 457 CURVE",
"332 400 LINE"
);
},
{
closed = 1;
nodes = (
"600 -92 LINE",
"168 800 LINE",
"120 776 LINE",
"547 -114 LINE"
);
},
{
closed = 1;
nodes = (
"434 36 OFFCURVE",
"580 212 OFFCURVE",
"580 436 CURVE SMOOTH",
"580 513 OFFCURVE",
"559 600 OFFCURVE",
"517 694 CURVE",
"484 630 LINE",
"513 562 OFFCURVE",
"527 501 OFFCURVE",
"527 444 CURVE SMOOTH",
"527 236 OFFCURVE",
"392 83 OFFCURVE",
"123 -70 CURVE",
"148 -120 LINE"
);
}
);
width = 769;
}
);
unicode = 1B182;
},
{
glyphname = u1B183;
lastChange = "2021-03-01 15:19:27 +0000";
layers = (
{
layerId = "6F1FF838-4CD9-4710-9EED-9AFF82DAD6EB";
paths = (
{
closed = 1;
nodes = (
"428 406 OFFCURVE",
"539 658 OFFCURVE",
"544 1000 CURVE",
"466 998 LINE",
"463 681 OFFCURVE",
"353 452 OFFCURVE",
"122 251 CURVE",
"171 191 LINE"
);
},
{
closed = 1;
nodes = (
"436 89 LINE",
"498 150 LINE",
"354 443 LINE",
"297 374 LINE"
);
},
{
closed = 1;
nodes = (
"435 12 OFFCURVE",
"566 160 OFFCURVE",
"680 324 CURVE",
"616 370 LINE",
"505 210 OFFCURVE",
"379 65 OFFCURVE",
"234 -60 CURVE",
"283 -120 LINE"
);
}
);
width = 800;
},
{
associatedMasterId = "6F1FF838-4CD9-4710-9EED-9AFF82DAD6EB";
background = {
paths = (
{
closed = 1;
nodes = (
"278 -120 LINE",
"418 3 OFFCURVE",
"578 201 OFFCURVE",
"653 340 CURVE",
"588 376 LINE",
"510 231 OFFCURVE",
"355 42 OFFCURVE",
"226 -67 CURVE"
);
},
{
closed = 1;
nodes = (
"132 119 LINE",
"366 309 OFFCURVE",
"522 547 OFFCURVE",
"576 993 CURVE",
"505 1000 LINE",
"447 581 OFFCURVE",
"293 348 OFFCURVE",
"85 172 CURVE"
);
},
{
closed = 1;
nodes = (
"321 396 LINE",
"399 70 LINE",
"471 88 LINE",
"373 501 LINE"
);
},
{
closed = 1;
nodes = (
"278 -120 LINE",
"418 3 OFFCURVE",
"578 201 OFFCURVE",
"653 340 CURVE",
"588 376 LINE",
"510 231 OFFCURVE",
"355 42 OFFCURVE",
"226 -67 CURVE"
);
},
{
closed = 1;
nodes = (
"132 119 LINE",
"366 309 OFFCURVE",
"522 547 OFFCURVE",
"576 993 CURVE",
"505 1000 LINE",
"447 581 OFFCURVE",
"293 348 OFFCURVE",
"85 172 CURVE"
);
},
{
closed = 1;
nodes = (
"321 396 LINE",
"399 70 LINE",
"471 88 LINE",
"373 501 LINE"
);
}
);
};
layerId = "09D633AD-C8D6-425A-B83C-ED978D599893";
name = "Mar 3 20, 15:26";
paths = (
{
closed = 0;
nodes = (
"557 1045 LINE",
"551 886 OFFCURVE",
"514 745 OFFCURVE",
"445 617 CURVE SMOOTH",
"363 467 OFFCURVE",
"235 335 OFFCURVE",
"56 214 CURVE SMOOTH"
);
},
{
closed = 0;
nodes = (
"156 -113 LINE",
"242 -54 OFFCURVE",
"322 10 OFFCURVE",
"399 83 CURVE SMOOTH",
"476 156 OFFCURVE",
"550 237 OFFCURVE",
"624 329 CURVE SMOOTH"
);
}
);
width = 740;
},
{
layerId = "43631C01-6FFC-4BF5-B35A-DC7F74885E25";
paths = (
{
closed = 1;
nodes = (
"478 391 OFFCURVE",
"622 651 OFFCURVE",
"648 992 CURVE",
"526 1000 LINE",
"500 691 OFFCURVE",
"372 469 OFFCURVE",
"120 282 CURVE",
"189 185 LINE"
);
},
{
closed = 1;
nodes = (
"444 86 LINE",
"540 176 LINE",
"397 463 LINE",
"309 357 LINE"
);
},
{
closed = 1;
nodes = (
"455 3 OFFCURVE",
"615 161 OFFCURVE",
"730 307 CURVE",
"635 382 LINE",
"515 233 OFFCURVE",
"363 82 OFFCURVE",
"228 -24 CURVE",
"298 -120 LINE"
);
}
);
width = 850;
},
{
associatedMasterId = "43631C01-6FFC-4BF5-B35A-DC7F74885E25";
background = {
paths = (
{
closed = 1;
nodes = (
"278 -120 LINE",
"418 3 OFFCURVE",
"578 201 OFFCURVE",
"653 340 CURVE",
"588 376 LINE",
"510 231 OFFCURVE",
"355 42 OFFCURVE",
"226 -67 CURVE"
);
},
{
closed = 1;
nodes = (
"132 119 LINE",
"366 309 OFFCURVE",
"522 547 OFFCURVE",
"576 993 CURVE",
"505 1000 LINE",
"447 581 OFFCURVE",
"293 348 OFFCURVE",
"85 172 CURVE"
);
},
{
closed = 1;
nodes = (
"321 396 LINE",
"399 70 LINE",
"471 88 LINE",
"373 501 LINE"
);
},
{
closed = 1;
nodes = (
"278 -120 LINE",
"418 3 OFFCURVE",
"578 201 OFFCURVE",
"653 340 CURVE",
"588 376 LINE",
"510 231 OFFCURVE",
"355 42 OFFCURVE",
"226 -67 CURVE"
);
},
{
closed = 1;
nodes = (
"132 119 LINE",
"366 309 OFFCURVE",
"522 547 OFFCURVE",
"576 993 CURVE",
"505 1000 LINE",
"447 581 OFFCURVE",
"293 348 OFFCURVE",
"85 172 CURVE"
);
},
{
closed = 1;
nodes = (
"321 396 LINE",
"399 70 LINE",
"471 88 LINE",
"373 501 LINE"
);
}
);
};
layerId = "E273D796-B236-4E41-B4FE-7897FF02211B";
name = "Mar 3 20, 15:26";
paths = (
{
closed = 0;
nodes = (
"557 1045 LINE",
"551 886 OFFCURVE",
"514 745 OFFCURVE",
"445 617 CURVE SMOOTH",
"363 467 OFFCURVE",
"235 335 OFFCURVE",
"56 214 CURVE SMOOTH"
);
},
{
closed = 0;
nodes = (
"156 -113 LINE",
"242 -54 OFFCURVE",
"322 10 OFFCURVE",
"399 83 CURVE SMOOTH",
"476 156 OFFCURVE",
"550 237 OFFCURVE",
"624 329 CURVE SMOOTH"
);
}
);
width = 740;
},
{
background = {
paths = (
{
closed = 1;
nodes = (
"397 412 OFFCURVE",
"488 658 OFFCURVE",
"480 1000 CURVE",
"428 998 LINE",
"439 676 OFFCURVE",
"341 441 OFFCURVE",
"124 232 CURVE",
"160 192 LINE"
);
},
{
closed = 1;
nodes = (
"423 18 OFFCURVE",
"535 157 OFFCURVE",
"649 335 CURVE",
"603 364 LINE",
"498 195 OFFCURVE",
"390 58 OFFCURVE",
"239 -79 CURVE",
"274 -120 LINE"
);
},
{
closed = 1;
nodes = (
"431 81 LINE",
"471 127 LINE",
"325 424 LINE",
"288 378 LINE"
);
}
);
};
layerId = "7B7A33B1-C38B-4BF8-ACF4-708FF5807549";
paths = (
{
closed = 1;
nodes = (
"397 412 OFFCURVE",
"488 658 OFFCURVE",
"480 1000 CURVE",
"428 998 LINE",
"439 676 OFFCURVE",
"341 441 OFFCURVE",
"124 232 CURVE",
"160 192 LINE"
);
},
{
closed = 1;
nodes = (
"431 81 LINE",
"471 127 LINE",
"325 424 LINE",
"288 378 LINE"
);
},
{
closed = 1;
nodes = (
"423 18 OFFCURVE",
"535 157 OFFCURVE",
"649 335 CURVE",
"603 364 LINE",
"498 195 OFFCURVE",
"390 58 OFFCURVE",
"239 -79 CURVE",
"274 -120 LINE"
);
}
);
width = 769;
}
);
unicode = 1B183;
},
{
glyphname = u1B184;
lastChange = "2021-03-01 15:19:27 +0000";
layers = (
{
layerId = "6F1FF838-4CD9-4710-9EED-9AFF82DAD6EB";
paths = (
{
closed = 1;
nodes = (
"408 515 OFFCURVE",
"577 715 OFFCURVE",
"680 973 CURVE",
"605 1000 LINE",
"514 767 OFFCURVE",
"352 573 OFFCURVE",
"120 434 CURVE",
"157 369 LINE"
);
},
{
closed = 1;
nodes = (
"273 -120 LINE",
"473 -14 OFFCURVE",
"575 165 OFFCURVE",
"575 332 CURVE SMOOTH",
"575 448 OFFCURVE",
"540 567 OFFCURVE",
"467 681 CURVE",
"402 625 LINE",
"465 529 OFFCURVE",
"495 428 OFFCURVE",
"495 331 CURVE SMOOTH",
"495 191 OFFCURVE",
"407 45 OFFCURVE",
"236 -53 CURVE"
);
},
{
closed = 1;
nodes = (
"329 188 OFFCURVE",
"351 216 OFFCURVE",
"351 247 CURVE SMOOTH",
"351 280 OFFCURVE",
"329 307 OFFCURVE",
"296 307 CURVE SMOOTH",
"266 307 OFFCURVE",
"241 280 OFFCURVE",
"241 247 CURVE SMOOTH",
"241 216 OFFCURVE",
"266 188 OFFCURVE",
"296 188 CURVE SMOOTH"
);
}
);
width = 800;
},
{
associatedMasterId = "6F1FF838-4CD9-4710-9EED-9AFF82DAD6EB";
layerId = "1C2A7654-4CB7-4458-A7F8-348B1AC586E4";
name = "Mar 3 20, 15:39";
paths = (
{
closed = 0;
nodes = (
"408 727 LINE",
"501 604 OFFCURVE",
"548 467 OFFCURVE",
"548 332 CURVE SMOOTH",
"548 153 OFFCURVE",
"465 -23 OFFCURVE",
"297 -162 CURVE SMOOTH"
);
},
{
closed = 0;
nodes = (
"544 1059 LINE",
"519 927 OFFCURVE",
"476 792 OFFCURVE",
"417 667 CURVE SMOOTH",
"345 514 OFFCURVE",
"249 376 OFFCURVE",
"129 273 CURVE"
);
}
);
width = 740;
},
{
layerId = "43631C01-6FFC-4BF5-B35A-DC7F74885E25";
paths = (
{
closed = 1;
nodes = (
"405 513 OFFCURVE",
"610 711 OFFCURVE",
"727 940 CURVE",
"617 1000 LINE",
"499 785 OFFCURVE",
"321 614 OFFCURVE",
"120 492 CURVE",
"179 387 LINE"
);
},
{
closed = 1;
nodes = (
"377 -120 LINE",
"578 3 OFFCURVE",
"661 167 OFFCURVE",
"661 328 CURVE SMOOTH",
"661 458 OFFCURVE",
"622 597 OFFCURVE",
"527 732 CURVE",
"427 649 LINE",
"502 534 OFFCURVE",
"535 427 OFFCURVE",
"535 330 CURVE SMOOTH",
"535 208 OFFCURVE",
"472 93 OFFCURVE",
"311 -18 CURVE"
);
},
{
closed = 1;
nodes = (
"391 199 OFFCURVE",
"425 236 OFFCURVE",
"425 285 CURVE SMOOTH",
"425 335 OFFCURVE",
"391 372 OFFCURVE",
"344 372 CURVE SMOOTH",
"298 372 OFFCURVE",
"263 333 OFFCURVE",
"263 285 CURVE SMOOTH",
"263 238 OFFCURVE",
"299 199 OFFCURVE",
"344 199 CURVE SMOOTH"
);
}
);
width = 850;
},
{
associatedMasterId = "43631C01-6FFC-4BF5-B35A-DC7F74885E25";
layerId = "294060BF-3CA9-488E-900B-F37AB303AD3D";
name = "Mar 3 20, 15:39";
paths = (
{
closed = 0;
nodes = (
"408 727 LINE",
"501 604 OFFCURVE",
"548 467 OFFCURVE",
"548 332 CURVE SMOOTH",
"548 153 OFFCURVE",
"465 -23 OFFCURVE",
"297 -162 CURVE SMOOTH"
);
},
{
closed = 0;
nodes = (
"544 1059 LINE",
"519 927 OFFCURVE",
"476 792 OFFCURVE",
"417 667 CURVE SMOOTH",
"345 514 OFFCURVE",
"249 376 OFFCURVE",
"129 273 CURVE"
);
}
);
width = 740;
},
{
layerId = "7B7A33B1-C38B-4BF8-ACF4-708FF5807549";
paths = (
{
closed = 1;
nodes = (
"410 511 OFFCURVE",
"559 710 OFFCURVE",
"648 985 CURVE",
"598 1000 LINE",
"523 755 OFFCURVE",
"371 556 OFFCURVE",
"120 398 CURVE",
"147 354 LINE"
);
},
{
closed = 1;
nodes = (
"209 -120 LINE",
"409 -31 OFFCURVE",
"523 135 OFFCURVE",
"523 309 CURVE SMOOTH",
"523 418 OFFCURVE",
"493 528 OFFCURVE",
"439 631 CURVE",
"396 590 LINE",
"444 505 OFFCURVE",
"469 407 OFFCURVE",
"469 310 CURVE SMOOTH",
"469 156 OFFCURVE",
"364 14 OFFCURVE",
"184 -70 CURVE"
);
},
{
closed = 1;
nodes = (
"291 181 OFFCURVE",
"305 203 OFFCURVE",
"305 223 CURVE SMOOTH",
"305 246 OFFCURVE",
"291 267 OFFCURVE",
"266 267 CURVE SMOOTH",
"245 267 OFFCURVE",
"227 248 OFFCURVE",
"227 223 CURVE SMOOTH",
"227 202 OFFCURVE",
"245 181 OFFCURVE",
"266 181 CURVE SMOOTH"
);
}
);
width = 769;
}
);
unicode = 1B184;
},
{
glyphname = u1B185;
lastChange = "2021-03-01 15:19:27 +0000";
layers = (
{
layerId = "6F1FF838-4CD9-4710-9EED-9AFF82DAD6EB";
paths = (
{
closed = 1;
nodes = (
"361 474 OFFCURVE",
"441 668 OFFCURVE",
"454 998 CURVE",
"375 1000 LINE",
"356 678 OFFCURVE",
"293 528 OFFCURVE",
"111 356 CURVE",
"161 301 LINE"
);
},
{
closed = 1;
nodes = (
"454 559 OFFCURVE",
"540 456 OFFCURVE",
"624 338 CURVE",
"692 383 LINE",
"596 518 OFFCURVE",
"509 612 OFFCURVE",
"389 723 CURVE",
"353 651 LINE"
);
},
{
closed = 1;
nodes = (
"451 35 OFFCURVE",
"460 225 OFFCURVE",
"441 386 CURVE",
"361 375 LINE",
"378 223 OFFCURVE",
"371 45 OFFCURVE",
"336 -104 CURVE",
"415 -120 LINE"
);
}
);
width = 800;
},
{
associatedMasterId = "6F1FF838-4CD9-4710-9EED-9AFF82DAD6EB";
layerId = "A8AD81AB-32A7-4876-AF36-7E24220AFF38";
name = "Mar 3 20, 16:01";
paths = (
{
closed = 0;
nodes = (
"390 1032 LINE",
"389 857 OFFCURVE",
"371 722 OFFCURVE",
"329 609 CURVE SMOOTH",
"280 479 OFFCURVE",
"199 378 OFFCURVE",
"74 282 CURVE SMOOTH"
);
},
{
closed = 0;
nodes = (
"319 709 LINE",
"381 652 OFFCURVE",
"439 592 OFFCURVE",
"494 527 CURVE SMOOTH",
"550 459 OFFCURVE",
"604 386 OFFCURVE",
"658 304 CURVE SMOOTH"
);
},
{
closed = 0;
nodes = (
"365 410 LINE",
"378 334 OFFCURVE",
"384 257 OFFCURVE",
"384 180 CURVE SMOOTH",
"384 67 OFFCURVE",
"370 -43 OFFCURVE",
"344 -136 CURVE SMOOTH"
);
}
);
width = 740;
},
{
background = {
paths = (
{
closed = 1;
nodes = (
"402 486 OFFCURVE",
"472 692 OFFCURVE",
"486 997 CURVE",
"365 1000 LINE",
"350 726 OFFCURVE",
"298 560 OFFCURVE",
"100 381 CURVE",
"180 295 LINE"
);
},
{
closed = 1;
nodes = (
"497 38 OFFCURVE",
"506 244 OFFCURVE",
"484 408 CURVE",
"363 391 LINE",
"382 230 OFFCURVE",
"376 55 OFFCURVE",
"340 -96 CURVE",
"459 -121 LINE"
);
},
{
closed = 1;
nodes = (
"456 562 OFFCURVE",
"547 457 OFFCURVE",
"645 315 CURVE",
"748 384 LINE",
"643 533 OFFCURVE",
"548 637 OFFCURVE",
"411 761 CURVE",
"356 652 LINE"
);
}
);
};
layerId = "43631C01-6FFC-4BF5-B35A-DC7F74885E25";
paths = (
{
closed = 1;
nodes = (
"402 486 OFFCURVE",
"472 692 OFFCURVE",
"486 996 CURVE",
"365 1000 LINE",
"350 726 OFFCURVE",
"298 560 OFFCURVE",
"100 381 CURVE",
"179 296 LINE"
);
},
{
closed = 1;
nodes = (
"457 562 OFFCURVE",
"547 457 OFFCURVE",
"645 315 CURVE",
"748 384 LINE",
"643 533 OFFCURVE",
"548 637 OFFCURVE",
"411 761 CURVE",
"357 652 LINE"
);
},
{
closed = 1;
nodes = (
"497 38 OFFCURVE",
"506 244 OFFCURVE",
"484 408 CURVE",
"363 391 LINE",
"382 230 OFFCURVE",
"376 55 OFFCURVE",
"340 -96 CURVE",
"459 -121 LINE"
);
}
);
width = 850;
},
{
associatedMasterId = "43631C01-6FFC-4BF5-B35A-DC7F74885E25";
layerId = "A3060704-255B-410B-920C-A55D0B689881";
name = "Mar 3 20, 16:01";
paths = (
{
closed = 0;
nodes = (
"390 1032 LINE",
"389 857 OFFCURVE",
"371 722 OFFCURVE",
"329 609 CURVE SMOOTH",
"280 479 OFFCURVE",
"199 378 OFFCURVE",
"74 282 CURVE SMOOTH"
);
},
{
closed = 0;
nodes = (
"319 709 LINE",
"381 652 OFFCURVE",
"439 592 OFFCURVE",
"494 527 CURVE SMOOTH",
"550 459 OFFCURVE",
"604 386 OFFCURVE",
"658 304 CURVE SMOOTH"
);
},
{
closed = 0;
nodes = (
"365 410 LINE",
"378 334 OFFCURVE",
"384 257 OFFCURVE",
"384 180 CURVE SMOOTH",
"384 67 OFFCURVE",
"370 -43 OFFCURVE",
"344 -136 CURVE SMOOTH"
);
}
);
width = 740;
},
{
background = {
paths = (
{
closed = 1;
nodes = (
"337 473 OFFCURVE",
"415 630 OFFCURVE",
"435 998 CURVE",
"381 1000 LINE",
"361 648 OFFCURVE",
"290 508 OFFCURVE",
"118 340 CURVE",
"154 300 LINE"
);
},
{
closed = 1;
nodes = (
"422 33 OFFCURVE",
"431 212 OFFCURVE",
"414 371 CURVE",
"360 365 LINE",
"376 219 OFFCURVE",
"368 39 OFFCURVE",
"334 -109 CURVE",
"388 -119 LINE"
);
},
{
closed = 1;
nodes = (
"455 556 OFFCURVE",
"538 454 OFFCURVE",
"613 351 CURVE",
"657 382 LINE",
"567 509 OFFCURVE",
"485 596 OFFCURVE",
"375 699 CURVE",
"353 649 LINE"
);
}
);
};
layerId = "7B7A33B1-C38B-4BF8-ACF4-708FF5807549";
paths = (
{
closed = 1;
nodes = (
"337 473 OFFCURVE",
"415 630 OFFCURVE",
"435 998 CURVE",
"381 1000 LINE",
"361 648 OFFCURVE",
"290 508 OFFCURVE",
"118 340 CURVE",
"154 300 LINE"
);
},
{
closed = 1;
nodes = (
"455 556 OFFCURVE",
"538 454 OFFCURVE",
"613 351 CURVE",
"657 382 LINE",
"567 509 OFFCURVE",
"485 596 OFFCURVE",
"375 699 CURVE",
"353 649 LINE"
);
},
{
closed = 1;
nodes = (
"422 33 OFFCURVE",
"431 212 OFFCURVE",
"414 371 CURVE",
"360 365 LINE",
"376 219 OFFCURVE",
"368 39 OFFCURVE",
"334 -109 CURVE",
"388 -119 LINE"
);
}
);
width = 769;
}
);
unicode = 1B185;
},
{
glyphname = u1B186;
lastChange = "2021-03-01 15:19:27 +0000";
layers = (
{
background = {
paths = (
{
closed = 1;
nodes = (
"519 446 OFFCURVE",
"635 688 OFFCURVE",
"664 995 CURVE",
"584 1000 LINE",
"560 741 OFFCURVE",
"469 535 OFFCURVE",
"289 362 CURVE",
"288 251 LINE"
);
},
{
closed = 1;
nodes = (
"279 39 OFFCURVE",
"318 191 OFFCURVE",
"318 347 CURVE SMOOTH",
"318 489 OFFCURVE",
"288 643 OFFCURVE",
"231 800 CURVE",
"154 767 LINE",
"207 618 OFFCURVE",
"235 477 OFFCURVE",
"235 346 CURVE SMOOTH",
"235 203 OFFCURVE",
"199 65 OFFCURVE",
"123 -84 CURVE",
"197 -120 LINE"
);
},
{
closed = 1;
nodes = (
"570 52 LINE",
"647 73 LINE",
"515 570 LINE",
"452 493 LINE"
);
}
);
};
guideLines = (
{
position = "{940, 1000}";
}
);
layerId = "6F1FF838-4CD9-4710-9EED-9AFF82DAD6EB";
paths = (
{
closed = 1;
nodes = (
"519 446 OFFCURVE",
"635 688 OFFCURVE",
"664 995 CURVE",
"584 1000 LINE",
"560 741 OFFCURVE",
"469 535 OFFCURVE",
"289 362 CURVE",
"288 251 LINE"
);
},
{
closed = 1;
nodes = (
"278 39 OFFCURVE",
"318 191 OFFCURVE",
"318 347 CURVE SMOOTH",
"318 488 OFFCURVE",
"288 640 OFFCURVE",
"230 796 CURVE",
"154 767 LINE",
"207 618 OFFCURVE",
"235 477 OFFCURVE",
"235 346 CURVE SMOOTH",
"235 203 OFFCURVE",
"200 65 OFFCURVE",
"123 -84 CURVE",
"197 -120 LINE"
);
},
{
closed = 1;
nodes = (
"570 52 LINE",
"647 73 LINE",
"515 570 LINE",
"452 493 LINE"
);
}
);
width = 800;
},
{
background = {
paths = (
{
closed = 1;
nodes = (
"524 442 OFFCURVE",
"649 680 OFFCURVE",
"680 991 CURVE",
"562 1000 LINE",
"538 761 OFFCURVE",
"451 566 OFFCURVE",
"276 406 CURVE",
"276 251 LINE"
);
},
{
closed = 1;
nodes = (
"309 48 OFFCURVE",
"341 211 OFFCURVE",
"336 372 CURVE SMOOTH",
"331 516 OFFCURVE",
"296 662 OFFCURVE",
"229 819 CURVE",
"120 765 LINE",
"180 621 OFFCURVE",
"210 493 OFFCURVE",
"215 365 CURVE SMOOTH",
"220 224 OFFCURVE",
"190 83 OFFCURVE",
"120 -70 CURVE",
"231 -120 LINE"
);
},
{
closed = 1;
nodes = (
"571 43 LINE",
"684 77 LINE",
"538 624 LINE",
"446 511 LINE"
);
}
);
};
guideLines = (
{
position = "{940, 1000}";
},
{
angle = -75.0283;
locked = 1;
position = "{436, 501}";
}
);
layerId = "43631C01-6FFC-4BF5-B35A-DC7F74885E25";
paths = (
{
closed = 1;
nodes = (
"524 442 OFFCURVE",
"649 680 OFFCURVE",
"680 991 CURVE",
"562 1000 LINE",
"538 761 OFFCURVE",
"451 566 OFFCURVE",
"276 406 CURVE",
"276 251 LINE"
);
},
{
closed = 1;
nodes = (
"309 48 OFFCURVE",
"341 211 OFFCURVE",
"336 372 CURVE SMOOTH",
"331 514 OFFCURVE",
"297 659 OFFCURVE",
"231 814 CURVE",
"120 765 LINE",
"180 621 OFFCURVE",
"210 493 OFFCURVE",
"215 365 CURVE SMOOTH",
"220 224 OFFCURVE",
"190 83 OFFCURVE",
"120 -70 CURVE",
"231 -120 LINE"
);
},
{
closed = 1;
nodes = (
"571 43 LINE",
"684 77 LINE",
"538 624 LINE",
"446 511 LINE"
);
}
);
width = 850;
},
{
background = {
paths = (
{
closed = 1;
nodes = (
"508 437 OFFCURVE",
"624 686 OFFCURVE",
"653 997 CURVE",
"598 1000 LINE",
"572 721 OFFCURVE",
"472 502 OFFCURVE",
"277 316 CURVE",
"276 235 LINE"
);
},
{
closed = 1;
nodes = (
"260 33 OFFCURVE",
"304 179 OFFCURVE",
"307 331 CURVE SMOOTH",
"310 472 OFFCURVE",
"283 631 OFFCURVE",
"232 788 CURVE",
"176 768 LINE",
"228 616 OFFCURVE",
"251 467 OFFCURVE",
"248 334 CURVE SMOOTH",
"244 191 OFFCURVE",
"205 56 OFFCURVE",
"126 -90 CURVE",
"176 -120 LINE"
);
},
{
closed = 1;
nodes = (
"569 58 LINE",
"624 71 LINE",
"501 536 LINE",
"456 482 LINE"
);
}
);
};
layerId = "7B7A33B1-C38B-4BF8-ACF4-708FF5807549";
paths = (
{
closed = 1;
nodes = (
"508 437 OFFCURVE",
"624 686 OFFCURVE",
"653 997 CURVE",
"598 1000 LINE",
"572 721 OFFCURVE",
"472 502 OFFCURVE",
"277 316 CURVE",
"276 235 LINE"
);
},
{
closed = 1;
nodes = (
"260 33 OFFCURVE",
"304 179 OFFCURVE",
"307 331 CURVE SMOOTH",
"310 472 OFFCURVE",
"283 631 OFFCURVE",
"232 788 CURVE",
"176 768 LINE",
"228 616 OFFCURVE",
"251 467 OFFCURVE",
"248 334 CURVE SMOOTH",
"244 191 OFFCURVE",
"205 56 OFFCURVE",
"126 -90 CURVE",
"176 -120 LINE"
);
},
{
closed = 1;
nodes = (
"569 58 LINE",
"624 71 LINE",
"501 536 LINE",
"456 482 LINE"
);
}
);
width = 769;
}
);
unicode = 1B186;
},
{
glyphname = u1B187;
lastChange = "2021-03-01 15:19:27 +0000";
layers = (
{
guideLines = (
{
position = "{740, 1000}";
}
);
layerId = "6F1FF838-4CD9-4710-9EED-9AFF82DAD6EB";
paths = (
{
closed = 1;
nodes = (
"446 480 OFFCURVE",
"598 693 OFFCURVE",
"625 996 CURVE",
"548 1000 LINE",
"522 721 OFFCURVE",
"385 543 OFFCURVE",
"120 386 CURVE",
"158 318 LINE"
);
},
{
closed = 1;
nodes = (
"561 286 OFFCURVE",
"686 435 CURVE",
"625 485 LINE",
"514 348 OFFCURVE",
"345 208 OFFCURVE",
"160 118 CURVE",
"192 48 LINE",
"405 149 OFFCURVE"
);
},
{
closed = 1;
nodes = (
"312 577 OFFCURVE",
"398 361 OFFCURVE",
"398 134 CURVE SMOOTH",
"398 57 OFFCURVE",
"386 -22 OFFCURVE",
"367 -103 CURVE",
"445 -120 LINE",
"466 -31 OFFCURVE",
"477 55 OFFCURVE",
"477 138 CURVE SMOOTH",
"477 380 OFFCURVE",
"389 608 OFFCURVE",
"235 841 CURVE",
"170 800 LINE"
);
}
);
width = 800;
},
{
background = {
paths = (
{
closed = 1;
nodes = (
"319 568 OFFCURVE",
"398 353 OFFCURVE",
"398 130 CURVE SMOOTH",
"398 58 OFFCURVE",
"389 -17 OFFCURVE",
"367 -95 CURVE",
"486 -120 LINE",
"507 -31 OFFCURVE",
"517 52 OFFCURVE",
"517 133 CURVE SMOOTH",
"517 377 OFFCURVE",
"436 616 OFFCURVE",
"271 855 CURVE",
"173 789 LINE"
);
},
{
closed = 1;
nodes = (
"483 468 OFFCURVE",
"622 680 OFFCURVE",
"639 995 CURVE",
"524 1000 LINE",
"505 717 OFFCURVE",
"382 556 OFFCURVE",
"120 380 CURVE",
"183 282 LINE"
);
},
{
closed = 1;
nodes = (
"613 296 OFFCURVE",
"733 446 CURVE",
"644 521 LINE",
"527 371 OFFCURVE",
"344 222 OFFCURVE",
"174 124 CURVE",
"230 22 LINE",
"442 142 OFFCURVE"
);
}
);
};
guideLines = (
{
position = "{740, 1000}";
}
);
layerId = "43631C01-6FFC-4BF5-B35A-DC7F74885E25";
paths = (
{
closed = 1;
nodes = (
"483 468 OFFCURVE",
"622 680 OFFCURVE",
"639 995 CURVE",
"524 1000 LINE",
"505 717 OFFCURVE",
"382 556 OFFCURVE",
"120 380 CURVE",
"183 282 LINE"
);
},
{
closed = 1;
nodes = (
"613 296 OFFCURVE",
"733 446 CURVE",
"644 521 LINE",
"527 371 OFFCURVE",
"344 222 OFFCURVE",
"174 124 CURVE",
"230 22 LINE",
"442 142 OFFCURVE"
);
},
{
closed = 1;
nodes = (
"319 568 OFFCURVE",
"398 353 OFFCURVE",
"398 130 CURVE SMOOTH",
"398 58 OFFCURVE",
"389 -17 OFFCURVE",
"367 -95 CURVE",
"486 -120 LINE",
"507 -31 OFFCURVE",
"517 52 OFFCURVE",
"517 133 CURVE SMOOTH",
"517 377 OFFCURVE",
"436 616 OFFCURVE",
"271 855 CURVE",
"173 789 LINE"
);
}
);
width = 850;
},
{
background = {
paths = (
{
closed = 1;
nodes = (
"312 580 OFFCURVE",
"396 367 OFFCURVE",
"396 137 CURVE SMOOTH",
"396 58 OFFCURVE",
"386 -23 OFFCURVE",
"364 -107 CURVE",
"419 -120 LINE",
"441 -31 OFFCURVE",
"452 55 OFFCURVE",
"452 139 CURVE SMOOTH",
"452 378 OFFCURVE",
"365 601 OFFCURVE",
"215 837 CURVE",
"167 806 LINE"
);
},
{
closed = 1;
nodes = (
"425 484 OFFCURVE",
"585 700 OFFCURVE",
"617 994 CURVE",
"563 1000 LINE",
"533 724 OFFCURVE",
"387 535 OFFCURVE",
"120 390 CURVE",
"146 341 LINE"
);
},
{
closed = 1;
nodes = (
"528 279 OFFCURVE",
"655 426 CURVE",
"613 464 LINE",
"506 335 OFFCURVE",
"344 201 OFFCURVE",
"148 116 CURVE",
"170 65 LINE",
"382 154 OFFCURVE"
);
}
);
};
layerId = "7B7A33B1-C38B-4BF8-ACF4-708FF5807549";
paths = (
{
closed = 1;
nodes = (
"425 484 OFFCURVE",
"585 700 OFFCURVE",
"617 994 CURVE",
"563 1000 LINE",
"533 724 OFFCURVE",
"387 535 OFFCURVE",
"120 390 CURVE",
"146 341 LINE"
);
},
{
closed = 1;
nodes = (
"528 279 OFFCURVE",
"655 426 CURVE",
"613 464 LINE",
"506 335 OFFCURVE",
"344 201 OFFCURVE",
"148 116 CURVE",
"170 65 LINE",
"382 154 OFFCURVE"
);
},
{
closed = 1;
nodes = (
"312 580 OFFCURVE",
"396 367 OFFCURVE",
"396 137 CURVE SMOOTH",
"396 58 OFFCURVE",
"386 -23 OFFCURVE",
"364 -107 CURVE",
"419 -120 LINE",
"441 -31 OFFCURVE",
"452 55 OFFCURVE",
"452 139 CURVE SMOOTH",
"452 378 OFFCURVE",
"365 601 OFFCURVE",
"215 837 CURVE",
"167 806 LINE"
);
}
);
width = 769;
}
);
unicode = 1B187;
},
{
glyphname = u1B188;
lastChange = "2021-03-01 15:19:27 +0000";
layers = (
{
background = {
paths = (
{
closed = 1;
nodes = (
"534 -117 LINE",
"673 207 OFFCURVE",
"664 606 OFFCURVE",
"622 1000 CURVE",
"541 987 LINE",
"583 625 OFFCURVE",
"598 253 OFFCURVE",
"473 -46 CURVE",
"522 -55 LINE",
"285 509 LINE",
"210 475 LINE",
"463 -120 LINE"
);
},
{
closed = 1;
nodes = (
"214 -28 OFFCURVE",
"236 0 OFFCURVE",
"236 34 CURVE SMOOTH",
"236 70 OFFCURVE",
"214 97 OFFCURVE",
"178 97 CURVE SMOOTH",
"145 97 OFFCURVE",
"120 70 OFFCURVE",
"120 34 CURVE SMOOTH",
"120 0 OFFCURVE",
"145 -28 OFFCURVE",
"178 -28 CURVE SMOOTH"
);
}
);
};
layerId = "6F1FF838-4CD9-4710-9EED-9AFF82DAD6EB";
paths = (
{
closed = 1;
nodes = (
"534 -117 LINE",
"673 207 OFFCURVE",
"664 606 OFFCURVE",
"622 1000 CURVE",
"541 987 LINE",
"583 625 OFFCURVE",
"598 253 OFFCURVE",
"473 -46 CURVE",
"522 -55 LINE",
"285 509 LINE",
"210 475 LINE",
"463 -120 LINE"
);
},
{
closed = 1;
nodes = (
"214 -28 OFFCURVE",
"236 0 OFFCURVE",
"236 34 CURVE SMOOTH",
"236 70 OFFCURVE",
"214 97 OFFCURVE",
"178 97 CURVE SMOOTH",
"145 97 OFFCURVE",
"120 70 OFFCURVE",
"120 34 CURVE SMOOTH",
"120 0 OFFCURVE",
"145 -28 OFFCURVE",
"178 -28 CURVE SMOOTH"
);
}
);
width = 800;
},
{
associatedMasterId = "6F1FF838-4CD9-4710-9EED-9AFF82DAD6EB";
layerId = "54EA2734-7603-4FB5-9759-C496957485AA";
name = "Mar 3 20, 17:47";
paths = (
{
closed = 0;
nodes = (
"174 543 LINE",
"408 -100 LINE",
"522 116 OFFCURVE",
"584 450 OFFCURVE",
"584 827 CURVE SMOOTH",
"584 901 OFFCURVE",
"582 976 OFFCURVE",
"577 1053 CURVE SMOOTH"
);
}
);
width = 740;
},
{
background = {
paths = (
{
closed = 1;
nodes = (
"574 -120 LINE",
"709 174 OFFCURVE",
"708 606 OFFCURVE",
"657 1000 CURVE",
"534 986 LINE",
"576 638 OFFCURVE",
"592 234 OFFCURVE",
"480 -8 CURVE",
"564 -12 LINE",
"333 533 LINE",
"215 486 LINE",
"470 -116 LINE"
);
},
{
closed = 1;
nodes = (
"246 -40 OFFCURVE",
"280 -4 OFFCURVE",
"280 44 CURVE SMOOTH",
"280 93 OFFCURVE",
"247 129 OFFCURVE",
"200 129 CURVE SMOOTH",
"155 129 OFFCURVE",
"120 92 OFFCURVE",
"120 44 CURVE SMOOTH",
"120 -3 OFFCURVE",
"156 -40 OFFCURVE",
"200 -40 CURVE SMOOTH"
);
}
);
};
layerId = "43631C01-6FFC-4BF5-B35A-DC7F74885E25";
paths = (
{
closed = 1;
nodes = (
"574 -120 LINE",
"709 174 OFFCURVE",
"708 606 OFFCURVE",
"657 1000 CURVE",
"534 986 LINE",
"573 631 OFFCURVE",
"589 219 OFFCURVE",
"480 -28 CURVE",
"564 -12 LINE",
"333 533 LINE",
"215 486 LINE",
"470 -116 LINE"
);
},
{
closed = 1;
nodes = (
"246 -40 OFFCURVE",
"280 -4 OFFCURVE",
"280 44 CURVE SMOOTH",
"280 93 OFFCURVE",
"247 129 OFFCURVE",
"200 129 CURVE SMOOTH",
"155 129 OFFCURVE",
"120 92 OFFCURVE",
"120 44 CURVE SMOOTH",
"120 -3 OFFCURVE",
"156 -40 OFFCURVE",
"200 -40 CURVE SMOOTH"
);
}
);
width = 850;
},
{
associatedMasterId = "43631C01-6FFC-4BF5-B35A-DC7F74885E25";
layerId = "C3043404-046F-4B64-837A-6677A967C3E2";
name = "Mar 3 20, 17:47";
paths = (
{
closed = 0;
nodes = (
"174 543 LINE",
"408 -100 LINE",
"522 116 OFFCURVE",
"584 450 OFFCURVE",
"584 827 CURVE SMOOTH",
"584 901 OFFCURVE",
"582 976 OFFCURVE",
"577 1053 CURVE SMOOTH"
);
}
);
width = 740;
},
{
layerId = "7B7A33B1-C38B-4BF8-ACF4-708FF5807549";
paths = (
{
closed = 1;
nodes = (
"493 -120 LINE",
"635 223 OFFCURVE",
"623 604 OFFCURVE",
"586 1000 CURVE",
"526 993 LINE",
"568 620 OFFCURVE",
"577 264 OFFCURVE",
"452 -70 CURVE",
"490 -79 LINE",
"249 497 LINE",
"195 475 LINE",
"449 -120 LINE"
);
},
{
closed = 1;
nodes = (
"198 -21 OFFCURVE",
"213 3 OFFCURVE",
"213 28 CURVE SMOOTH",
"213 56 OFFCURVE",
"197 77 OFFCURVE",
"168 77 CURVE SMOOTH",
"143 77 OFFCURVE",
"124 56 OFFCURVE",
"124 28 CURVE SMOOTH",
"124 2 OFFCURVE",
"142 -21 OFFCURVE",
"168 -21 CURVE SMOOTH"
);
}
);
width = 769;
}
);
unicode = 1B188;
},
{
glyphname = u1B189;
lastChange = "2021-03-01 15:19:27 +0000";
layers = (
{
layerId = "6F1FF838-4CD9-4710-9EED-9AFF82DAD6EB";
paths = (
{
closed = 1;
nodes = (
"452 523 OFFCURVE",
"584 727 OFFCURVE",
"631 988 CURVE",
"556 1000 LINE",
"511 761 OFFCURVE",
"391 583 OFFCURVE",
"129 435 CURVE",
"165 369 LINE"
);
},
{
closed = 1;
nodes = (
"526 319 OFFCURVE",
"667 474 CURVE",
"609 527 LINE",
"482 384 OFFCURVE",
"310 251 OFFCURVE",
"120 160 CURVE",
"152 91 LINE",
"355 188 OFFCURVE"
);
},
{
closed = 1;
nodes = (
"487 113 OFFCURVE",
"474 320 OFFCURVE",
"397 580 CURVE",
"328 528 LINE",
"394 301 OFFCURVE",
"405 110 OFFCURVE",
"317 -96 CURVE",
"391 -120 LINE"
);
}
);
width = 800;
},
{
layerId = "43631C01-6FFC-4BF5-B35A-DC7F74885E25";
paths = (
{
closed = 1;
nodes = (
"461 505 OFFCURVE",
"618 715 OFFCURVE",
"678 977 CURVE",
"561 1000 LINE",
"510 768 OFFCURVE",
"378 610 OFFCURVE",
"124 466 CURVE",
"176 366 LINE"
);
},
{
closed = 1;
nodes = (
"579 322 OFFCURVE",
"723 462 CURVE",
"640 545 LINE",
"505 407 OFFCURVE",
"317 284 OFFCURVE",
"120 197 CURVE",
"161 95 LINE",
"394 188 OFFCURVE"
);
},
{
closed = 1;
nodes = (
"529 125 OFFCURVE",
"512 345 OFFCURVE",
"430 623 CURVE",
"328 545 LINE",
"390 327 OFFCURVE",
"404 117 OFFCURVE",
"312 -77 CURVE",
"422 -120 LINE"
);
}
);
width = 850;
},
{
background = {
paths = (
{
closed = 1;
nodes = (
"445 524 OFFCURVE",
"563 735 OFFCURVE",
"602 995 CURVE",
"553 1000 LINE",
"512 757 OFFCURVE",
"399 562 OFFCURVE",
"132 416 CURVE",
"158 369 LINE"
);
},
{
closed = 1;
nodes = (
"492 312 OFFCURVE",
"632 482 CURVE",
"590 516 LINE",
"469 368 OFFCURVE",
"306 235 OFFCURVE",
"120 137 CURVE",
"145 89 LINE",
"329 183 OFFCURVE"
);
},
{
closed = 1;
nodes = (
"461 106 OFFCURVE",
"450 304 OFFCURVE",
"376 553 CURVE",
"328 517 LINE",
"395 288 OFFCURVE",
"406 111 OFFCURVE",
"320 -98 CURVE",
"372 -120 LINE"
);
}
);
};
layerId = "7B7A33B1-C38B-4BF8-ACF4-708FF5807549";
paths = (
{
closed = 1;
nodes = (
"445 524 OFFCURVE",
"563 735 OFFCURVE",
"602 995 CURVE",
"553 1000 LINE",
"512 757 OFFCURVE",
"399 562 OFFCURVE",
"132 416 CURVE",
"158 369 LINE"
);
},
{
closed = 1;
nodes = (
"492 312 OFFCURVE",
"632 482 CURVE",
"590 516 LINE",
"469 368 OFFCURVE",
"306 235 OFFCURVE",
"120 137 CURVE",
"145 89 LINE",
"329 183 OFFCURVE"
);
},
{
closed = 1;
nodes = (
"461 106 OFFCURVE",
"450 304 OFFCURVE",
"376 553 CURVE",
"328 517 LINE",
"395 288 OFFCURVE",
"406 111 OFFCURVE",
"320 -98 CURVE",
"372 -120 LINE"
);
}
);
width = 769;
}
);
unicode = 1B189;
},
{
glyphname = u1B18A;
lastChange = "2021-03-01 15:19:27 +0000";
layers = (
{
guideLines = (
{
position = "{740, 1000}";
}
);
layerId = "6F1FF838-4CD9-4710-9EED-9AFF82DAD6EB";
paths = (
{
closed = 1;
nodes = (
"449 521 OFFCURVE",
"603 718 OFFCURVE",
"676 980 CURVE",
"599 1000 LINE",
"532 764 OFFCURVE",
"387 577 OFFCURVE",
"138 441 CURVE",
"177 370 LINE"
);
},
{
closed = 1;
nodes = (
"203 140 LINE",
"367 231 OFFCURVE",
"510 339 OFFCURVE",
"624 461 CURVE",
"568 519 LINE",
"461 405 OFFCURVE",
"324 301 OFFCURVE",
"167 212 CURVE"
);
},
{
closed = 1;
nodes = (
"333 -37 OFFCURVE",
"489 62 OFFCURVE",
"637 194 CURVE",
"583 257 LINE",
"450 138 OFFCURVE",
"302 40 OFFCURVE",
"131 -46 CURVE",
"168 -120 LINE"
);
}
);
width = 800;
},
{
associatedMasterId = "6F1FF838-4CD9-4710-9EED-9AFF82DAD6EB";
guideLines = (
{
position = "{740, 1000}";
}
);
layerId = "DD313250-F017-457C-887B-1E4B333931AF";
name = "Mar 3 20, 23:46";
paths = (
{
closed = 0;
nodes = (
"576 1049 LINE",
"560 754 OFFCURVE",
"436 532 OFFCURVE",
"180 342 CURVE SMOOTH"
);
},
{
closed = 0;
nodes = (
"197 129 LINE",
"359 243 OFFCURVE",
"472 358 OFFCURVE",
"554 495 CURVE SMOOTH"
);
},
{
closed = 0;
nodes = (
"104 -120 LINE",
"310 -6 OFFCURVE",
"456 111 OFFCURVE",
"569 254 CURVE SMOOTH"
);
}
);
width = 740;
},
{
background = {
paths = (
{
closed = 1;
nodes = (
"456 532 OFFCURVE",
"614 715 OFFCURVE",
"699 966 CURVE",
"585 1000 LINE",
"514 792 OFFCURVE",
"371 624 OFFCURVE",
"151 489 CURVE",
"210 390 LINE"
);
},
{
closed = 1;
nodes = (
"373 -32 OFFCURVE",
"532 76 OFFCURVE",
"681 210 CURVE",
"603 301 LINE",
"459 175 OFFCURVE",
"309 70 OFFCURVE",
"145 -16 CURVE",
"199 -120 LINE"
);
},
{
closed = 1;
nodes = (
"220 140 LINE",
"403 243 OFFCURVE",
"552 361 OFFCURVE",
"675 499 CURVE",
"589 580 LINE",
"469 447 OFFCURVE",
"330 336 OFFCURVE",
"166 243 CURVE"
);
}
);
};
guideLines = (
{
position = "{740, 1000}";
}
);
layerId = "43631C01-6FFC-4BF5-B35A-DC7F74885E25";
paths = (
{
closed = 1;
nodes = (
"456 532 OFFCURVE",
"614 715 OFFCURVE",
"699 966 CURVE",
"585 1000 LINE",
"514 792 OFFCURVE",
"371 624 OFFCURVE",
"151 489 CURVE",
"210 390 LINE"
);
},
{
closed = 1;
nodes = (
"221 141 LINE",
"404 244 OFFCURVE",
"552 361 OFFCURVE",
"675 499 CURVE",
"588 579 LINE",
"468 446 OFFCURVE",
"330 336 OFFCURVE",
"166 243 CURVE"
);
},
{
closed = 1;
nodes = (
"373 -32 OFFCURVE",
"532 76 OFFCURVE",
"681 210 CURVE",
"603 301 LINE",
"459 175 OFFCURVE",
"310 70 OFFCURVE",
"146 -16 CURVE",
"199 -120 LINE"
);
}
);
width = 850;
},
{
associatedMasterId = "43631C01-6FFC-4BF5-B35A-DC7F74885E25";
guideLines = (
{
position = "{740, 1000}";
}
);
layerId = "FDDE4AC3-2249-4050-9A9F-E7DFFB099A5A";
name = "Mar 3 20, 23:46";
paths = (
{
closed = 0;
nodes = (
"576 1049 LINE",
"560 754 OFFCURVE",
"436 532 OFFCURVE",
"180 342 CURVE SMOOTH"
);
},
{
closed = 0;
nodes = (
"197 129 LINE",
"359 243 OFFCURVE",
"472 358 OFFCURVE",
"554 495 CURVE SMOOTH"
);
},
{
closed = 0;
nodes = (
"104 -120 LINE",
"310 -6 OFFCURVE",
"456 111 OFFCURVE",
"569 254 CURVE SMOOTH"
);
}
);
width = 740;
},
{
background = {
paths = (
{
closed = 1;
nodes = (
"442 517 OFFCURVE",
"591 722 OFFCURVE",
"658 988 CURVE",
"608 1000 LINE",
"543 747 OFFCURVE",
"397 559 OFFCURVE",
"130 411 CURVE",
"155 364 LINE"
);
},
{
closed = 1;
nodes = (
"308 -40 OFFCURVE",
"462 53 OFFCURVE",
"610 184 CURVE",
"573 227 LINE",
"443 113 OFFCURVE",
"296 18 OFFCURVE",
"124 -68 CURVE",
"149 -120 LINE"
);
},
{
closed = 1;
nodes = (
"192 142 LINE",
"345 225 OFFCURVE",
"484 327 OFFCURVE",
"592 439 CURVE",
"554 478 LINE",
"454 377 OFFCURVE",
"320 278 OFFCURVE",
"166 192 CURVE"
);
}
);
};
layerId = "7B7A33B1-C38B-4BF8-ACF4-708FF5807549";
paths = (
{
closed = 1;
nodes = (
"442 517 OFFCURVE",
"591 722 OFFCURVE",
"658 988 CURVE",
"608 1000 LINE",
"543 747 OFFCURVE",
"397 559 OFFCURVE",
"130 411 CURVE",
"155 364 LINE"
);
},
{
closed = 1;
nodes = (
"192 142 LINE",
"345 225 OFFCURVE",
"484 327 OFFCURVE",
"592 439 CURVE",
"554 478 LINE",
"454 377 OFFCURVE",
"320 278 OFFCURVE",
"166 192 CURVE"
);
},
{
closed = 1;
nodes = (
"308 -40 OFFCURVE",
"462 53 OFFCURVE",
"610 184 CURVE",
"573 227 LINE",
"443 113 OFFCURVE",
"296 18 OFFCURVE",
"124 -68 CURVE",
"149 -120 LINE"
);
}
);
width = 769;
}
);
unicode = 1B18A;
},
{
glyphname = u1B18B;
lastChange = "2021-03-01 15:19:27 +0000";
layers = (
{
background = {
paths = (
{
closed = 1;
nodes = (
"400 120 OFFCURVE",
"367 320 OFFCURVE",
"238 490 CURVE",
"239 439 LINE",
"346 563 OFFCURVE",
"400 748 OFFCURVE",
"402 999 CURVE",
"322 1000 LINE",
"321 764 OFFCURVE",
"267 588 OFFCURVE",
"158 465 CURVE",
"158 461 LINE",
"285 306 OFFCURVE",
"318 121 OFFCURVE",
"259 -104 CURVE",
"338 -120 LINE"
);
},
{
closed = 1;
nodes = (
"524 344 OFFCURVE",
"548 223 OFFCURVE",
"536 37 CURVE",
"615 33 LINE",
"629 223 OFFCURVE",
"600 354 OFFCURVE",
"516 489 CURVE",
"512 436 LINE",
"587 544 OFFCURVE",
"623 659 OFFCURVE",
"640 839 CURVE",
"562 845 LINE",
"550 685 OFFCURVE",
"515 576 OFFCURVE",
"438 465 CURVE",
"438 461 LINE"
);
}
);
};
layerId = "6F1FF838-4CD9-4710-9EED-9AFF82DAD6EB";
paths = (
{
closed = 1;
nodes = (
"400 120 OFFCURVE",
"367 320 OFFCURVE",
"238 490 CURVE",
"239 439 LINE",
"346 563 OFFCURVE",
"400 748 OFFCURVE",
"402 999 CURVE",
"322 1000 LINE",
"321 764 OFFCURVE",
"267 588 OFFCURVE",
"158 465 CURVE",
"158 461 LINE",
"285 306 OFFCURVE",
"318 121 OFFCURVE",
"259 -104 CURVE",
"338 -120 LINE"
);
},
{
closed = 1;
nodes = (
"524 344 OFFCURVE",
"548 223 OFFCURVE",
"536 37 CURVE",
"615 33 LINE",
"629 223 OFFCURVE",
"600 354 OFFCURVE",
"516 489 CURVE",
"512 436 LINE",
"587 544 OFFCURVE",
"623 659 OFFCURVE",
"640 839 CURVE",
"562 843 LINE",
"550 684 OFFCURVE",
"515 575 OFFCURVE",
"438 465 CURVE",
"438 461 LINE"
);
}
);
width = 800;
},
{
background = {
paths = (
{
closed = 1;
nodes = (
"441 122 OFFCURVE",
"406 314 OFFCURVE",
"258 509 CURVE",
"269 437 LINE",
"376 572 OFFCURVE",
"426 749 OFFCURVE",
"428 998 CURVE",
"303 1000 LINE",
"302 764 OFFCURVE",
"251 595 OFFCURVE",
"139 468 CURVE",
"139 458 LINE",
"276 310 OFFCURVE",
"315 115 OFFCURVE",
"253 -99 CURVE",
"375 -120 LINE"
);
},
{
closed = 1;
nodes = (
"561 322 OFFCURVE",
"585 202 OFFCURVE",
"564 28 CURVE",
"688 18 LINE",
"716 206 OFFCURVE",
"679 365 OFFCURVE",
"565 520 CURVE",
"574 425 LINE",
"648 527 OFFCURVE",
"698 662 OFFCURVE",
"706 848 CURVE",
"584 856 LINE",
"573 689 OFFCURVE",
"539 581 OFFCURVE",
"460 466 CURVE",
"460 459 LINE"
);
}
);
};
layerId = "43631C01-6FFC-4BF5-B35A-DC7F74885E25";
paths = (
{
closed = 1;
nodes = (
"441 122 OFFCURVE",
"406 314 OFFCURVE",
"258 509 CURVE",
"269 437 LINE",
"376 572 OFFCURVE",
"426 749 OFFCURVE",
"428 998 CURVE",
"303 1000 LINE",
"302 764 OFFCURVE",
"251 595 OFFCURVE",
"139 468 CURVE",
"139 458 LINE",
"276 310 OFFCURVE",
"315 115 OFFCURVE",
"253 -99 CURVE",
"375 -120 LINE"
);
},
{
closed = 1;
nodes = (
"561 322 OFFCURVE",
"585 202 OFFCURVE",
"564 28 CURVE",
"688 18 LINE",
"716 206 OFFCURVE",
"679 365 OFFCURVE",
"565 520 CURVE",
"574 425 LINE",
"648 527 OFFCURVE",
"698 662 OFFCURVE",
"706 848 CURVE",
"584 856 LINE",
"573 689 OFFCURVE",
"539 581 OFFCURVE",
"460 466 CURVE",
"460 459 LINE"
);
}
);
width = 850;
},
{
background = {
paths = (
{
closed = 1;
nodes = (
"373 119 OFFCURVE",
"339 324 OFFCURVE",
"226 478 CURVE",
"220 440 LINE",
"327 557 OFFCURVE",
"384 747 OFFCURVE",
"386 1000 CURVE",
"334 1000 LINE",
"333 764 OFFCURVE",
"277 585 OFFCURVE",
"170 464 CURVE",
"170 463 LINE",
"291 307 OFFCURVE",
"318 125 OFFCURVE",
"262 -107 CURVE",
"315 -120 LINE"
);
},
{
closed = 1;
nodes = (
"501 358 OFFCURVE",
"525 236 OFFCURVE",
"519 43 CURVE",
"569 42 LINE",
"575 242 OFFCURVE",
"548 359 OFFCURVE",
"472 487 CURVE",
"473 443 LINE",
"548 555 OFFCURVE",
"578 657 OFFCURVE",
"598 833 CURVE",
"548 838 LINE",
"536 683 OFFCURVE",
"500 573 OFFCURVE",
"424 464 CURVE",
"424 462 LINE"
);
}
);
};
layerId = "7B7A33B1-C38B-4BF8-ACF4-708FF5807549";
paths = (
{
closed = 1;
nodes = (
"374 119 OFFCURVE",
"340 324 OFFCURVE",
"227 478 CURVE",
"221 440 LINE",
"328 557 OFFCURVE",
"385 747 OFFCURVE",
"387 1000 CURVE",
"334 1000 LINE",
"333 764 OFFCURVE",
"277 585 OFFCURVE",
"170 464 CURVE",
"170 463 LINE",
"291 307 OFFCURVE",
"318 125 OFFCURVE",
"262 -107 CURVE",
"316 -120 LINE"
);
},
{
closed = 1;
nodes = (
"501 358 OFFCURVE",
"525 236 OFFCURVE",
"519 43 CURVE",
"571 42 LINE",
"577 242 OFFCURVE",
"550 359 OFFCURVE",
"474 487 CURVE",
"475 443 LINE",
"550 555 OFFCURVE",
"580 657 OFFCURVE",
"600 833 CURVE",
"548 838 LINE",
"536 683 OFFCURVE",
"500 573 OFFCURVE",
"424 464 CURVE",
"424 462 LINE"
);
}
);
width = 769;
}
);
unicode = 1B18B;
},
{
glyphname = u1B18C;
lastChange = "2021-03-01 15:19:27 +0000";
layers = (
{
layerId = "6F1FF838-4CD9-4710-9EED-9AFF82DAD6EB";
paths = (
{
closed = 1;
nodes = (
"322 17 OFFCURVE",
"371 158 OFFCURVE",
"371 310 CURVE SMOOTH",
"371 475 OFFCURVE",
"322 623 OFFCURVE",
"222 763 CURVE",
"159 718 LINE",
"249 589 OFFCURVE",
"294 455 OFFCURVE",
"294 307 CURVE SMOOTH",
"294 174 OFFCURVE",
"249 50 OFFCURVE",
"159 -76 CURVE",
"222 -120 LINE"
);
},
{
closed = 1;
nodes = (
"665 186 LINE",
"562 333 OFFCURVE",
"513 460 OFFCURVE",
"513 586 CURVE SMOOTH",
"513 708 OFFCURVE",
"549 832 OFFCURVE",
"626 963 CURVE",
"563 1000 LINE",
"480 862 OFFCURVE",
"440 725 OFFCURVE",
"440 583 CURVE SMOOTH",
"440 443 OFFCURVE",
"493 297 OFFCURVE",
"602 139 CURVE"
);
},
{
closed = 1;
nodes = (
"198 267 OFFCURVE",
"219 294 OFFCURVE",
"219 323 CURVE SMOOTH",
"219 355 OFFCURVE",
"198 381 OFFCURVE",
"166 381 CURVE SMOOTH",
"138 381 OFFCURVE",
"114 355 OFFCURVE",
"114 323 CURVE SMOOTH",
"114 294 OFFCURVE",
"138 267 OFFCURVE",
"166 267 CURVE SMOOTH"
);
},
{
closed = 1;
nodes = (
"581 534 OFFCURVE",
"605 507 OFFCURVE",
"634 507 CURVE SMOOTH",
"665 507 OFFCURVE",
"686 534 OFFCURVE",
"686 564 CURVE SMOOTH",
"686 595 OFFCURVE",
"665 621 OFFCURVE",
"634 621 CURVE SMOOTH",
"605 621 OFFCURVE",
"581 595 OFFCURVE",
"581 564 CURVE SMOOTH"
);
}
);
width = 800;
},
{
associatedMasterId = "6F1FF838-4CD9-4710-9EED-9AFF82DAD6EB";
background = {
paths = (
{
closed = 1;
nodes = (
"661 421 OFFCURVE",
"685 445 OFFCURVE",
"685 477 CURVE SMOOTH",
"685 508 OFFCURVE",
"661 532 OFFCURVE",
"629 532 CURVE SMOOTH",
"598 532 OFFCURVE",
"574 508 OFFCURVE",
"574 477 CURVE SMOOTH",
"574 445 OFFCURVE",
"598 421 OFFCURVE",
"629 421 CURVE SMOOTH"
);
},
{
closed = 1;
nodes = (
"142 359 OFFCURVE",
"166 383 OFFCURVE",
"166 415 CURVE SMOOTH",
"166 446 OFFCURVE",
"142 470 OFFCURVE",
"110 470 CURVE SMOOTH",
"79 470 OFFCURVE",
"55 446 OFFCURVE",
"55 415 CURVE SMOOTH",
"55 383 OFFCURVE",
"79 359 OFFCURVE",
"110 359 CURVE SMOOTH"
);
},
{
closed = 1;
nodes = (
"616 114 LINE",
"535 270 OFFCURVE",
"496 414 OFFCURVE",
"493 572 CURVE SMOOTH",
"491 710 OFFCURVE",
"516 836 OFFCURVE",
"572 974 CURVE",
"506 1000 LINE",
"448 847 OFFCURVE",
"423 711 OFFCURVE",
"425 570 CURVE SMOOTH",
"428 399 OFFCURVE",
"469 245 OFFCURVE",
"555 80 CURVE"
);
},
{
closed = 1;
nodes = (
"215 -120 LINE",
"297 50 OFFCURVE",
"334 205 OFFCURVE",
"332 374 CURVE SMOOTH",
"332 515 OFFCURVE",
"304 648 OFFCURVE",
"242 802 CURVE",
"178 774 LINE",
"235 636 OFFCURVE",
"261 511 OFFCURVE",
"262 374 CURVE SMOOTH",
"263 214 OFFCURVE",
"229 69 OFFCURVE",
"153 -87 CURVE"
);
}
);
};
layerId = "2AFD72DE-37DB-4402-B249-15EB0761F716";
name = "Mar 17 20, 00:03";
paths = (
{
closed = 1;
nodes = (
"45 337 OFFCURVE",
"71 308 OFFCURVE",
"105 308 CURVE SMOOTH",
"142 308 OFFCURVE",
"165 337 OFFCURVE",
"165 372 CURVE SMOOTH",
"165 409 OFFCURVE",
"142 437 OFFCURVE",
"105 437 CURVE SMOOTH",
"71 437 OFFCURVE",
"45 409 OFFCURVE",
"45 372 CURVE SMOOTH"
);
},
{
closed = 1;
nodes = (
"575 490 OFFCURVE",
"601 461 OFFCURVE",
"635 461 CURVE SMOOTH",
"672 461 OFFCURVE",
"695 490 OFFCURVE",
"695 525 CURVE SMOOTH",
"695 562 OFFCURVE",
"672 590 OFFCURVE",
"635 590 CURVE SMOOTH",
"601 590 OFFCURVE",
"575 562 OFFCURVE",
"575 525 CURVE SMOOTH"
);
},
{
closed = 0;
nodes = (
"154 828 LINE",
"250 660 OFFCURVE",
"294 513 OFFCURVE",
"294 361 CURVE SMOOTH",
"294 188 OFFCURVE",
"242 29 OFFCURVE",
"128 -147 CURVE SMOOTH"
);
},
{
closed = 0;
nodes = (
"580 1026 LINE",
"498 867 OFFCURVE",
"461 726 OFFCURVE",
"461 579 CURVE SMOOTH",
"461 405 OFFCURVE",
"511 246 OFFCURVE",
"619 71 CURVE SMOOTH"
);
}
);
width = 740;
},
{
background = {
paths = (
{
closed = 1;
nodes = (
"358 36 OFFCURVE",
"405 170 OFFCURVE",
"405 325 CURVE SMOOTH",
"405 473 OFFCURVE",
"360 618 OFFCURVE",
"260 768 CURVE",
"161 704 LINE",
"249 574 OFFCURVE",
"289 450 OFFCURVE",
"289 325 CURVE SMOOTH",
"289 194 OFFCURVE",
"248 78 OFFCURVE",
"155 -59 CURVE",
"256 -120 LINE"
);
},
{
closed = 1;
nodes = (
"204 253 OFFCURVE",
"235 286 OFFCURVE",
"235 332 CURVE SMOOTH",
"235 379 OFFCURVE",
"204 412 OFFCURVE",
"160 412 CURVE SMOOTH",
"117 412 OFFCURVE",
"85 377 OFFCURVE",
"85 332 CURVE SMOOTH",
"85 288 OFFCURVE",
"118 253 OFFCURVE",
"160 253 CURVE SMOOTH"
);
},
{
closed = 1;
nodes = (
"703 179 LINE",
"601 329 OFFCURVE",
"555 451 OFFCURVE",
"555 591 CURVE SMOOTH",
"555 709 OFFCURVE",
"590 811 OFFCURVE",
"668 939 CURVE",
"566 1000 LINE",
"481 851 OFFCURVE",
"443 729 OFFCURVE",
"443 591 CURVE SMOOTH",
"443 428 OFFCURVE",
"494 284 OFFCURVE",
"605 114 CURVE"
);
},
{
closed = 1;
nodes = (
"615 511 OFFCURVE",
"648 476 OFFCURVE",
"690 476 CURVE SMOOTH",
"734 476 OFFCURVE",
"765 509 OFFCURVE",
"765 555 CURVE SMOOTH",
"765 602 OFFCURVE",
"734 635 OFFCURVE",
"690 635 CURVE SMOOTH",
"647 635 OFFCURVE",
"615 600 OFFCURVE",
"615 555 CURVE SMOOTH"
);
}
);
};
layerId = "43631C01-6FFC-4BF5-B35A-DC7F74885E25";
paths = (
{
closed = 1;
nodes = (
"358 36 OFFCURVE",
"405 170 OFFCURVE",
"405 325 CURVE SMOOTH",
"405 472 OFFCURVE",
"359 616 OFFCURVE",
"257 765 CURVE",
"161 704 LINE",
"249 574 OFFCURVE",
"289 450 OFFCURVE",
"289 325 CURVE SMOOTH",
"289 194 OFFCURVE",
"249 79 OFFCURVE",
"157 -58 CURVE",
"256 -120 LINE"
);
},
{
closed = 1;
nodes = (
"703 180 LINE",
"601 330 OFFCURVE",
"555 451 OFFCURVE",
"555 591 CURVE SMOOTH",
"555 711 OFFCURVE",
"590 814 OFFCURVE",
"667 944 CURVE",
"566 1000 LINE",
"481 851 OFFCURVE",
"443 729 OFFCURVE",
"443 591 CURVE SMOOTH",
"443 428 OFFCURVE",
"494 284 OFFCURVE",
"605 114 CURVE"
);
},
{
closed = 1;
nodes = (
"204 253 OFFCURVE",
"235 286 OFFCURVE",
"235 332 CURVE SMOOTH",
"235 379 OFFCURVE",
"204 412 OFFCURVE",
"160 412 CURVE SMOOTH",
"117 412 OFFCURVE",
"85 377 OFFCURVE",
"85 332 CURVE SMOOTH",
"85 288 OFFCURVE",
"118 253 OFFCURVE",
"160 253 CURVE SMOOTH"
);
},
{
closed = 1;
nodes = (
"615 511 OFFCURVE",
"648 476 OFFCURVE",
"690 476 CURVE SMOOTH",
"734 476 OFFCURVE",
"765 509 OFFCURVE",
"765 555 CURVE SMOOTH",
"765 602 OFFCURVE",
"734 635 OFFCURVE",
"690 635 CURVE SMOOTH",
"647 635 OFFCURVE",
"615 600 OFFCURVE",
"615 555 CURVE SMOOTH"
);
}
);
width = 850;
},
{
associatedMasterId = "43631C01-6FFC-4BF5-B35A-DC7F74885E25";
background = {
paths = (
{
closed = 1;
nodes = (
"661 421 OFFCURVE",
"685 445 OFFCURVE",
"685 477 CURVE SMOOTH",
"685 508 OFFCURVE",
"661 532 OFFCURVE",
"629 532 CURVE SMOOTH",
"598 532 OFFCURVE",
"574 508 OFFCURVE",
"574 477 CURVE SMOOTH",
"574 445 OFFCURVE",
"598 421 OFFCURVE",
"629 421 CURVE SMOOTH"
);
},
{
closed = 1;
nodes = (
"142 359 OFFCURVE",
"166 383 OFFCURVE",
"166 415 CURVE SMOOTH",
"166 446 OFFCURVE",
"142 470 OFFCURVE",
"110 470 CURVE SMOOTH",
"79 470 OFFCURVE",
"55 446 OFFCURVE",
"55 415 CURVE SMOOTH",
"55 383 OFFCURVE",
"79 359 OFFCURVE",
"110 359 CURVE SMOOTH"
);
},
{
closed = 1;
nodes = (
"616 114 LINE",
"535 270 OFFCURVE",
"496 414 OFFCURVE",
"493 572 CURVE SMOOTH",
"491 710 OFFCURVE",
"516 836 OFFCURVE",
"572 974 CURVE",
"506 1000 LINE",
"448 847 OFFCURVE",
"423 711 OFFCURVE",
"425 570 CURVE SMOOTH",
"428 399 OFFCURVE",
"469 245 OFFCURVE",
"555 80 CURVE"
);
},
{
closed = 1;
nodes = (
"215 -120 LINE",
"297 50 OFFCURVE",
"334 205 OFFCURVE",
"332 374 CURVE SMOOTH",
"332 515 OFFCURVE",
"304 648 OFFCURVE",
"242 802 CURVE",
"178 774 LINE",
"235 636 OFFCURVE",
"261 511 OFFCURVE",
"262 374 CURVE SMOOTH",
"263 214 OFFCURVE",
"229 69 OFFCURVE",
"153 -87 CURVE"
);
}
);
};
layerId = "6A3A54AA-5479-46C2-9503-81E44D0B4527";
name = "Mar 17 20, 00:03";
paths = (
{
closed = 1;
nodes = (
"45 337 OFFCURVE",
"71 308 OFFCURVE",
"105 308 CURVE SMOOTH",
"142 308 OFFCURVE",
"165 337 OFFCURVE",
"165 372 CURVE SMOOTH",
"165 409 OFFCURVE",
"142 437 OFFCURVE",
"105 437 CURVE SMOOTH",
"71 437 OFFCURVE",
"45 409 OFFCURVE",
"45 372 CURVE SMOOTH"
);
},
{
closed = 1;
nodes = (
"575 490 OFFCURVE",
"601 461 OFFCURVE",
"635 461 CURVE SMOOTH",
"672 461 OFFCURVE",
"695 490 OFFCURVE",
"695 525 CURVE SMOOTH",
"695 562 OFFCURVE",
"672 590 OFFCURVE",
"635 590 CURVE SMOOTH",
"601 590 OFFCURVE",
"575 562 OFFCURVE",
"575 525 CURVE SMOOTH"
);
},
{
closed = 0;
nodes = (
"154 828 LINE",
"250 660 OFFCURVE",
"294 513 OFFCURVE",
"294 361 CURVE SMOOTH",
"294 188 OFFCURVE",
"242 29 OFFCURVE",
"128 -147 CURVE SMOOTH"
);
},
{
closed = 0;
nodes = (
"580 1026 LINE",
"498 867 OFFCURVE",
"461 726 OFFCURVE",
"461 579 CURVE SMOOTH",
"461 405 OFFCURVE",
"511 246 OFFCURVE",
"619 71 CURVE SMOOTH"
);
}
);
width = 740;
},
{
layerId = "7B7A33B1-C38B-4BF8-ACF4-708FF5807549";
paths = (
{
closed = 1;
nodes = (
"302 5 OFFCURVE",
"352 151 OFFCURVE",
"352 301 CURVE SMOOTH",
"352 474 OFFCURVE",
"300 625 OFFCURVE",
"202 758 CURVE",
"159 727 LINE",
"253 597 OFFCURVE",
"299 458 OFFCURVE",
"299 296 CURVE SMOOTH",
"299 162 OFFCURVE",
"251 34 OFFCURVE",
"159 -84 CURVE",
"203 -120 LINE"
);
},
{
closed = 1;
nodes = (
"642 189 LINE",
"538 336 OFFCURVE",
"487 465 OFFCURVE",
"487 583 CURVE SMOOTH",
"487 706 OFFCURVE",
"525 842 OFFCURVE",
"605 973 CURVE",
"559 1000 LINE",
"478 869 OFFCURVE",
"437 723 OFFCURVE",
"437 578 CURVE SMOOTH",
"437 452 OFFCURVE",
"491 305 OFFCURVE",
"598 155 CURVE"
);
},
{
closed = 1;
nodes = (
"196 274 OFFCURVE",
"211 297 OFFCURVE",
"211 317 CURVE SMOOTH",
"211 342 OFFCURVE",
"196 363 OFFCURVE",
"170 363 CURVE SMOOTH",
"150 363 OFFCURVE",
"131 343 OFFCURVE",
"131 317 CURVE SMOOTH",
"131 296 OFFCURVE",
"149 274 OFFCURVE",
"170 274 CURVE SMOOTH"
);
},
{
closed = 1;
nodes = (
"558 547 OFFCURVE",
"577 525 OFFCURVE",
"599 525 CURVE SMOOTH",
"624 525 OFFCURVE",
"638 548 OFFCURVE",
"638 570 CURVE SMOOTH",
"638 592 OFFCURVE",
"624 614 OFFCURVE",
"599 614 CURVE SMOOTH",
"577 614 OFFCURVE",
"558 594 OFFCURVE",
"558 570 CURVE SMOOTH"
);
}
);
width = 769;
}
);
unicode = 1B18C;
},
{
glyphname = u1B18D;
lastChange = "2021-03-01 15:19:27 +0000";
layers = (
{
background = {
paths = (
{
closed = 1;
nodes = (
"299 -34 OFFCURVE",
"326 73 OFFCURVE",
"330 166 CURVE SMOOTH",
"334 289 OFFCURVE",
"298 413 OFFCURVE",
"229 521 CURVE",
"221 462 LINE",
"415 578 OFFCURVE",
"550 731 OFFCURVE",
"650 968 CURVE",
"572 1000 LINE",
"482 777 OFFCURVE",
"346 626 OFFCURVE",
"142 508 CURVE",
"142 504 LINE",
"234 368 OFFCURVE",
"251 263 OFFCURVE",
"248 169 CURVE SMOOTH",
"245 86 OFFCURVE",
"218 -7 OFFCURVE",
"173 -84 CURVE",
"249 -120 LINE"
);
},
{
closed = 1;
nodes = (
"619 164 LINE",
"658 362 OFFCURVE",
"608 565 OFFCURVE",
"499 748 CURVE",
"435 698 LINE",
"532 541 OFFCURVE",
"570 391 OFFCURVE",
"554 213 CURVE",
"592 226 LINE",
"430 396 LINE",
"373 339 LINE",
"553 148 LINE"
);
}
);
};
guideLines = (
{
position = "{808, 1000}";
}
);
layerId = "6F1FF838-4CD9-4710-9EED-9AFF82DAD6EB";
paths = (
{
closed = 1;
nodes = (
"299 -34 OFFCURVE",
"326 73 OFFCURVE",
"330 166 CURVE SMOOTH",
"334 289 OFFCURVE",
"298 413 OFFCURVE",
"229 521 CURVE",
"221 462 LINE",
"415 578 OFFCURVE",
"550 731 OFFCURVE",
"650 968 CURVE",
"572 1000 LINE",
"482 777 OFFCURVE",
"346 626 OFFCURVE",
"142 508 CURVE",
"142 504 LINE",
"234 368 OFFCURVE",
"251 263 OFFCURVE",
"248 169 CURVE SMOOTH",
"245 86 OFFCURVE",
"219 -6 OFFCURVE",
"175 -83 CURVE",
"249 -120 LINE"
);
},
{
closed = 1;
nodes = (
"619 164 LINE",
"658 362 OFFCURVE",
"608 565 OFFCURVE",
"499 748 CURVE",
"435 698 LINE",
"532 541 OFFCURVE",
"570 391 OFFCURVE",
"554 213 CURVE",
"591 225 LINE",
"429 395 LINE",
"373 339 LINE",
"553 148 LINE"
);
}
);
width = 800;
},
{
associatedMasterId = "6F1FF838-4CD9-4710-9EED-9AFF82DAD6EB";
background = {
paths = (
{
closed = 1;
nodes = (
"630 434 OFFCURVE",
"578 644 OFFCURVE",
"443 823 CURVE",
"380 788 LINE",
"504 605 OFFCURVE",
"557 421 OFFCURVE",
"548 213 CURVE",
"617 248 LINE"
);
},
{
closed = 1;
nodes = (
"331 471 LINE",
"384 363 OFFCURVE",
"465 275 OFFCURVE",
"548 213 CURVE",
"617 249 LINE",
"533 310 OFFCURVE",
"450 398 OFFCURVE",
"386 512 CURVE"
);
},
{
closed = 1;
nodes = (
"475 1000 LINE",
"379 820 OFFCURVE",
"262 652 OFFCURVE",
"140 549 CURVE",
"187 502 LINE",
"306 598 OFFCURVE",
"441 770 OFFCURVE",
"539 956 CURVE"
);
},
{
closed = 1;
nodes = (
"328 53 OFFCURVE",
"371 365 OFFCURVE",
"210 561 CURVE",
"140 549 LINE",
"300 334 OFFCURVE",
"242 51 OFFCURVE",
"129 -90 CURVE",
"200 -120 LINE"
);
}
);
};
guideLines = (
{
position = "{808, 1000}";
}
);
layerId = "55F1F819-8069-4CA0-9190-D2A5E42BF3B4";
name = "Mar 4 20, 01:05";
paths = (
{
closed = 0;
nodes = (
"547 1027 LINE",
"471 776 OFFCURVE",
"354 608 OFFCURVE",
"173 488 CURVE",
"313 277 OFFCURVE",
"315 78 OFFCURVE",
"177 -145 CURVE SMOOTH"
);
},
{
closed = 0;
nodes = (
"393 755 LINE",
"540 558 OFFCURVE",
"588 367 OFFCURVE",
"546 148 CURVE",
"458 226 OFFCURVE",
"399 329 OFFCURVE",
"356 475 CURVE SMOOTH"
);
}
);
width = 740;
},
{
background = {
paths = (
{
closed = 1;
nodes = (
"332 -21 OFFCURVE",
"358 80 OFFCURVE",
"362 175 CURVE SMOOTH",
"365 286 OFFCURVE",
"341 397 OFFCURVE",
"266 527 CURVE",
"264 458 LINE",
"462 571 OFFCURVE",
"601 728 OFFCURVE",
"701 956 CURVE",
"582 1000 LINE",
"489 782 OFFCURVE",
"353 633 OFFCURVE",
"133 515 CURVE",
"133 510 LINE",
"211 396 OFFCURVE",
"243 296 OFFCURVE",
"239 179 CURVE SMOOTH",
"236 97 OFFCURVE",
"213 12 OFFCURVE",
"168 -75 CURVE",
"283 -120 LINE"
);
},
{
closed = 1;
nodes = (
"689 159 LINE",
"730 388 OFFCURVE",
"685 603 OFFCURVE",
"564 819 CURVE",
"464 752 LINE",
"573 565 OFFCURVE",
"602 413 OFFCURVE",
"589 191 CURVE",
"650 248 LINE",
"481 452 LINE",
"389 370 LINE",
"591 127 LINE"
);
}
);
};
guideLines = (
{
position = "{808, 1000}";
}
);
layerId = "43631C01-6FFC-4BF5-B35A-DC7F74885E25";
paths = (
{
closed = 1;
nodes = (
"332 -21 OFFCURVE",
"358 80 OFFCURVE",
"362 175 CURVE SMOOTH",
"365 286 OFFCURVE",
"341 397 OFFCURVE",
"266 527 CURVE",
"257 458 LINE",
"458 571 OFFCURVE",
"599 728 OFFCURVE",
"701 956 CURVE",
"582 1000 LINE",
"489 782 OFFCURVE",
"353 633 OFFCURVE",
"133 515 CURVE",
"133 510 LINE",
"211 396 OFFCURVE",
"243 296 OFFCURVE",
"239 179 CURVE SMOOTH",
"236 97 OFFCURVE",
"213 12 OFFCURVE",
"168 -75 CURVE",
"283 -120 LINE"
);
},
{
closed = 1;
nodes = (
"689 159 LINE",
"730 388 OFFCURVE",
"685 603 OFFCURVE",
"564 819 CURVE",
"484 718 LINE",
"577 542 OFFCURVE",
"602 400 OFFCURVE",
"589 191 CURVE",
"648 241 LINE",
"479 445 LINE",
"389 370 LINE",
"591 127 LINE"
);
}
);
width = 850;
},
{
associatedMasterId = "43631C01-6FFC-4BF5-B35A-DC7F74885E25";
background = {
paths = (
{
closed = 1;
nodes = (
"630 434 OFFCURVE",
"578 644 OFFCURVE",
"443 823 CURVE",
"380 788 LINE",
"504 605 OFFCURVE",
"557 421 OFFCURVE",
"548 213 CURVE",
"617 248 LINE"
);
},
{
closed = 1;
nodes = (
"331 471 LINE",
"384 363 OFFCURVE",
"465 275 OFFCURVE",
"548 213 CURVE",
"617 249 LINE",
"533 310 OFFCURVE",
"450 398 OFFCURVE",
"386 512 CURVE"
);
},
{
closed = 1;
nodes = (
"475 1000 LINE",
"379 820 OFFCURVE",
"262 652 OFFCURVE",
"140 549 CURVE",
"187 502 LINE",
"306 598 OFFCURVE",
"441 770 OFFCURVE",
"539 956 CURVE"
);
},
{
closed = 1;
nodes = (
"328 53 OFFCURVE",
"371 365 OFFCURVE",
"210 561 CURVE",
"140 549 LINE",
"300 334 OFFCURVE",
"242 51 OFFCURVE",
"129 -90 CURVE",
"200 -120 LINE"
);
}
);
};
guideLines = (
{
position = "{808, 1000}";
}
);
layerId = "43D4012C-7AE5-4BCA-8835-256338670843";
name = "Mar 4 20, 01:05";
paths = (
{
closed = 0;
nodes = (
"547 1027 LINE",
"471 776 OFFCURVE",
"354 608 OFFCURVE",
"173 488 CURVE",
"313 277 OFFCURVE",
"315 78 OFFCURVE",
"177 -145 CURVE SMOOTH"
);
},
{
closed = 0;
nodes = (
"393 755 LINE",
"540 558 OFFCURVE",
"588 367 OFFCURVE",
"546 148 CURVE",
"458 226 OFFCURVE",
"399 329 OFFCURVE",
"356 475 CURVE SMOOTH"
);
}
);
width = 740;
},
{
background = {
paths = (
{
closed = 1;
nodes = (
"278 -42 OFFCURVE",
"306 69 OFFCURVE",
"310 160 CURVE SMOOTH",
"315 291 OFFCURVE",
"271 423 OFFCURVE",
"206 517 CURVE",
"196 469 LINE",
"388 586 OFFCURVE",
"520 737 OFFCURVE",
"619 979 CURVE",
"566 1000 LINE",
"478 774 OFFCURVE",
"342 622 OFFCURVE",
"148 504 CURVE",
"148 500 LINE",
"248 351 OFFCURVE",
"256 242 OFFCURVE",
"254 163 CURVE SMOOTH",
"251 79 OFFCURVE",
"221 -19 OFFCURVE",
"176 -90 CURVE",
"228 -120 LINE"
);
},
{
closed = 1;
nodes = (
"575 167 LINE",
"613 352 OFFCURVE",
"557 554 OFFCURVE",
"449 722 CURVE",
"408 682 LINE",
"503 529 OFFCURVE",
"550 364 OFFCURVE",
"530 197 CURVE",
"556 212 LINE",
"398 361 LINE",
"363 320 LINE",
"535 155 LINE"
);
}
);
};
layerId = "7B7A33B1-C38B-4BF8-ACF4-708FF5807549";
paths = (
{
closed = 1;
nodes = (
"278 -42 OFFCURVE",
"306 69 OFFCURVE",
"310 160 CURVE SMOOTH",
"315 291 OFFCURVE",
"271 423 OFFCURVE",
"206 517 CURVE",
"196 469 LINE",
"388 586 OFFCURVE",
"520 737 OFFCURVE",
"619 979 CURVE",
"566 1000 LINE",
"478 774 OFFCURVE",
"342 622 OFFCURVE",
"148 504 CURVE",
"148 500 LINE",
"248 351 OFFCURVE",
"256 242 OFFCURVE",
"254 163 CURVE SMOOTH",
"251 79 OFFCURVE",
"221 -19 OFFCURVE",
"176 -90 CURVE",
"228 -120 LINE"
);
},
{
closed = 1;
nodes = (
"575 167 LINE",
"613 352 OFFCURVE",
"557 554 OFFCURVE",
"449 722 CURVE",
"408 682 LINE",
"503 529 OFFCURVE",
"550 364 OFFCURVE",
"530 197 CURVE",
"556 212 LINE",
"398 361 LINE",
"363 320 LINE",
"535 155 LINE"
);
}
);
width = 769;
}
);
unicode = 1B18D;
},
{
glyphname = u1B18E;
lastChange = "2021-03-01 15:19:27 +0000";
layers = (
{
background = {
paths = (
{
closed = 1;
nodes = (
"680 113 LINE",
"311 868 LINE",
"239 833 LINE",
"608 78 LINE"
);
},
{
closed = 1;
nodes = (
"466 -120 OFFCURVE",
"487 -92 OFFCURVE",
"487 -60 CURVE SMOOTH",
"487 -25 OFFCURVE",
"466 1 OFFCURVE",
"431 1 CURVE SMOOTH",
"399 1 OFFCURVE",
"375 -25 OFFCURVE",
"375 -60 CURVE SMOOTH",
"375 -92 OFFCURVE",
"399 -120 OFFCURVE",
"431 -120 CURVE SMOOTH"
);
},
{
closed = 1;
nodes = (
"315 77 OFFCURVE",
"422 223 OFFCURVE",
"512 384 CURVE",
"457 456 LINE",
"370 292 OFFCURVE",
"263 140 OFFCURVE",
"132 5 CURVE",
"190 -54 LINE"
);
},
{
closed = 1;
nodes = (
"433 518 OFFCURVE",
"551 709 OFFCURVE",
"606 989 CURVE",
"528 1000 LINE",
"482 753 OFFCURVE",
"366 576 OFFCURVE",
"120 391 CURVE",
"167 323 LINE"
);
}
);
};
guideLines = (
{
position = "{783, 1000}";
}
);
layerId = "6F1FF838-4CD9-4710-9EED-9AFF82DAD6EB";
paths = (
{
closed = 1;
nodes = (
"433 519 OFFCURVE",
"551 710 OFFCURVE",
"606 989 CURVE",
"528 1000 LINE",
"482 753 OFFCURVE",
"366 576 OFFCURVE",
"120 391 CURVE",
"168 325 LINE"
);
},
{
closed = 1;
nodes = (
"680 113 LINE",
"311 868 LINE",
"239 833 LINE",
"608 78 LINE"
);
},
{
closed = 1;
nodes = (
"315 77 OFFCURVE",
"422 223 OFFCURVE",
"512 384 CURVE",
"458 455 LINE",
"371 291 OFFCURVE",
"264 139 OFFCURVE",
"133 4 CURVE",
"190 -54 LINE"
);
},
{
closed = 1;
nodes = (
"466 -120 OFFCURVE",
"487 -92 OFFCURVE",
"487 -60 CURVE SMOOTH",
"487 -25 OFFCURVE",
"466 1 OFFCURVE",
"431 1 CURVE SMOOTH",
"399 1 OFFCURVE",
"375 -25 OFFCURVE",
"375 -60 CURVE SMOOTH",
"375 -92 OFFCURVE",
"399 -120 OFFCURVE",
"431 -120 CURVE SMOOTH"
);
}
);
width = 800;
},
{
associatedMasterId = "6F1FF838-4CD9-4710-9EED-9AFF82DAD6EB";
background = {
paths = (
{
closed = 1;
nodes = (
"411 -120 OFFCURVE",
"435 -96 OFFCURVE",
"435 -64 CURVE SMOOTH",
"435 -33 OFFCURVE",
"411 -9 OFFCURVE",
"379 -9 CURVE SMOOTH",
"348 -9 OFFCURVE",
"324 -33 OFFCURVE",
"324 -64 CURVE SMOOTH",
"324 -96 OFFCURVE",
"348 -120 OFFCURVE",
"379 -120 CURVE SMOOTH"
);
},
{
closed = 1;
nodes = (
"403 543 OFFCURVE",
"558 749 OFFCURVE",
"595 996 CURVE",
"528 1000 LINE",
"497 793 OFFCURVE",
"331 577 OFFCURVE",
"138 498 CURVE",
"176 443 LINE"
);
},
{
closed = 1;
nodes = (
"202 60 LINE",
"282 176 OFFCURVE",
"388 309 OFFCURVE",
"503 438 CURVE",
"462 496 LINE",
"343 360 OFFCURVE",
"230 225 OFFCURVE",
"152 96 CURVE"
);
},
{
closed = 1;
nodes = (
"602 125 LINE",
"564 365 OFFCURVE",
"476 590 OFFCURVE",
"289 840 CURVE",
"233 799 LINE",
"415 558 OFFCURVE",
"503 343 OFFCURVE",
"533 123 CURVE"
);
}
);
};
guideLines = (
{
position = "{783, 1000}";
}
);
layerId = "BA737E41-55A4-4D78-8247-87161CB647F6";
name = "Mar 4 20, 11:34";
paths = (
{
closed = 0;
nodes = (
"587 1057 LINE",
"578 914 OFFCURVE",
"540 790 OFFCURVE",
"472 681 CURVE SMOOTH",
"390 547 OFFCURVE",
"264 436 OFFCURVE",
"93 340 CURVE"
);
},
{
closed = 0;
nodes = (
"478 430 LINE",
"435 346 OFFCURVE",
"384 267 OFFCURVE",
"325 194 CURVE SMOOTH",
"260 115 OFFCURVE",
"186 42 OFFCURVE",
"102 -23 CURVE"
);
}
);
width = 740;
},
{
guideLines = (
{
position = "{783, 1000}";
}
);
layerId = "43631C01-6FFC-4BF5-B35A-DC7F74885E25";
paths = (
{
closed = 1;
nodes = (
"472 513 OFFCURVE",
"613 703 OFFCURVE",
"666 981 CURVE",
"554 1000 LINE",
"505 757 OFFCURVE",
"374 596 OFFCURVE",
"120 428 CURVE",
"187 324 LINE"
);
},
{
closed = 1;
nodes = (
"730 97 LINE",
"329 917 LINE",
"225 867 LINE",
"626 46 LINE"
);
},
{
closed = 1;
nodes = (
"334 78 OFFCURVE",
"451 210 OFFCURVE",
"550 350 CURVE",
"482 461 LINE",
"382 313 OFFCURVE",
"260 173 OFFCURVE",
"126 54 CURVE",
"206 -35 LINE"
);
},
{
closed = 1;
nodes = (
"493 -120 OFFCURVE",
"525 -85 OFFCURVE",
"525 -39 CURVE SMOOTH",
"525 9 OFFCURVE",
"494 43 OFFCURVE",
"449 43 CURVE SMOOTH",
"405 43 OFFCURVE",
"373 7 OFFCURVE",
"373 -39 CURVE SMOOTH",
"373 -84 OFFCURVE",
"406 -120 OFFCURVE",
"449 -120 CURVE SMOOTH"
);
}
);
width = 850;
},
{
associatedMasterId = "43631C01-6FFC-4BF5-B35A-DC7F74885E25";
background = {
paths = (
{
closed = 1;
nodes = (
"411 -120 OFFCURVE",
"435 -96 OFFCURVE",
"435 -64 CURVE SMOOTH",
"435 -33 OFFCURVE",
"411 -9 OFFCURVE",
"379 -9 CURVE SMOOTH",
"348 -9 OFFCURVE",
"324 -33 OFFCURVE",
"324 -64 CURVE SMOOTH",
"324 -96 OFFCURVE",
"348 -120 OFFCURVE",
"379 -120 CURVE SMOOTH"
);
},
{
closed = 1;
nodes = (
"403 543 OFFCURVE",
"558 749 OFFCURVE",
"595 996 CURVE",
"528 1000 LINE",
"497 793 OFFCURVE",
"331 577 OFFCURVE",
"138 498 CURVE",
"176 443 LINE"
);
},
{
closed = 1;
nodes = (
"202 60 LINE",
"282 176 OFFCURVE",
"388 309 OFFCURVE",
"503 438 CURVE",
"462 496 LINE",
"343 360 OFFCURVE",
"230 225 OFFCURVE",
"152 96 CURVE"
);
},
{
closed = 1;
nodes = (
"602 125 LINE",
"564 365 OFFCURVE",
"476 590 OFFCURVE",
"289 840 CURVE",
"233 799 LINE",
"415 558 OFFCURVE",
"503 343 OFFCURVE",
"533 123 CURVE"
);
}
);
};
guideLines = (
{
position = "{783, 1000}";
}
);
layerId = "F504BAC1-02C4-4646-90EB-DAAD5474F826";
name = "Mar 4 20, 11:34";
paths = (
{
closed = 0;
nodes = (
"587 1057 LINE",
"578 914 OFFCURVE",
"540 790 OFFCURVE",
"472 681 CURVE SMOOTH",
"390 547 OFFCURVE",
"264 436 OFFCURVE",
"93 340 CURVE"
);
},
{
closed = 0;
nodes = (
"478 430 LINE",
"435 346 OFFCURVE",
"384 267 OFFCURVE",
"325 194 CURVE SMOOTH",
"260 115 OFFCURVE",
"186 42 OFFCURVE",
"102 -23 CURVE"
);
}
);
width = 740;
},
{
background = {
paths = (
{
closed = 1;
nodes = (
"649 123 LINE",
"300 837 LINE",
"248 812 LINE",
"597 98 LINE"
);
},
{
closed = 1;
nodes = (
"449 -120 OFFCURVE",
"463 -96 OFFCURVE",
"463 -73 CURVE SMOOTH",
"463 -46 OFFCURVE",
"449 -25 OFFCURVE",
"420 -25 CURVE SMOOTH",
"395 -25 OFFCURVE",
"376 -45 OFFCURVE",
"376 -73 CURVE SMOOTH",
"376 -97 OFFCURVE",
"395 -120 OFFCURVE",
"420 -120 CURVE SMOOTH"
);
},
{
closed = 1;
nodes = (
"300 77 OFFCURVE",
"399 233 OFFCURVE",
"485 407 CURVE",
"447 466 LINE",
"365 288 OFFCURVE",
"264 124 OFFCURVE",
"136 -26 CURVE",
"179 -66 LINE"
);
},
{
closed = 1;
nodes = (
"408 520 OFFCURVE",
"511 712 OFFCURVE",
"567 991 CURVE",
"512 1000 LINE",
"468 751 OFFCURVE",
"361 562 OFFCURVE",
"120 368 CURVE",
"155 322 LINE"
);
}
);
};
layerId = "7B7A33B1-C38B-4BF8-ACF4-708FF5807549";
paths = (
{
closed = 1;
nodes = (
"408 520 OFFCURVE",
"511 712 OFFCURVE",
"567 991 CURVE",
"512 1000 LINE",
"468 751 OFFCURVE",
"361 562 OFFCURVE",
"120 368 CURVE",
"155 322 LINE"
);
},
{
closed = 1;
nodes = (
"649 123 LINE",
"300 837 LINE",
"248 812 LINE",
"597 98 LINE"
);
},
{
closed = 1;
nodes = (
"300 77 OFFCURVE",
"399 233 OFFCURVE",
"485 407 CURVE",
"447 466 LINE",
"365 288 OFFCURVE",
"264 124 OFFCURVE",
"136 -26 CURVE",
"179 -66 LINE"
);
},
{
closed = 1;
nodes = (
"449 -120 OFFCURVE",
"463 -96 OFFCURVE",
"463 -73 CURVE SMOOTH",
"463 -46 OFFCURVE",
"449 -25 OFFCURVE",
"420 -25 CURVE SMOOTH",
"395 -25 OFFCURVE",
"376 -45 OFFCURVE",
"376 -73 CURVE SMOOTH",
"376 -97 OFFCURVE",
"395 -120 OFFCURVE",
"420 -120 CURVE SMOOTH"
);
}
);
width = 769;
}
);
unicode = 1B18E;
},
{
glyphname = u1B18F;
lastChange = "2021-03-01 15:19:27 +0000";
layers = (
{
background = {
paths = (
{
closed = 1;
nodes = (
"211 238 OFFCURVE",
"232 265 OFFCURVE",
"232 298 CURVE SMOOTH",
"232 332 OFFCURVE",
"211 358 OFFCURVE",
"176 358 CURVE SMOOTH",
"144 358 OFFCURVE",
"120 332 OFFCURVE",
"120 298 CURVE SMOOTH",
"120 265 OFFCURVE",
"144 238 OFFCURVE",
"176 238 CURVE SMOOTH"
);
},
{
closed = 1;
nodes = (
"595 373 OFFCURVE",
"619 346 OFFCURVE",
"651 346 CURVE SMOOTH",
"686 346 OFFCURVE",
"707 373 OFFCURVE",
"707 406 CURVE SMOOTH",
"707 440 OFFCURVE",
"686 466 OFFCURVE",
"651 466 CURVE SMOOTH",
"619 466 OFFCURVE",
"595 440 OFFCURVE",
"595 406 CURVE SMOOTH"
);
},
{
closed = 1;
nodes = (
"588 -49 LINE",
"499 241 OFFCURVE",
"381 490 OFFCURVE",
"222 709 CURVE",
"157 662 LINE",
"308 446 OFFCURVE",
"426 204 OFFCURVE",
"512 -77 CURVE"
);
},
{
closed = 1;
nodes = (
"564 498 OFFCURVE",
"598 997 CURVE",
"519 1000 LINE",
"485 525 OFFCURVE",
"372 221 OFFCURVE",
"134 -66 CURVE",
"196 -120 LINE",
"449 178 OFFCURVE"
);
}
);
};
layerId = "6F1FF838-4CD9-4710-9EED-9AFF82DAD6EB";
paths = (
{
closed = 1;
nodes = (
"564 498 OFFCURVE",
"598 997 CURVE",
"519 1000 LINE",
"485 525 OFFCURVE",
"372 221 OFFCURVE",
"134 -66 CURVE",
"196 -120 LINE",
"449 178 OFFCURVE"
);
},
{
closed = 1;
nodes = (
"588 -49 LINE",
"499 241 OFFCURVE",
"381 490 OFFCURVE",
"222 709 CURVE",
"157 662 LINE",
"308 446 OFFCURVE",
"426 204 OFFCURVE",
"512 -77 CURVE"
);
},
{
closed = 1;
nodes = (
"211 238 OFFCURVE",
"232 265 OFFCURVE",
"232 298 CURVE SMOOTH",
"232 332 OFFCURVE",
"211 358 OFFCURVE",
"176 358 CURVE SMOOTH",
"144 358 OFFCURVE",
"120 332 OFFCURVE",
"120 298 CURVE SMOOTH",
"120 265 OFFCURVE",
"144 238 OFFCURVE",
"176 238 CURVE SMOOTH"
);
},
{
closed = 1;
nodes = (
"595 373 OFFCURVE",
"619 346 OFFCURVE",
"651 346 CURVE SMOOTH",
"686 346 OFFCURVE",
"707 373 OFFCURVE",
"707 406 CURVE SMOOTH",
"707 440 OFFCURVE",
"686 466 OFFCURVE",
"651 466 CURVE SMOOTH",
"619 466 OFFCURVE",
"595 440 OFFCURVE",
"595 406 CURVE SMOOTH"
);
}
);
width = 800;
},
{
background = {
paths = (
{
closed = 1;
nodes = (
"230 226 OFFCURVE",
"263 261 OFFCURVE",
"263 308 CURVE SMOOTH",
"263 356 OFFCURVE",
"230 390 OFFCURVE",
"185 390 CURVE SMOOTH",
"141 390 OFFCURVE",
"107 354 OFFCURVE",
"107 308 CURVE SMOOTH",
"107 262 OFFCURVE",
"142 226 OFFCURVE",
"185 226 CURVE SMOOTH"
);
},
{
closed = 1;
nodes = (
"605 350 OFFCURVE",
"640 314 OFFCURVE",
"683 314 CURVE SMOOTH",
"728 314 OFFCURVE",
"761 349 OFFCURVE",
"761 396 CURVE SMOOTH",
"761 444 OFFCURVE",
"728 478 OFFCURVE",
"683 478 CURVE SMOOTH",
"639 478 OFFCURVE",
"605 442 OFFCURVE",
"605 396 CURVE SMOOTH"
);
},
{
closed = 1;
nodes = (
"642 -48 LINE",
"533 284 OFFCURVE",
"426 504 OFFCURVE",
"266 723 CURVE",
"167 657 LINE",
"334 413 OFFCURVE",
"438 201 OFFCURVE",
"529 -84 CURVE"
);
},
{
closed = 1;
nodes = (
"615 518 OFFCURVE",
"625 999 CURVE",
"505 1000 LINE",
"492 552 OFFCURVE",
"381 253 OFFCURVE",
"118 -45 CURVE",
"211 -120 LINE",
"497 199 OFFCURVE"
);
}
);
};
layerId = "43631C01-6FFC-4BF5-B35A-DC7F74885E25";
paths = (
{
closed = 1;
nodes = (
"615 518 OFFCURVE",
"625 999 CURVE",
"505 1000 LINE",
"492 554 OFFCURVE",
"383 257 OFFCURVE",
"124 -40 CURVE",
"211 -120 LINE",
"497 199 OFFCURVE"
);
},
{
closed = 1;
nodes = (
"642 -48 LINE",
"533 284 OFFCURVE",
"426 504 OFFCURVE",
"266 723 CURVE",
"167 657 LINE",
"334 413 OFFCURVE",
"438 201 OFFCURVE",
"529 -84 CURVE"
);
},
{
closed = 1;
nodes = (
"230 226 OFFCURVE",
"263 261 OFFCURVE",
"263 308 CURVE SMOOTH",
"263 356 OFFCURVE",
"230 390 OFFCURVE",
"185 390 CURVE SMOOTH",
"141 390 OFFCURVE",
"107 354 OFFCURVE",
"107 308 CURVE SMOOTH",
"107 262 OFFCURVE",
"142 226 OFFCURVE",
"185 226 CURVE SMOOTH"
);
},
{
closed = 1;
nodes = (
"605 320 OFFCURVE",
"640 284 OFFCURVE",
"683 284 CURVE SMOOTH",
"728 284 OFFCURVE",
"761 319 OFFCURVE",
"761 366 CURVE SMOOTH",
"761 414 OFFCURVE",
"728 448 OFFCURVE",
"683 448 CURVE SMOOTH",
"639 448 OFFCURVE",
"605 412 OFFCURVE",
"605 366 CURVE SMOOTH"
);
}
);
width = 850;
},
{
background = {
paths = (
{
closed = 1;
nodes = (
"199 246 OFFCURVE",
"213 268 OFFCURVE",
"213 292 CURVE SMOOTH",
"213 317 OFFCURVE",
"199 338 OFFCURVE",
"170 338 CURVE SMOOTH",
"146 338 OFFCURVE",
"128 318 OFFCURVE",
"128 292 CURVE SMOOTH",
"128 267 OFFCURVE",
"145 246 OFFCURVE",
"170 246 CURVE SMOOTH"
);
},
{
closed = 1;
nodes = (
"589 387 OFFCURVE",
"606 366 OFFCURVE",
"631 366 CURVE SMOOTH",
"660 366 OFFCURVE",
"673 388 OFFCURVE",
"673 412 CURVE SMOOTH",
"673 438 OFFCURVE",
"660 459 OFFCURVE",
"631 459 CURVE SMOOTH",
"607 459 OFFCURVE",
"589 439 OFFCURVE",
"589 412 CURVE SMOOTH"
);
},
{
closed = 1;
nodes = (
"555 -55 LINE",
"479 210 OFFCURVE",
"354 477 OFFCURVE",
"196 697 CURVE",
"151 665 LINE",
"292 465 OFFCURVE",
"421 206 OFFCURVE",
"501 -73 CURVE"
);
},
{
closed = 1;
nodes = (
"532 486 OFFCURVE",
"581 996 CURVE",
"528 1000 LINE",
"481 507 OFFCURVE",
"366 200 OFFCURVE",
"143 -81 CURVE",
"187 -120 LINE",
"419 165 OFFCURVE"
);
}
);
};
layerId = "7B7A33B1-C38B-4BF8-ACF4-708FF5807549";
paths = (
{
closed = 1;
nodes = (
"532 486 OFFCURVE",
"581 996 CURVE",
"528 1000 LINE",
"481 507 OFFCURVE",
"366 200 OFFCURVE",
"143 -81 CURVE",
"187 -120 LINE",
"419 165 OFFCURVE"
);
},
{
closed = 1;
nodes = (
"555 -55 LINE",
"479 210 OFFCURVE",
"354 477 OFFCURVE",
"196 697 CURVE",
"151 665 LINE",
"292 465 OFFCURVE",
"421 206 OFFCURVE",
"501 -73 CURVE"
);
},
{
closed = 1;
nodes = (
"199 246 OFFCURVE",
"213 268 OFFCURVE",
"213 292 CURVE SMOOTH",
"213 317 OFFCURVE",
"199 338 OFFCURVE",
"170 338 CURVE SMOOTH",
"146 338 OFFCURVE",
"128 318 OFFCURVE",
"128 292 CURVE SMOOTH",
"128 267 OFFCURVE",
"145 246 OFFCURVE",
"170 246 CURVE SMOOTH"
);
},
{
closed = 1;
nodes = (
"589 387 OFFCURVE",
"606 366 OFFCURVE",
"631 366 CURVE SMOOTH",
"660 366 OFFCURVE",
"673 388 OFFCURVE",
"673 412 CURVE SMOOTH",
"673 438 OFFCURVE",
"660 459 OFFCURVE",
"631 459 CURVE SMOOTH",
"607 459 OFFCURVE",
"589 439 OFFCURVE",
"589 412 CURVE SMOOTH"
);
}
);
width = 769;
}
);
unicode = 1B18F;
},
{
glyphname = u1B190;
lastChange = "2021-03-01 15:19:27 +0000";
layers = (
{
background = {
paths = (
{
closed = 1;
nodes = (
"681 273 LINE",
"581 406 OFFCURVE",
"533 525 OFFCURVE",
"533 633 CURVE SMOOTH",
"533 735 OFFCURVE",
"565 845 OFFCURVE",
"631 967 CURVE",
"558 1000 LINE",
"491 870 OFFCURVE",
"454 749 OFFCURVE",
"454 631 CURVE SMOOTH",
"454 503 OFFCURVE",
"509 368 OFFCURVE",
"617 221 CURVE"
);
},
{
closed = 1;
nodes = (
"511 -120 OFFCURVE",
"575 -59 OFFCURVE",
"575 45 CURVE SMOOTH",
"575 150 OFFCURVE",
"512 212 OFFCURVE",
"440 212 CURVE SMOOTH",
"367 212 OFFCURVE",
"302 150 OFFCURVE",
"302 45 CURVE SMOOTH",
"302 -59 OFFCURVE",
"367 -120 OFFCURVE",
"440 -120 CURVE SMOOTH"
);
},
{
closed = 1;
nodes = (
"407 -46 OFFCURVE",
"385 -10 OFFCURVE",
"385 45 CURVE SMOOTH",
"385 100 OFFCURVE",
"407 138 OFFCURVE",
"440 138 CURVE SMOOTH",
"471 138 OFFCURVE",
"493 100 OFFCURVE",
"493 45 CURVE SMOOTH",
"493 -10 OFFCURVE",
"471 -46 OFFCURVE",
"440 -46 CURVE SMOOTH"
);
},
{
closed = 1;
nodes = (
"182 90 LINE",
"284 210 OFFCURVE",
"334 335 OFFCURVE",
"334 471 CURVE SMOOTH",
"334 588 OFFCURVE",
"296 708 OFFCURVE",
"214 835 CURVE",
"148 791 LINE",
"219 674 OFFCURVE",
"254 570 OFFCURVE",
"254 471 CURVE SMOOTH",
"254 356 OFFCURVE",
"210 246 OFFCURVE",
"120 141 CURVE"
);
}
);
};
guideLines = (
{
position = "{584, 1000}";
}
);
layerId = "6F1FF838-4CD9-4710-9EED-9AFF82DAD6EB";
paths = (
{
closed = 1;
nodes = (
"681 273 LINE",
"581 406 OFFCURVE",
"532 525 OFFCURVE",
"532 633 CURVE SMOOTH",
"532 735 OFFCURVE",
"564 845 OFFCURVE",
"631 967 CURVE",
"558 1000 LINE",
"491 870 OFFCURVE",
"454 749 OFFCURVE",
"454 631 CURVE SMOOTH",
"454 503 OFFCURVE",
"509 368 OFFCURVE",
"617 221 CURVE"
);
},
{
closed = 1;
nodes = (
"177 89 LINE",
"282 209 OFFCURVE",
"334 335 OFFCURVE",
"334 471 CURVE SMOOTH",
"334 588 OFFCURVE",
"296 708 OFFCURVE",
"214 835 CURVE",
"148 793 LINE",
"219 676 OFFCURVE",
"254 570 OFFCURVE",
"254 471 CURVE SMOOTH",
"254 356 OFFCURVE",
"210 246 OFFCURVE",
"120 141 CURVE"
);
},
{
closed = 1;
nodes = (
"511 -120 OFFCURVE",
"575 -59 OFFCURVE",
"575 45 CURVE SMOOTH",
"575 150 OFFCURVE",
"512 212 OFFCURVE",
"440 212 CURVE SMOOTH",
"367 212 OFFCURVE",
"302 150 OFFCURVE",
"302 45 CURVE SMOOTH",
"302 -59 OFFCURVE",
"367 -120 OFFCURVE",
"440 -120 CURVE SMOOTH"
);
},
{
closed = 1;
nodes = (
"407 -46 OFFCURVE",
"385 -10 OFFCURVE",
"385 45 CURVE SMOOTH",
"385 100 OFFCURVE",
"407 138 OFFCURVE",
"440 138 CURVE SMOOTH",
"471 138 OFFCURVE",
"493 100 OFFCURVE",
"493 45 CURVE SMOOTH",
"493 -10 OFFCURVE",
"471 -46 OFFCURVE",
"440 -46 CURVE SMOOTH"
);
}
);
width = 800;
},
{
associatedMasterId = "6F1FF838-4CD9-4710-9EED-9AFF82DAD6EB";
guideLines = (
{
position = "{584, 1000}";
}
);
layerId = "B119FF7C-38D8-4665-A173-BCA0B96EA7A1";
name = "Mar 4 20, 12:47";
paths = (
{
closed = 0;
nodes = (
"124 918 LINE",
"210 753 OFFCURVE",
"257 629 OFFCURVE",
"257 507 CURVE SMOOTH",
"257 386 OFFCURVE",
"210 267 OFFCURVE",
"108 113 CURVE SMOOTH"
);
},
{
closed = 0;
nodes = (
"590 1076 LINE",
"507 929 OFFCURVE",
"467 799 OFFCURVE",
"467 671 CURVE SMOOTH",
"467 521 OFFCURVE",
"522 373 OFFCURVE",
"629 201 CURVE SMOOTH"
);
},
{
closed = 1;
nodes = (
"473 -120 OFFCURVE",
"540 -60 OFFCURVE",
"540 44 CURVE SMOOTH",
"540 149 OFFCURVE",
"473 210 OFFCURVE",
"398 210 CURVE SMOOTH",
"323 210 OFFCURVE",
"256 149 OFFCURVE",
"256 44 CURVE SMOOTH",
"256 -60 OFFCURVE",
"323 -120 OFFCURVE",
"398 -120 CURVE SMOOTH"
);
},
{
closed = 1;
nodes = (
"363 -46 OFFCURVE",
"340 -10 OFFCURVE",
"340 44 CURVE SMOOTH",
"340 98 OFFCURVE",
"363 136 OFFCURVE",
"398 136 CURVE SMOOTH",
"433 136 OFFCURVE",
"457 98 OFFCURVE",
"457 44 CURVE SMOOTH",
"457 -10 OFFCURVE",
"433 -46 OFFCURVE",
"398 -46 CURVE SMOOTH"
);
}
);
width = 740;
},
{
guideLines = (
{
position = "{585, 1000}";
}
);
layerId = "43631C01-6FFC-4BF5-B35A-DC7F74885E25";
paths = (
{
closed = 1;
nodes = (
"738 288 LINE",
"642 417 OFFCURVE",
"596 521 OFFCURVE",
"596 633 CURVE SMOOTH",
"596 733 OFFCURVE",
"625 830 OFFCURVE",
"690 950 CURVE",
"585 1000 LINE",
"514 870 OFFCURVE",
"480 751 OFFCURVE",
"480 633 CURVE SMOOTH",
"480 497 OFFCURVE",
"531 363 OFFCURVE",
"645 215 CURVE"
);
},
{
closed = 1;
nodes = (
"206 113 LINE",
"308 236 OFFCURVE",
"360 367 OFFCURVE",
"360 501 CURVE SMOOTH",
"360 617 OFFCURVE",
"321 737 OFFCURVE",
"239 868 CURVE",
"140 809 LINE",
"210 695 OFFCURVE",
"243 597 OFFCURVE",
"243 501 CURVE SMOOTH",
"243 391 OFFCURVE",
"201 289 OFFCURVE",
"118 188 CURVE"
);
},
{
closed = 1;
nodes = (
"558 -120 OFFCURVE",
"627 -49 OFFCURVE",
"627 47 CURVE SMOOTH",
"627 151 OFFCURVE",
"558 228 OFFCURVE",
"465 228 CURVE SMOOTH",
"371 228 OFFCURVE",
"300 151 OFFCURVE",
"300 47 CURVE SMOOTH",
"300 -49 OFFCURVE",
"371 -120 OFFCURVE",
"465 -120 CURVE SMOOTH"
);
},
{
closed = 1;
nodes = (
"436 -22 OFFCURVE",
"423 1 OFFCURVE",
"423 52 CURVE SMOOTH",
"423 105 OFFCURVE",
"436 130 OFFCURVE",
"465 130 CURVE SMOOTH",
"492 130 OFFCURVE",
"505 105 OFFCURVE",
"505 52 CURVE SMOOTH",
"505 1 OFFCURVE",
"492 -22 OFFCURVE",
"465 -22 CURVE SMOOTH"
);
}
);
width = 850;
},
{
associatedMasterId = "43631C01-6FFC-4BF5-B35A-DC7F74885E25";
guideLines = (
{
position = "{584, 1000}";
}
);
layerId = "75B21CE7-04FC-40C5-9FD2-24CABE140917";
name = "Mar 4 20, 12:47";
paths = (
{
closed = 0;
nodes = (
"124 918 LINE",
"210 753 OFFCURVE",
"257 629 OFFCURVE",
"257 507 CURVE SMOOTH",
"257 386 OFFCURVE",
"210 267 OFFCURVE",
"108 113 CURVE SMOOTH"
);
},
{
closed = 0;
nodes = (
"590 1076 LINE",
"507 929 OFFCURVE",
"467 799 OFFCURVE",
"467 671 CURVE SMOOTH",
"467 521 OFFCURVE",
"522 373 OFFCURVE",
"629 201 CURVE SMOOTH"
);
},
{
closed = 1;
nodes = (
"473 -120 OFFCURVE",
"540 -60 OFFCURVE",
"540 44 CURVE SMOOTH",
"540 149 OFFCURVE",
"473 210 OFFCURVE",
"398 210 CURVE SMOOTH",
"323 210 OFFCURVE",
"256 149 OFFCURVE",
"256 44 CURVE SMOOTH",
"256 -60 OFFCURVE",
"323 -120 OFFCURVE",
"398 -120 CURVE SMOOTH"
);
},
{
closed = 1;
nodes = (
"363 -46 OFFCURVE",
"340 -10 OFFCURVE",
"340 44 CURVE SMOOTH",
"340 98 OFFCURVE",
"363 136 OFFCURVE",
"398 136 CURVE SMOOTH",
"433 136 OFFCURVE",
"457 98 OFFCURVE",
"457 44 CURVE SMOOTH",
"457 -10 OFFCURVE",
"433 -46 OFFCURVE",
"398 -46 CURVE SMOOTH"
);
}
);
width = 740;
},
{
background = {
paths = (
{
closed = 1;
nodes = (
"648 259 LINE",
"543 396 OFFCURVE",
"491 526 OFFCURVE",
"491 633 CURVE SMOOTH",
"491 736 OFFCURVE",
"526 852 OFFCURVE",
"594 975 CURVE",
"545 1000 LINE",
"474 872 OFFCURVE",
"438 749 OFFCURVE",
"438 633 CURVE SMOOTH",
"438 508 OFFCURVE",
"492 370 OFFCURVE",
"602 222 CURVE"
);
},
{
closed = 1;
nodes = (
"480 -120 OFFCURVE",
"540 -66 OFFCURVE",
"540 41 CURVE SMOOTH",
"540 144 OFFCURVE",
"481 196 OFFCURVE",
"424 196 CURVE SMOOTH",
"367 196 OFFCURVE",
"306 144 OFFCURVE",
"306 41 CURVE SMOOTH",
"306 -66 OFFCURVE",
"367 -120 OFFCURVE",
"424 -120 CURVE SMOOTH"
);
},
{
closed = 1;
nodes = (
"389 -64 OFFCURVE",
"361 -20 OFFCURVE",
"361 38 CURVE SMOOTH",
"361 94 OFFCURVE",
"389 140 OFFCURVE",
"424 140 CURVE SMOOTH",
"458 140 OFFCURVE",
"486 94 OFFCURVE",
"486 38 CURVE SMOOTH",
"486 -20 OFFCURVE",
"458 -64 OFFCURVE",
"424 -64 CURVE SMOOTH"
);
},
{
closed = 1;
nodes = (
"166 73 LINE",
"269 192 OFFCURVE",
"318 314 OFFCURVE",
"318 452 CURVE SMOOTH",
"318 570 OFFCURVE",
"279 689 OFFCURVE",
"198 813 CURVE",
"150 782 LINE",
"226 663 OFFCURVE",
"262 553 OFFCURVE",
"262 452 CURVE SMOOTH",
"262 334 OFFCURVE",
"214 221 OFFCURVE",
"120 114 CURVE"
);
}
);
};
layerId = "7B7A33B1-C38B-4BF8-ACF4-708FF5807549";
paths = (
{
closed = 1;
nodes = (
"648 259 LINE",
"543 396 OFFCURVE",
"491 526 OFFCURVE",
"491 633 CURVE SMOOTH",
"491 736 OFFCURVE",
"526 852 OFFCURVE",
"594 975 CURVE",
"545 1000 LINE",
"474 872 OFFCURVE",
"438 749 OFFCURVE",
"438 633 CURVE SMOOTH",
"438 508 OFFCURVE",
"492 370 OFFCURVE",
"602 222 CURVE"
);
},
{
closed = 1;
nodes = (
"166 73 LINE",
"269 192 OFFCURVE",
"318 314 OFFCURVE",
"318 452 CURVE SMOOTH",
"318 570 OFFCURVE",
"279 689 OFFCURVE",
"198 813 CURVE",
"150 782 LINE",
"226 663 OFFCURVE",
"262 553 OFFCURVE",
"262 452 CURVE SMOOTH",
"262 334 OFFCURVE",
"214 221 OFFCURVE",
"120 114 CURVE"
);
},
{
closed = 1;
nodes = (
"480 -120 OFFCURVE",
"540 -66 OFFCURVE",
"540 41 CURVE SMOOTH",
"540 144 OFFCURVE",
"481 196 OFFCURVE",
"424 196 CURVE SMOOTH",
"367 196 OFFCURVE",
"306 144 OFFCURVE",
"306 41 CURVE SMOOTH",
"306 -66 OFFCURVE",
"367 -120 OFFCURVE",
"424 -120 CURVE SMOOTH"
);
},
{
closed = 1;
nodes = (
"389 -64 OFFCURVE",
"361 -20 OFFCURVE",
"361 38 CURVE SMOOTH",
"361 94 OFFCURVE",
"389 140 OFFCURVE",
"424 140 CURVE SMOOTH",
"458 140 OFFCURVE",
"486 94 OFFCURVE",
"486 38 CURVE SMOOTH",
"486 -20 OFFCURVE",
"458 -64 OFFCURVE",
"424 -64 CURVE SMOOTH"
);
}
);
width = 769;
}
);
unicode = 1B190;
},
{
glyphname = u1B191;
lastChange = "2021-03-01 15:19:27 +0000";
layers = (
{
background = {
paths = (
{
closed = 1;
nodes = (
"447 546 OFFCURVE",
"588 730 OFFCURVE",
"621 990 CURVE",
"542 1000 LINE",
"512 776 OFFCURVE",
"391 617 OFFCURVE",
"146 495 CURVE",
"180 423 LINE"
);
},
{
closed = 1;
nodes = (
"172 196 LINE",
"392 300 OFFCURVE",
"525 419 OFFCURVE",
"525 577 CURVE SMOOTH",
"525 625 OFFCURVE",
"516 677 OFFCURVE",
"496 734 CURVE",
"433 668 LINE",
"444 637 OFFCURVE",
"449 608 OFFCURVE",
"449 581 CURVE SMOOTH",
"449 458 OFFCURVE",
"329 360 OFFCURVE",
"140 265 CURVE"
);
},
{
closed = 1;
nodes = (
"374 196 OFFCURVE",
"370 34 OFFCURVE",
"338 -108 CURVE",
"414 -120 LINE",
"448 41 OFFCURVE",
"450 213 OFFCURVE",
"428 405 CURVE",
"355 348 LINE"
);
},
{
closed = 1;
nodes = (
"357 63 OFFCURVE",
"530 194 OFFCURVE",
"680 361 CURVE",
"621 414 LINE",
"487 263 OFFCURVE",
"311 131 OFFCURVE",
"120 34 CURVE",
"154 -37 LINE"
);
}
);
};
guideLines = (
{
position = "{880, 1000}";
}
);
layerId = "6F1FF838-4CD9-4710-9EED-9AFF82DAD6EB";
paths = (
{
closed = 1;
nodes = (
"447 546 OFFCURVE",
"588 730 OFFCURVE",
"621 990 CURVE",
"542 1000 LINE",
"512 776 OFFCURVE",
"391 617 OFFCURVE",
"146 495 CURVE",
"180 423 LINE"
);
},
{
closed = 1;
nodes = (
"172 196 LINE",
"392 300 OFFCURVE",
"525 419 OFFCURVE",
"525 577 CURVE SMOOTH",
"525 625 OFFCURVE",
"516 677 OFFCURVE",
"496 734 CURVE",
"433 668 LINE",
"444 637 OFFCURVE",
"449 608 OFFCURVE",
"449 581 CURVE SMOOTH",
"449 458 OFFCURVE",
"329 360 OFFCURVE",
"140 265 CURVE"
);
},
{
closed = 1;
nodes = (
"374 196 OFFCURVE",
"370 34 OFFCURVE",
"338 -108 CURVE",
"414 -120 LINE",
"448 41 OFFCURVE",
"450 213 OFFCURVE",
"428 405 CURVE",
"355 348 LINE"
);
},
{
closed = 1;
nodes = (
"357 63 OFFCURVE",
"530 194 OFFCURVE",
"680 361 CURVE",
"620 413 LINE",
"486 262 OFFCURVE",
"311 131 OFFCURVE",
"120 34 CURVE",
"154 -37 LINE"
);
}
);
width = 800;
},
{
background = {
paths = (
{
closed = 1;
nodes = (
"479 551 OFFCURVE",
"623 712 OFFCURVE",
"676 982 CURVE",
"557 1000 LINE",
"509 780 OFFCURVE",
"386 642 OFFCURVE",
"126 520 CURVE",
"170 416 LINE"
);
},
{
closed = 1;
nodes = (
"164 169 LINE",
"470 308 OFFCURVE",
"593 432 OFFCURVE",
"593 603 CURVE SMOOTH",
"593 658 OFFCURVE",
"580 719 OFFCURVE",
"554 787 CURVE",
"461 683 LINE",
"470 655 OFFCURVE",
"474 628 OFFCURVE",
"474 602 CURVE SMOOTH",
"474 489 OFFCURVE",
"373 392 OFFCURVE",
"120 274 CURVE"
);
},
{
closed = 1;
nodes = (
"373 206 OFFCURVE",
"367 36 OFFCURVE",
"336 -102 CURVE",
"450 -120 LINE",
"490 46 OFFCURVE",
"490 221 OFFCURVE",
"469 411 CURVE",
"359 345 LINE"
);
},
{
closed = 1;
nodes = (
"372 29 OFFCURVE",
"563 154 OFFCURVE",
"730 319 CURVE",
"652 401 LINE",
"509 253 OFFCURVE",
"332 140 OFFCURVE",
"111 48 CURVE",
"149 -60 LINE"
);
}
);
};
guideLines = (
{
position = "{880, 1000}";
}
);
layerId = "43631C01-6FFC-4BF5-B35A-DC7F74885E25";
paths = (
{
closed = 1;
nodes = (
"479 551 OFFCURVE",
"623 712 OFFCURVE",
"676 982 CURVE",
"557 1000 LINE",
"509 780 OFFCURVE",
"386 642 OFFCURVE",
"126 520 CURVE",
"170 416 LINE"
);
},
{
closed = 1;
nodes = (
"164 169 LINE",
"470 308 OFFCURVE",
"593 432 OFFCURVE",
"593 603 CURVE SMOOTH",
"593 658 OFFCURVE",
"580 719 OFFCURVE",
"554 787 CURVE",
"461 683 LINE",
"470 655 OFFCURVE",
"474 628 OFFCURVE",
"474 602 CURVE SMOOTH",
"474 489 OFFCURVE",
"373 392 OFFCURVE",
"120 274 CURVE"
);
},
{
closed = 1;
nodes = (
"373 206 OFFCURVE",
"367 36 OFFCURVE",
"336 -102 CURVE",
"450 -120 LINE",
"490 46 OFFCURVE",
"490 221 OFFCURVE",
"469 411 CURVE",
"359 345 LINE"
);
},
{
closed = 1;
nodes = (
"372 29 OFFCURVE",
"563 154 OFFCURVE",
"730 319 CURVE",
"652 401 LINE",
"509 253 OFFCURVE",
"332 140 OFFCURVE",
"111 48 CURVE",
"149 -60 LINE"
);
}
);
width = 850;
},
{
layerId = "7B7A33B1-C38B-4BF8-ACF4-708FF5807549";
paths = (
{
closed = 1;
nodes = (
"426 549 OFFCURVE",
"565 742 OFFCURVE",
"586 996 CURVE",
"533 1000 LINE",
"512 778 OFFCURVE",
"394 601 OFFCURVE",
"159 479 CURVE",
"184 430 LINE"
);
},
{
closed = 1;
nodes = (
"176 213 LINE",
"344 295 OFFCURVE",
"483 411 OFFCURVE",
"483 561 CURVE SMOOTH",
"483 602 OFFCURVE",
"477 647 OFFCURVE",
"462 695 CURVE",
"419 653 LINE",
"429 622 OFFCURVE",
"434 593 OFFCURVE",
"434 567 CURVE SMOOTH",
"434 438 OFFCURVE",
"302 338 OFFCURVE",
"153 259 CURVE"
);
},
{
closed = 1;
nodes = (
"371 201 OFFCURVE",
"369 38 OFFCURVE",
"339 -112 CURVE",
"392 -120 LINE",
"422 38 OFFCURVE",
"425 208 OFFCURVE",
"402 401 CURVE",
"353 366 LINE"
);
},
{
closed = 1;
nodes = (
"345 85 OFFCURVE",
"508 219 OFFCURVE",
"649 387 CURVE",
"608 423 LINE",
"478 264 OFFCURVE",
"300 126 OFFCURVE",
"126 25 CURVE",
"152 -22 LINE"
);
}
);
width = 769;
}
);
unicode = 1B191;
},
{
glyphname = u1B192;
lastChange = "2021-03-01 15:19:27 +0000";
layers = (
{
guideLines = (
{
position = "{833, 1000}";
}
);
layerId = "6F1FF838-4CD9-4710-9EED-9AFF82DAD6EB";
paths = (
{
closed = 1;
nodes = (
"440 -40 OFFCURVE",
"454 39 OFFCURVE",
"454 115 CURVE SMOOTH",
"454 249 OFFCURVE",
"410 376 OFFCURVE",
"312 485 CURVE",
"311 443 LINE",
"474 574 OFFCURVE",
"581 751 OFFCURVE",
"637 983 CURVE",
"558 1000 LINE",
"506 779 OFFCURVE",
"395 606 OFFCURVE",
"220 471 CURVE",
"220 467 LINE",
"322 361 OFFCURVE",
"373 245 OFFCURVE",
"373 114 CURVE SMOOTH",
"373 48 OFFCURVE",
"360 -22 OFFCURVE",
"334 -97 CURVE",
"412 -120 LINE"
);
},
{
closed = 1;
nodes = (
"680 220 LINE",
"682 394 OFFCURVE",
"617 579 OFFCURVE",
"500 716 CURVE",
"450 646 LINE",
"542 536 OFFCURVE",
"598 394 OFFCURVE",
"604 216 CURVE"
);
},
{
closed = 1;
nodes = (
"212 76 OFFCURVE",
"234 104 OFFCURVE",
"234 137 CURVE SMOOTH",
"234 171 OFFCURVE",
"212 198 OFFCURVE",
"177 198 CURVE SMOOTH",
"145 198 OFFCURVE",
"120 171 OFFCURVE",
"120 137 CURVE SMOOTH",
"120 104 OFFCURVE",
"145 76 OFFCURVE",
"177 76 CURVE SMOOTH"
);
}
);
width = 800;
},
{
associatedMasterId = "6F1FF838-4CD9-4710-9EED-9AFF82DAD6EB";
guideLines = (
{
position = "{833, 1000}";
}
);
layerId = "27183902-CE8B-4FB9-B714-EFAB8CEA3370";
name = "Mar 4 20, 14:20";
paths = (
{
closed = 1;
nodes = (
"194 141 OFFCURVE",
"218 165 OFFCURVE",
"218 197 CURVE SMOOTH",
"218 228 OFFCURVE",
"194 252 OFFCURVE",
"162 252 CURVE SMOOTH",
"131 252 OFFCURVE",
"107 228 OFFCURVE",
"107 197 CURVE SMOOTH",
"107 165 OFFCURVE",
"131 141 OFFCURVE",
"162 141 CURVE SMOOTH"
);
},
{
closed = 0;
nodes = (
"593 1035 LINE",
"549 764 OFFCURVE",
"427 617 OFFCURVE",
"264 503 CURVE",
"427 283 OFFCURVE",
"398 67 OFFCURVE",
"225 -152 CURVE"
);
},
{
closed = 0;
nodes = (
"432 705 LINE",
"532 571 OFFCURVE",
"577 380 OFFCURVE",
"551 193 CURVE SMOOTH"
);
},
{
closed = 1;
nodes = (
"184 215 OFFCURVE",
"158 244 OFFCURVE",
"123 244 CURVE SMOOTH",
"85 244 OFFCURVE",
"62 215 OFFCURVE",
"62 178 CURVE SMOOTH",
"62 142 OFFCURVE",
"85 112 OFFCURVE",
"123 112 CURVE SMOOTH",
"158 112 OFFCURVE",
"184 142 OFFCURVE",
"184 178 CURVE SMOOTH"
);
}
);
width = 740;
},
{
guideLines = (
{
position = "{833, 1000}";
}
);
layerId = "43631C01-6FFC-4BF5-B35A-DC7F74885E25";
paths = (
{
closed = 1;
nodes = (
"496 -44 OFFCURVE",
"510 33 OFFCURVE",
"510 109 CURVE SMOOTH",
"510 251 OFFCURVE",
"461 389 OFFCURVE",
"363 509 CURVE",
"368 432 LINE",
"524 566 OFFCURVE",
"627 744 OFFCURVE",
"683 972 CURVE",
"558 1000 LINE",
"507 784 OFFCURVE",
"399 611 OFFCURVE",
"230 475 CURVE",
"230 470 LINE",
"332 358 OFFCURVE",
"384 239 OFFCURVE",
"384 109 CURVE SMOOTH",
"384 46 OFFCURVE",
"371 -20 OFFCURVE",
"347 -88 CURVE",
"468 -120 LINE"
);
},
{
closed = 1;
nodes = (
"741 223 LINE",
"743 424 OFFCURVE",
"672 626 OFFCURVE",
"550 764 CURVE",
"474 657 LINE",
"559 556 OFFCURVE",
"612 392 OFFCURVE",
"616 216 CURVE"
);
},
{
closed = 1;
nodes = (
"227 55 OFFCURVE",
"259 89 OFFCURVE",
"259 137 CURVE SMOOTH",
"259 185 OFFCURVE",
"227 219 OFFCURVE",
"181 219 CURVE SMOOTH",
"136 219 OFFCURVE",
"103 184 OFFCURVE",
"103 137 CURVE SMOOTH",
"103 91 OFFCURVE",
"137 55 OFFCURVE",
"181 55 CURVE SMOOTH"
);
}
);
width = 850;
},
{
associatedMasterId = "43631C01-6FFC-4BF5-B35A-DC7F74885E25";
guideLines = (
{
position = "{833, 1000}";
}
);
layerId = "3F5B4856-F93C-42AB-9BB5-03469DE95D16";
name = "Mar 4 20, 14:20";
paths = (
{
closed = 1;
nodes = (
"194 141 OFFCURVE",
"218 165 OFFCURVE",
"218 197 CURVE SMOOTH",
"218 228 OFFCURVE",
"194 252 OFFCURVE",
"162 252 CURVE SMOOTH",
"131 252 OFFCURVE",
"107 228 OFFCURVE",
"107 197 CURVE SMOOTH",
"107 165 OFFCURVE",
"131 141 OFFCURVE",
"162 141 CURVE SMOOTH"
);
},
{
closed = 0;
nodes = (
"593 1035 LINE",
"549 764 OFFCURVE",
"427 617 OFFCURVE",
"264 503 CURVE",
"427 283 OFFCURVE",
"398 67 OFFCURVE",
"225 -152 CURVE"
);
},
{
closed = 0;
nodes = (
"432 705 LINE",
"532 571 OFFCURVE",
"577 380 OFFCURVE",
"551 193 CURVE SMOOTH"
);
},
{
closed = 1;
nodes = (
"184 215 OFFCURVE",
"158 244 OFFCURVE",
"123 244 CURVE SMOOTH",
"85 244 OFFCURVE",
"62 215 OFFCURVE",
"62 178 CURVE SMOOTH",
"62 142 OFFCURVE",
"85 112 OFFCURVE",
"123 112 CURVE SMOOTH",
"158 112 OFFCURVE",
"184 142 OFFCURVE",
"184 178 CURVE SMOOTH"
);
}
);
width = 740;
},
{
background = {
paths = (
{
closed = 1;
nodes = (
"405 -35 OFFCURVE",
"420 44 OFFCURVE",
"420 118 CURVE SMOOTH",
"420 251 OFFCURVE",
"375 370 OFFCURVE",
"277 482 CURVE",
"280 453 LINE",
"442 581 OFFCURVE",
"552 755 OFFCURVE",
"607 988 CURVE",
"558 1000 LINE",
"506 778 OFFCURVE",
"395 606 OFFCURVE",
"219 473 CURVE",
"219 469 LINE",
"320 361 OFFCURVE",
"369 249 OFFCURVE",
"369 118 CURVE SMOOTH",
"369 49 OFFCURVE",
"352 -23 OFFCURVE",
"326 -100 CURVE",
"377 -120 LINE"
);
},
{
closed = 1;
nodes = (
"206 88 OFFCURVE",
"222 112 OFFCURVE",
"222 137 CURVE SMOOTH",
"222 164 OFFCURVE",
"206 187 OFFCURVE",
"176 187 CURVE SMOOTH",
"151 187 OFFCURVE",
"131 165 OFFCURVE",
"131 137 CURVE SMOOTH",
"131 111 OFFCURVE",
"150 88 OFFCURVE",
"176 88 CURVE SMOOTH"
);
},
{
closed = 1;
nodes = (
"632 206 LINE",
"623 359 OFFCURVE",
"566 543 OFFCURVE",
"450 679 CURVE",
"420 637 LINE",
"517 518 OFFCURVE",
"568 381 OFFCURVE",
"584 203 CURVE"
);
}
);
};
layerId = "7B7A33B1-C38B-4BF8-ACF4-708FF5807549";
paths = (
{
closed = 1;
nodes = (
"405 -35 OFFCURVE",
"420 44 OFFCURVE",
"420 118 CURVE SMOOTH",
"420 251 OFFCURVE",
"375 370 OFFCURVE",
"277 482 CURVE",
"280 453 LINE",
"442 581 OFFCURVE",
"552 755 OFFCURVE",
"607 988 CURVE",
"558 1000 LINE",
"506 778 OFFCURVE",
"395 606 OFFCURVE",
"219 473 CURVE",
"219 469 LINE",
"320 361 OFFCURVE",
"369 249 OFFCURVE",
"369 118 CURVE SMOOTH",
"369 49 OFFCURVE",
"352 -23 OFFCURVE",
"326 -100 CURVE",
"377 -120 LINE"
);
},
{
closed = 1;
nodes = (
"634 206 LINE",
"625 359 OFFCURVE",
"568 543 OFFCURVE",
"452 679 CURVE",
"419 637 LINE",
"516 518 OFFCURVE",
"567 381 OFFCURVE",
"583 203 CURVE"
);
},
{
closed = 1;
nodes = (
"206 88 OFFCURVE",
"222 112 OFFCURVE",
"222 137 CURVE SMOOTH",
"222 164 OFFCURVE",
"206 187 OFFCURVE",
"176 187 CURVE SMOOTH",
"151 187 OFFCURVE",
"131 165 OFFCURVE",
"131 137 CURVE SMOOTH",
"131 111 OFFCURVE",
"150 88 OFFCURVE",
"176 88 CURVE SMOOTH"
);
}
);
width = 769;
}
);
unicode = 1B192;
},
{
glyphname = u1B193;
lastChange = "2021-03-01 15:19:27 +0000";
layers = (
{
background = {
paths = (
{
closed = 1;
nodes = (
"354 493 OFFCURVE",
"378 466 OFFCURVE",
"410 466 CURVE SMOOTH",
"445 466 OFFCURVE",
"466 493 OFFCURVE",
"466 526 CURVE SMOOTH",
"466 560 OFFCURVE",
"445 586 OFFCURVE",
"410 586 CURVE SMOOTH",
"378 586 OFFCURVE",
"354 560 OFFCURVE",
"354 526 CURVE SMOOTH"
);
},
{
closed = 1;
nodes = (
"495 -120 LINE",
"647 156 OFFCURVE",
"655 595 OFFCURVE",
"622 1000 CURVE",
"540 991 LINE",
"573 618 OFFCURVE",
"569 216 OFFCURVE",
"443 -46 CURVE",
"486 -55 LINE",
"249 509 LINE",
"172 479 LINE",
"427 -120 LINE"
);
},
{
closed = 1;
nodes = (
"213 -26 OFFCURVE",
"234 1 OFFCURVE",
"234 34 CURVE SMOOTH",
"234 69 OFFCURVE",
"213 95 OFFCURVE",
"178 95 CURVE SMOOTH",
"146 95 OFFCURVE",
"122 69 OFFCURVE",
"122 34 CURVE SMOOTH",
"122 1 OFFCURVE",
"146 -26 OFFCURVE",
"178 -26 CURVE SMOOTH"
);
}
);
};
guideLines = (
{
position = "{833, 1000}";
}
);
layerId = "6F1FF838-4CD9-4710-9EED-9AFF82DAD6EB";
paths = (
{
closed = 1;
nodes = (
"495 -120 LINE",
"647 156 OFFCURVE",
"655 595 OFFCURVE",
"622 1000 CURVE",
"540 991 LINE",
"573 618 OFFCURVE",
"569 216 OFFCURVE",
"443 -46 CURVE",
"486 -55 LINE",
"249 509 LINE",
"172 479 LINE",
"427 -120 LINE"
);
},
{
closed = 1;
nodes = (
"354 494 OFFCURVE",
"378 467 OFFCURVE",
"409 467 CURVE SMOOTH",
"443 467 OFFCURVE",
"464 494 OFFCURVE",
"464 526 CURVE SMOOTH",
"464 559 OFFCURVE",
"443 585 OFFCURVE",
"409 585 CURVE SMOOTH",
"378 585 OFFCURVE",
"354 559 OFFCURVE",
"354 526 CURVE SMOOTH"
);
},
{
closed = 1;
nodes = (
"211 -25 OFFCURVE",
"232 2 OFFCURVE",
"232 34 CURVE SMOOTH",
"232 68 OFFCURVE",
"211 94 OFFCURVE",
"177 94 CURVE SMOOTH",
"146 94 OFFCURVE",
"122 68 OFFCURVE",
"122 34 CURVE SMOOTH",
"122 2 OFFCURVE",
"146 -25 OFFCURVE",
"177 -25 CURVE SMOOTH"
);
}
);
width = 800;
},
{
guideLines = (
{
position = "{833, 1000}";
}
);
layerId = "43631C01-6FFC-4BF5-B35A-DC7F74885E25";
paths = (
{
closed = 1;
nodes = (
"532 -120 LINE",
"678 154 OFFCURVE",
"728 576 OFFCURVE",
"687 1000 CURVE",
"564 986 LINE",
"596 600 OFFCURVE",
"562 209 OFFCURVE",
"440 -28 CURVE",
"524 -12 LINE",
"293 533 LINE",
"175 486 LINE",
"433 -118 LINE"
);
},
{
closed = 1;
nodes = (
"354 541 OFFCURVE",
"388 505 OFFCURVE",
"431 505 CURVE SMOOTH",
"476 505 OFFCURVE",
"508 540 OFFCURVE",
"508 586 CURVE SMOOTH",
"508 633 OFFCURVE",
"476 667 OFFCURVE",
"431 667 CURVE SMOOTH",
"387 667 OFFCURVE",
"354 632 OFFCURVE",
"354 586 CURVE SMOOTH"
);
},
{
closed = 1;
nodes = (
"246 -40 OFFCURVE",
"280 -4 OFFCURVE",
"280 44 CURVE SMOOTH",
"280 93 OFFCURVE",
"247 129 OFFCURVE",
"200 129 CURVE SMOOTH",
"155 129 OFFCURVE",
"120 92 OFFCURVE",
"120 44 CURVE SMOOTH",
"120 -3 OFFCURVE",
"156 -40 OFFCURVE",
"200 -40 CURVE SMOOTH"
);
}
);
width = 850;
},
{
layerId = "7B7A33B1-C38B-4BF8-ACF4-708FF5807549";
paths = (
{
closed = 1;
nodes = (
"471 -120 LINE",
"626 157 OFFCURVE",
"610 607 OFFCURVE",
"581 1000 CURVE",
"522 996 LINE",
"554 620 OFFCURVE",
"572 199 OFFCURVE",
"427 -86 CURVE",
"465 -79 LINE",
"225 497 LINE",
"170 475 LINE",
"424 -120 LINE"
);
},
{
closed = 1;
nodes = (
"354 463 OFFCURVE",
"372 442 OFFCURVE",
"397 442 CURVE SMOOTH",
"426 442 OFFCURVE",
"440 464 OFFCURVE",
"440 489 CURVE SMOOTH",
"440 514 OFFCURVE",
"426 535 OFFCURVE",
"397 535 CURVE SMOOTH",
"372 535 OFFCURVE",
"354 515 OFFCURVE",
"354 489 CURVE SMOOTH"
);
},
{
closed = 1;
nodes = (
"192 -17 OFFCURVE",
"205 4 OFFCURVE",
"205 28 CURVE SMOOTH",
"205 54 OFFCURVE",
"192 74 OFFCURVE",
"164 74 CURVE SMOOTH",
"140 74 OFFCURVE",
"123 55 OFFCURVE",
"123 28 CURVE SMOOTH",
"123 4 OFFCURVE",
"140 -17 OFFCURVE",
"164 -17 CURVE SMOOTH"
);
}
);
width = 769;
}
);
unicode = 1B193;
},
{
glyphname = u1B194;
lastChange = "2021-03-01 15:19:27 +0000";
layers = (
{
guideLines = (
{
position = "{833, 1000}";
}
);
layerId = "6F1FF838-4CD9-4710-9EED-9AFF82DAD6EB";
paths = (
{
closed = 1;
nodes = (
"398 557 OFFCURVE",
"528 744 OFFCURVE",
"600 983 CURVE",
"523 1000 LINE",
"461 779 OFFCURVE",
"331 613 OFFCURVE",
"120 470 CURVE",
"161 405 LINE"
);
},
{
closed = 1;
nodes = (
"680 36 LINE",
"275 865 LINE",
"203 830 LINE",
"608 1 LINE"
);
},
{
closed = 1;
nodes = (
"365 293 OFFCURVE",
"531 445 OFFCURVE",
"643 602 CURVE",
"577 647 LINE",
"473 502 OFFCURVE",
"313 354 OFFCURVE",
"147 246 CURVE",
"188 179 LINE"
);
},
{
closed = 1;
nodes = (
"351 -14 OFFCURVE",
"452 103 OFFCURVE",
"542 229 CURVE",
"492 299 LINE",
"402 166 OFFCURVE",
"300 46 OFFCURVE",
"184 -61 CURVE",
"237 -120 LINE"
);
}
);
width = 800;
},
{
background = {
paths = (
{
closed = 1;
nodes = (
"730 38 LINE",
"316 884 LINE",
"208 832 LINE",
"621 -15 LINE"
);
},
{
closed = 1;
nodes = (
"378 -22 OFFCURVE",
"479 79 OFFCURVE",
"568 188 CURVE",
"500 293 LINE",
"405 171 OFFCURVE",
"304 66 OFFCURVE",
"189 -26 CURVE",
"260 -120 LINE"
);
},
{
closed = 1;
nodes = (
"403 263 OFFCURVE",
"573 416 OFFCURVE",
"715 609 CURVE",
"618 674 LINE",
"504 513 OFFCURVE",
"346 362 OFFCURVE",
"142 234 CURVE",
"199 135 LINE"
);
},
{
closed = 1;
nodes = (
"429 530 OFFCURVE",
"577 732 OFFCURVE",
"634 979 CURVE",
"521 1000 LINE",
"470 790 OFFCURVE",
"355 631 OFFCURVE",
"120 462 CURVE",
"184 368 LINE"
);
}
);
};
guideLines = (
{
position = "{833, 1000}";
}
);
layerId = "43631C01-6FFC-4BF5-B35A-DC7F74885E25";
paths = (
{
closed = 1;
nodes = (
"429 530 OFFCURVE",
"577 732 OFFCURVE",
"634 979 CURVE",
"521 1000 LINE",
"470 790 OFFCURVE",
"355 631 OFFCURVE",
"120 462 CURVE",
"184 368 LINE"
);
},
{
closed = 1;
nodes = (
"730 38 LINE",
"316 884 LINE",
"208 832 LINE",
"621 -15 LINE"
);
},
{
closed = 1;
nodes = (
"403 263 OFFCURVE",
"573 416 OFFCURVE",
"715 609 CURVE",
"618 674 LINE",
"503 513 OFFCURVE",
"345 360 OFFCURVE",
"141 232 CURVE",
"199 135 LINE"
);
},
{
closed = 1;
nodes = (
"378 -22 OFFCURVE",
"479 79 OFFCURVE",
"568 188 CURVE",
"500 293 LINE",
"405 171 OFFCURVE",
"304 66 OFFCURVE",
"189 -26 CURVE",
"260 -120 LINE"
);
}
);
width = 850;
},
{
layerId = "7B7A33B1-C38B-4BF8-ACF4-708FF5807549";
paths = (
{
closed = 1;
nodes = (
"380 575 OFFCURVE",
"499 754 OFFCURVE",
"578 986 CURVE",
"524 1000 LINE",
"455 772 OFFCURVE",
"316 603 OFFCURVE",
"120 475 CURVE",
"149 429 LINE"
);
},
{
closed = 1;
nodes = (
"649 35 LINE",
"249 853 LINE",
"200 829 LINE",
"600 11 LINE"
);
},
{
closed = 1;
nodes = (
"341 306 OFFCURVE",
"505 463 OFFCURVE",
"598 598 CURVE",
"551 630 LINE",
"455 493 OFFCURVE",
"297 343 OFFCURVE",
"152 252 CURVE",
"182 204 LINE"
);
},
{
closed = 1;
nodes = (
"333 -12 OFFCURVE",
"431 113 OFFCURVE",
"523 251 CURVE",
"487 303 LINE",
"402 166 OFFCURVE",
"300 38 OFFCURVE",
"185 -80 CURVE",
"223 -120 LINE"
);
}
);
width = 769;
}
);
unicode = 1B194;
},
{
glyphname = u1B195;
lastChange = "2021-03-01 15:19:27 +0000";
layers = (
{
guideLines = (
{
position = "{833, 1000}";
}
);
layerId = "6F1FF838-4CD9-4710-9EED-9AFF82DAD6EB";
paths = (
{
closed = 1;
nodes = (
"396 246 OFFCURVE",
"489 535 OFFCURVE",
"486 1000 CURVE",
"406 998 LINE",
"409 574 OFFCURVE",
"329 299 OFFCURVE",
"120 31 CURVE",
"179 -19 LINE"
);
},
{
closed = 1;
nodes = (
"503 98 OFFCURVE",
"477 272 OFFCURVE",
"409 489 CURVE",
"360 383 LINE",
"406 218 OFFCURVE",
"425 74 OFFCURVE",
"421 -119 CURVE",
"501 -120 LINE"
);
},
{
closed = 1;
nodes = (
"213 455 OFFCURVE",
"234 481 OFFCURVE",
"234 516 CURVE SMOOTH",
"234 549 OFFCURVE",
"213 576 OFFCURVE",
"178 576 CURVE SMOOTH",
"146 576 OFFCURVE",
"122 549 OFFCURVE",
"122 516 CURVE SMOOTH",
"122 481 OFFCURVE",
"146 455 OFFCURVE",
"178 455 CURVE SMOOTH"
);
},
{
closed = 1;
nodes = (
"657 395 OFFCURVE",
"678 421 OFFCURVE",
"678 456 CURVE SMOOTH",
"678 489 OFFCURVE",
"657 516 OFFCURVE",
"622 516 CURVE SMOOTH",
"590 516 OFFCURVE",
"566 489 OFFCURVE",
"566 456 CURVE SMOOTH",
"566 421 OFFCURVE",
"590 395 OFFCURVE",
"622 395 CURVE SMOOTH"
);
}
);
width = 800;
},
{
background = {
paths = (
{
closed = 1;
nodes = (
"423 226 OFFCURVE",
"514 521 OFFCURVE",
"528 999 CURVE",
"407 1000 LINE",
"395 567 OFFCURVE",
"311 292 OFFCURVE",
"115 39 CURVE",
"210 -35 LINE"
);
},
{
closed = 1;
nodes = (
"556 116 OFFCURVE",
"525 303 OFFCURVE",
"447 535 CURVE",
"369 400 LINE",
"417 230 OFFCURVE",
"435 82 OFFCURVE",
"433 -117 CURVE",
"554 -120 LINE"
);
},
{
closed = 1;
nodes = (
"230 462 OFFCURVE",
"259 498 OFFCURVE",
"259 546 CURVE SMOOTH",
"259 591 OFFCURVE",
"230 629 OFFCURVE",
"182 629 CURVE SMOOTH",
"138 629 OFFCURVE",
"105 591 OFFCURVE",
"105 546 CURVE SMOOTH",
"105 498 OFFCURVE",
"138 462 OFFCURVE",
"182 462 CURVE SMOOTH"
);
},
{
closed = 1;
nodes = (
"716 372 OFFCURVE",
"745 408 OFFCURVE",
"745 456 CURVE SMOOTH",
"745 501 OFFCURVE",
"716 539 OFFCURVE",
"668 539 CURVE SMOOTH",
"624 539 OFFCURVE",
"591 501 OFFCURVE",
"591 456 CURVE SMOOTH",
"591 408 OFFCURVE",
"624 372 OFFCURVE",
"668 372 CURVE SMOOTH"
);
}
);
};
guideLines = (
{
position = "{833, 1000}";
}
);
layerId = "43631C01-6FFC-4BF5-B35A-DC7F74885E25";
paths = (
{
closed = 1;
nodes = (
"420 226 OFFCURVE",
"514 521 OFFCURVE",
"528 999 CURVE",
"407 1000 LINE",
"395 567 OFFCURVE",
"311 292 OFFCURVE",
"115 39 CURVE",
"210 -35 LINE"
);
},
{
closed = 1;
nodes = (
"556 124 OFFCURVE",
"523 318 OFFCURVE",
"439 558 CURVE",
"369 400 LINE",
"417 229 OFFCURVE",
"435 80 OFFCURVE",
"433 -120 CURVE",
"554 -120 LINE"
);
},
{
closed = 1;
nodes = (
"230 462 OFFCURVE",
"259 498 OFFCURVE",
"259 546 CURVE SMOOTH",
"259 591 OFFCURVE",
"230 629 OFFCURVE",
"182 629 CURVE SMOOTH",
"138 629 OFFCURVE",
"105 591 OFFCURVE",
"105 546 CURVE SMOOTH",
"105 498 OFFCURVE",
"138 462 OFFCURVE",
"182 462 CURVE SMOOTH"
);
},
{
closed = 1;
nodes = (
"716 372 OFFCURVE",
"745 408 OFFCURVE",
"745 456 CURVE SMOOTH",
"745 501 OFFCURVE",
"716 539 OFFCURVE",
"668 539 CURVE SMOOTH",
"624 539 OFFCURVE",
"591 501 OFFCURVE",
"591 456 CURVE SMOOTH",
"591 408 OFFCURVE",
"624 372 OFFCURVE",
"668 372 CURVE SMOOTH"
);
}
);
width = 850;
},
{
background = {
paths = (
{
closed = 1;
nodes = (
"386 257 OFFCURVE",
"469 544 OFFCURVE",
"460 1001 CURVE",
"405 1000 LINE",
"418 580 OFFCURVE",
"340 303 OFFCURVE",
"123 27 CURVE",
"165 -11 LINE"
);
},
{
closed = 1;
nodes = (
"470 87 OFFCURVE",
"447 253 OFFCURVE",
"385 460 CURVE",
"352 383 LINE",
"399 218 OFFCURVE",
"416 73 OFFCURVE",
"414 -120 CURVE",
"468 -120 LINE"
);
},
{
closed = 1;
nodes = (
"200 452 OFFCURVE",
"216 471 OFFCURVE",
"216 497 CURVE SMOOTH",
"216 522 OFFCURVE",
"200 542 OFFCURVE",
"175 542 CURVE SMOOTH",
"150 542 OFFCURVE",
"133 522 OFFCURVE",
"133 497 CURVE SMOOTH",
"133 471 OFFCURVE",
"150 452 OFFCURVE",
"175 452 CURVE SMOOTH"
);
},
{
closed = 1;
nodes = (
"618 410 OFFCURVE",
"633 430 OFFCURVE",
"633 456 CURVE SMOOTH",
"633 481 OFFCURVE",
"618 501 OFFCURVE",
"592 501 CURVE SMOOTH",
"568 501 OFFCURVE",
"550 481 OFFCURVE",
"550 456 CURVE SMOOTH",
"550 430 OFFCURVE",
"568 410 OFFCURVE",
"592 410 CURVE SMOOTH"
);
}
);
};
layerId = "7B7A33B1-C38B-4BF8-ACF4-708FF5807549";
paths = (
{
closed = 1;
nodes = (
"386 257 OFFCURVE",
"469 544 OFFCURVE",
"460 1001 CURVE",
"405 1000 LINE",
"418 580 OFFCURVE",
"340 303 OFFCURVE",
"123 27 CURVE",
"165 -11 LINE"
);
},
{
closed = 1;
nodes = (
"470 87 OFFCURVE",
"447 253 OFFCURVE",
"385 460 CURVE",
"352 383 LINE",
"399 218 OFFCURVE",
"416 73 OFFCURVE",
"414 -120 CURVE",
"468 -120 LINE"
);
},
{
closed = 1;
nodes = (
"200 452 OFFCURVE",
"216 471 OFFCURVE",
"216 497 CURVE SMOOTH",
"216 522 OFFCURVE",
"200 542 OFFCURVE",
"175 542 CURVE SMOOTH",
"150 542 OFFCURVE",
"133 522 OFFCURVE",
"133 497 CURVE SMOOTH",
"133 471 OFFCURVE",
"150 452 OFFCURVE",
"175 452 CURVE SMOOTH"
);
},
{
closed = 1;
nodes = (
"618 410 OFFCURVE",
"633 430 OFFCURVE",
"633 456 CURVE SMOOTH",
"633 481 OFFCURVE",
"618 501 OFFCURVE",
"592 501 CURVE SMOOTH",
"568 501 OFFCURVE",
"550 481 OFFCURVE",
"550 456 CURVE SMOOTH",
"550 430 OFFCURVE",
"568 410 OFFCURVE",
"592 410 CURVE SMOOTH"
);
}
);
width = 769;
}
);
unicode = 1B195;
},
{
glyphname = u1B196;
lastChange = "2021-03-01 15:19:27 +0000";
layers = (
{
guideLines = (
{
position = "{833, 1000}";
}
);
layerId = "6F1FF838-4CD9-4710-9EED-9AFF82DAD6EB";
paths = (
{
closed = 1;
nodes = (
"274 779 OFFCURVE",
"212 578 OFFCURVE",
"97 386 CURVE",
"161 345 LINE",
"284 547 OFFCURVE",
"354 761 OFFCURVE",
"362 999 CURVE",
"283 1000 LINE"
);
},
{
closed = 1;
nodes = (
"428 445 OFFCURVE",
"470 182 OFFCURVE",
"432 -114 CURVE",
"508 -120 LINE",
"548 225 OFFCURVE",
"490 527 OFFCURVE",
"310 800 CURVE",
"282 690 LINE"
);
},
{
closed = 1;
nodes = (
"579 777 LINE",
"544 780 LINE",
"586 619 OFFCURVE",
"614 459 OFFCURVE",
"626 289 CURVE",
"702 297 LINE",
"685 496 OFFCURVE",
"649 681 OFFCURVE",
"593 860 CURVE",
"526 858 LINE",
"213 26 LINE",
"284 0 LINE"
);
}
);
width = 800;
},
{
associatedMasterId = "6F1FF838-4CD9-4710-9EED-9AFF82DAD6EB";
guideLines = (
{
position = "{833, 1000}";
}
);
layerId = "92E8ECB7-E6AC-4A8C-BF85-A068A4A2DA30";
name = "Mar 4 20, 17:17";
paths = (
{
closed = 0;
nodes = (
"66 326 LINE",
"134 488 OFFCURVE",
"190 654 OFFCURVE",
"235 822 CURVE",
"421 487 OFFCURVE",
"483 237 OFFCURVE",
"478 -156 CURVE SMOOTH"
);
},
{
closed = 0;
nodes = (
"214 15 LINE",
"500 985 LINE",
"575 800 OFFCURVE",
"633 553 OFFCURVE",
"662 322 CURVE SMOOTH"
);
}
);
width = 740;
},
{
guideLines = (
{
position = "{833, 1000}";
}
);
layerId = "43631C01-6FFC-4BF5-B35A-DC7F74885E25";
paths = (
{
closed = 1;
nodes = (
"264 789 OFFCURVE",
"194 601 OFFCURVE",
"76 427 CURVE",
"172 360 LINE",
"306 551 OFFCURVE",
"384 758 OFFCURVE",
"410 988 CURVE",
"293 1000 LINE"
);
},
{
closed = 1;
nodes = (
"422 443 OFFCURVE",
"470 187 OFFCURVE",
"434 -109 CURVE",
"544 -120 LINE",
"587 238 OFFCURVE",
"521 550 OFFCURVE",
"332 830 CURVE",
"281 669 LINE"
);
},
{
closed = 1;
nodes = (
"626 733 LINE",
"573 730 LINE",
"612 590 OFFCURVE",
"636 453 OFFCURVE",
"647 309 CURVE",
"761 320 LINE",
"745 513 OFFCURVE",
"704 692 OFFCURVE",
"641 864 CURVE",
"546 863 LINE",
"187 15 LINE",
"293 -33 LINE"
);
}
);
width = 850;
},
{
associatedMasterId = "43631C01-6FFC-4BF5-B35A-DC7F74885E25";
guideLines = (
{
position = "{833, 1000}";
}
);
layerId = "9115FE51-379D-40F0-97F0-485EDEB3F5CE";
name = "Mar 4 20, 17:17";
paths = (
{
closed = 0;
nodes = (
"66 326 LINE",
"134 488 OFFCURVE",
"190 654 OFFCURVE",
"235 822 CURVE",
"421 487 OFFCURVE",
"483 237 OFFCURVE",
"478 -156 CURVE SMOOTH"
);
},
{
closed = 0;
nodes = (
"214 15 LINE",
"500 985 LINE",
"575 800 OFFCURVE",
"633 553 OFFCURVE",
"662 322 CURVE SMOOTH"
);
}
);
width = 740;
},
{
background = {
paths = (
{
closed = 1;
nodes = (
"431 453 OFFCURVE",
"471 184 OFFCURVE",
"432 -113 CURVE",
"486 -120 LINE",
"524 219 OFFCURVE",
"470 515 OFFCURVE",
"295 784 CURVE",
"279 709 LINE"
);
},
{
closed = 1;
nodes = (
"280 772 OFFCURVE",
"224 564 OFFCURVE",
"110 360 CURVE",
"156 331 LINE",
"273 539 OFFCURVE",
"334 757 OFFCURVE",
"331 1000 CURVE",
"277 999 LINE"
);
},
{
closed = 1;
nodes = (
"550 800 LINE",
"526 791 LINE",
"571 624 OFFCURVE",
"602 458 OFFCURVE",
"613 281 CURVE",
"665 283 LINE",
"648 487 OFFCURVE",
"613 679 OFFCURVE",
"558 864 CURVE",
"515 864 LINE",
"230 40 LINE",
"278 21 LINE"
);
}
);
};
layerId = "7B7A33B1-C38B-4BF8-ACF4-708FF5807549";
paths = (
{
closed = 1;
nodes = (
"280 772 OFFCURVE",
"224 564 OFFCURVE",
"110 360 CURVE",
"156 331 LINE",
"273 539 OFFCURVE",
"334 757 OFFCURVE",
"331 1000 CURVE",
"277 999 LINE"
);
},
{
closed = 1;
nodes = (
"431 453 OFFCURVE",
"471 184 OFFCURVE",
"432 -113 CURVE",
"486 -120 LINE",
"524 219 OFFCURVE",
"470 515 OFFCURVE",
"295 784 CURVE",
"279 709 LINE"
);
},
{
closed = 1;
nodes = (
"550 800 LINE",
"526 791 LINE",
"571 624 OFFCURVE",
"602 458 OFFCURVE",
"613 281 CURVE",
"665 283 LINE",
"648 487 OFFCURVE",
"613 679 OFFCURVE",
"558 864 CURVE",
"515 864 LINE",
"230 40 LINE",
"278 21 LINE"
);
}
);
width = 769;
}
);
unicode = 1B196;
},
{
glyphname = u1B197;
lastChange = "2021-03-01 15:19:27 +0000";
layers = (
{
guideLines = (
{
position = "{833, 1000}";
}
);
layerId = "6F1FF838-4CD9-4710-9EED-9AFF82DAD6EB";
paths = (
{
closed = 1;
nodes = (
"389 460 OFFCURVE",
"531 686 OFFCURVE",
"585 991 CURVE",
"507 1000 LINE",
"455 720 OFFCURVE",
"337 533 OFFCURVE",
"110 361 CURVE",
"155 298 LINE"
);
},
{
closed = 1;
nodes = (
"536 125 LINE",
"224 764 LINE",
"152 728 LINE",
"478 61 LINE"
);
},
{
closed = 1;
nodes = (
"372 197 OFFCURVE",
"490 316 OFFCURVE",
"593 463 CURVE",
"534 511 LINE",
"438 375 OFFCURVE",
"326 260 OFFCURVE",
"191 160 CURVE",
"232 100 LINE"
);
},
{
closed = 1;
nodes = (
"461 -14 OFFCURVE",
"584 104 OFFCURVE",
"688 240 CURVE",
"628 289 LINE",
"529 161 OFFCURVE",
"411 47 OFFCURVE",
"268 -56 CURVE",
"313 -120 LINE"
);
}
);
width = 800;
},
{
guideLines = (
{
position = "{833, 1000}";
}
);
layerId = "43631C01-6FFC-4BF5-B35A-DC7F74885E25";
paths = (
{
closed = 1;
nodes = (
"403 492 OFFCURVE",
"544 716 OFFCURVE",
"587 989 CURVE",
"474 1000 LINE",
"438 773 OFFCURVE",
"312 576 OFFCURVE",
"90 400 CURVE",
"159 308 LINE"
);
},
{
closed = 1;
nodes = (
"578 177 LINE",
"237 876 LINE",
"128 825 LINE",
"492 77 LINE"
);
},
{
closed = 1;
nodes = (
"407 208 OFFCURVE",
"549 368 OFFCURVE",
"648 528 CURVE",
"554 594 LINE",
"462 446 OFFCURVE",
"343 315 OFFCURVE",
"192 193 CURVE",
"263 99 LINE"
);
},
{
closed = 1;
nodes = (
"495 -7 OFFCURVE",
"646 149 OFFCURVE",
"756 300 CURVE",
"665 369 LINE",
"562 226 OFFCURVE",
"437 96 OFFCURVE",
"284 -29 CURVE",
"350 -120 LINE"
);
}
);
width = 850;
},
{
background = {
paths = (
{
closed = 1;
nodes = (
"379 439 OFFCURVE",
"521 664 OFFCURVE",
"582 992 CURVE",
"528 1000 LINE",
"466 687 OFFCURVE",
"353 499 OFFCURVE",
"123 337 CURVE",
"152 291 LINE"
);
},
{
closed = 1;
nodes = (
"358 189 OFFCURVE",
"459 285 OFFCURVE",
"564 424 CURVE",
"522 459 LINE",
"425 332 OFFCURVE",
"316 227 OFFCURVE",
"191 141 CURVE",
"221 95 LINE"
);
},
{
closed = 1;
nodes = (
"510 93 LINE",
"216 694 LINE",
"167 667 LINE",
"466 56 LINE"
);
},
{
closed = 1;
nodes = (
"438 -15 OFFCURVE",
"541 79 OFFCURVE",
"641 202 CURVE",
"602 237 LINE",
"507 120 OFFCURVE",
"394 18 OFFCURVE",
"259 -72 CURVE",
"290 -120 LINE"
);
}
);
};
layerId = "7B7A33B1-C38B-4BF8-ACF4-708FF5807549";
paths = (
{
closed = 1;
nodes = (
"379 439 OFFCURVE",
"521 664 OFFCURVE",
"582 992 CURVE",
"528 1000 LINE",
"466 687 OFFCURVE",
"353 499 OFFCURVE",
"123 337 CURVE",
"152 291 LINE"
);
},
{
closed = 1;
nodes = (
"510 93 LINE",
"216 694 LINE",
"167 667 LINE",
"466 56 LINE"
);
},
{
closed = 1;
nodes = (
"358 189 OFFCURVE",
"459 285 OFFCURVE",
"564 424 CURVE",
"522 459 LINE",
"425 332 OFFCURVE",
"316 227 OFFCURVE",
"191 141 CURVE",
"221 95 LINE"
);
},
{
closed = 1;
nodes = (
"438 -15 OFFCURVE",
"541 79 OFFCURVE",
"641 202 CURVE",
"602 237 LINE",
"507 120 OFFCURVE",
"394 18 OFFCURVE",
"259 -72 CURVE",
"290 -120 LINE"
);
}
);
width = 769;
}
);
unicode = 1B197;
},
